<svg xmlns="http://www.w3.org/2000/svg" version="1.1" width="715" height="66">
<path d="M 2.449219 13.319336 L 2.449219 5.950195 L 6.729980 5.950195 L 6.729980 7.797852 L 4.167969 7.797852 L 4.167969 13.319336 Z " fill="rgb(0, 0, 0)" fill-opacity="1.000000" />
<path d="M 2.449219 26.319336 L 2.449219 12.300781 L 4.167969 12.300781 L 4.167969 26.319336 Z " fill="rgb(0, 0, 0)" fill-opacity="1.000000" />
<path d="M 2.449219 39.319336 L 2.449219 25.300781 L 4.167969 25.300781 L 4.167969 39.319336 Z " fill="rgb(0, 0, 0)" fill-opacity="1.000000" />
<path d="M 2.449219 52.319336 L 2.449219 38.300781 L 4.167969 38.300781 L 4.167969 52.319336 Z " fill="rgb(0, 0, 0)" fill-opacity="1.000000" />
<path d="M 2.449219 59.797852 L 2.449219 51.300781 L 4.167969 51.300781 L 4.167969 57.950195 L 6.729980 57.950195 L 6.729980 59.797852 Z " fill="rgb(0, 0, 0)" fill-opacity="1.000000" />
<path d="M 6.892578 59.797852 L 6.892578 57.950195 L 13.729980 57.950195 L 13.729980 59.797852 Z " fill="rgb(0, 0, 0)" fill-opacity="1.000000" />
<path d="M 13.892578 59.797852 L 13.892578 57.950195 L 20.729980 57.950195 L 20.729980 59.797852 Z " fill="rgb(0, 0, 0)" fill-opacity="1.000000" />
<path d="M 20.892578 59.797852 L 20.892578 57.950195 L 27.729980 57.950195 L 27.729980 59.797852 Z " fill="rgb(0, 0, 0)" fill-opacity="1.000000" />
<path d="M 27.892578 59.797852 L 27.892578 57.950195 L 34.729980 57.950195 L 34.729980 59.797852 Z " fill="rgb(0, 0, 0)" fill-opacity="1.000000" />
<path d="M 34.892578 59.797852 L 34.892578 57.950195 L 41.729980 57.950195 L 41.729980 59.797852 Z " fill="rgb(0, 0, 0)" fill-opacity="1.000000" />
<path d="M 41.892578 59.797852 L 41.892578 57.950195 L 48.729980 57.950195 L 48.729980 59.797852 Z " fill="rgb(0, 0, 0)" fill-opacity="1.000000" />
<path d="M 48.892578 59.797852 L 48.892578 57.950195 L 55.729980 57.950195 L 55.729980 59.797852 Z " fill="rgb(0, 0, 0)" fill-opacity="1.000000" />
<path d="M 55.892578 59.797852 L 55.892578 57.950195 L 62.729980 57.950195 L 62.729980 59.797852 Z " fill="rgb(0, 0, 0)" fill-opacity="1.000000" />
<path d="M 62.892578 59.797852 L 62.892578 57.950195 L 69.729980 57.950195 L 69.729980 59.797852 Z " fill="rgb(0, 0, 0)" fill-opacity="1.000000" />
<path d="M 69.892578 59.797852 L 69.892578 57.950195 L 76.729980 57.950195 L 76.729980 59.797852 Z " fill="rgb(0, 0, 0)" fill-opacity="1.000000" />
<path d="M 76.892578 59.797852 L 76.892578 57.950195 L 83.729980 57.950195 L 83.729980 59.797852 Z " fill="rgb(0, 0, 0)" fill-opacity="1.000000" />
<path d="M 83.892578 59.797852 L 83.892578 57.950195 L 90.729980 57.950195 L 90.729980 59.797852 Z " fill="rgb(0, 0, 0)" fill-opacity="1.000000" />
<path d="M 90.892578 59.797852 L 90.892578 57.950195 L 97.729980 57.950195 L 97.729980 59.797852 Z " fill="rgb(0, 0, 0)" fill-opacity="1.000000" />
<path d="M 97.892578 59.797852 L 97.892578 57.950195 L 104.729980 57.950195 L 104.729980 59.797852 Z " fill="rgb(0, 0, 0)" fill-opacity="1.000000" />
<path d="M 104.892578 59.797852 L 104.892578 57.950195 L 111.729980 57.950195 L 111.729980 59.797852 Z " fill="rgb(0, 0, 0)" fill-opacity="1.000000" />
<path d="M 111.892578 59.797852 L 111.892578 57.950195 L 118.729980 57.950195 L 118.729980 59.797852 Z " fill="rgb(0, 0, 0)" fill-opacity="1.000000" />
<path d="M 118.892578 59.797852 L 118.892578 57.950195 L 125.729980 57.950195 L 125.729980 59.797852 Z " fill="rgb(0, 0, 0)" fill-opacity="1.000000" />
<path d="M 125.892578 59.797852 L 125.892578 57.950195 L 132.729980 57.950195 L 132.729980 59.797852 Z " fill="rgb(0, 0, 0)" fill-opacity="1.000000" />
<path d="M 132.892578 59.797852 L 132.892578 57.950195 L 135.449219 57.950195 L 135.449219 51.300781 L 137.167969 51.300781 L 137.167969 59.797852 Z " fill="rgb(0, 0, 0)" fill-opacity="1.000000" />
<path d="M 233.449219 59.797852 L 233.449219 51.300781 L 235.167969 51.300781 L 235.167969 57.950195 L 237.729980 57.950195 L 237.729980 59.797852 Z " fill="rgb(0, 0, 0)" fill-opacity="1.000000" />
<path d="M 237.892578 59.797852 L 237.892578 57.950195 L 244.729980 57.950195 L 244.729980 59.797852 Z " fill="rgb(0, 0, 0)" fill-opacity="1.000000" />
<path d="M 244.892578 59.797852 L 244.892578 57.950195 L 251.729980 57.950195 L 251.729980 59.797852 Z " fill="rgb(0, 0, 0)" fill-opacity="1.000000" />
<path d="M 251.892578 59.797852 L 251.892578 57.950195 L 258.729980 57.950195 L 258.729980 59.797852 Z " fill="rgb(0, 0, 0)" fill-opacity="1.000000" />
<path d="M 258.892578 59.797852 L 258.892578 57.950195 L 265.729980 57.950195 L 265.729980 59.797852 Z " fill="rgb(0, 0, 0)" fill-opacity="1.000000" />
<path d="M 265.892578 59.797852 L 265.892578 57.950195 L 272.729980 57.950195 L 272.729980 59.797852 Z " fill="rgb(0, 0, 0)" fill-opacity="1.000000" />
<path d="M 272.892578 59.797852 L 272.892578 57.950195 L 279.729980 57.950195 L 279.729980 59.797852 Z " fill="rgb(0, 0, 0)" fill-opacity="1.000000" />
<path d="M 279.892578 59.797852 L 279.892578 57.950195 L 286.729980 57.950195 L 286.729980 59.797852 Z " fill="rgb(0, 0, 0)" fill-opacity="1.000000" />
<path d="M 286.892578 59.797852 L 286.892578 57.950195 L 293.729980 57.950195 L 293.729980 59.797852 Z " fill="rgb(0, 0, 0)" fill-opacity="1.000000" />
<path d="M 293.892578 59.797852 L 293.892578 57.950195 L 300.729980 57.950195 L 300.729980 59.797852 Z " fill="rgb(0, 0, 0)" fill-opacity="1.000000" />
<path d="M 300.892578 59.797852 L 300.892578 57.950195 L 307.729980 57.950195 L 307.729980 59.797852 Z " fill="rgb(0, 0, 0)" fill-opacity="1.000000" />
<path d="M 307.892578 59.797852 L 307.892578 57.950195 L 314.729980 57.950195 L 314.729980 59.797852 Z " fill="rgb(0, 0, 0)" fill-opacity="1.000000" />
<path d="M 314.892578 59.797852 L 314.892578 57.950195 L 321.729980 57.950195 L 321.729980 59.797852 Z " fill="rgb(0, 0, 0)" fill-opacity="1.000000" />
<path d="M 321.892578 59.797852 L 321.892578 57.950195 L 328.729980 57.950195 L 328.729980 59.797852 Z " fill="rgb(0, 0, 0)" fill-opacity="1.000000" />
<path d="M 328.892578 59.797852 L 328.892578 57.950195 L 335.729980 57.950195 L 335.729980 59.797852 Z " fill="rgb(0, 0, 0)" fill-opacity="1.000000" />
<path d="M 335.892578 59.797852 L 335.892578 57.950195 L 342.729980 57.950195 L 342.729980 59.797852 Z " fill="rgb(0, 0, 0)" fill-opacity="1.000000" />
<path d="M 342.892578 59.797852 L 342.892578 57.950195 L 349.729980 57.950195 L 349.729980 59.797852 Z " fill="rgb(0, 0, 0)" fill-opacity="1.000000" />
<path d="M 349.892578 59.797852 L 349.892578 57.950195 L 356.729980 57.950195 L 356.729980 59.797852 Z " fill="rgb(0, 0, 0)" fill-opacity="1.000000" />
<path d="M 356.892578 59.797852 L 356.892578 57.950195 L 363.729980 57.950195 L 363.729980 59.797852 Z " fill="rgb(0, 0, 0)" fill-opacity="1.000000" />
<path d="M 363.892578 59.797852 L 363.892578 57.950195 L 366.449219 57.950195 L 366.449219 51.300781 L 368.167969 51.300781 L 368.167969 59.797852 Z " fill="rgb(0, 0, 0)" fill-opacity="1.000000" />
<path d="M 471.449219 59.797852 L 471.449219 51.300781 L 473.167969 51.300781 L 473.167969 57.950195 L 475.729980 57.950195 L 475.729980 59.797852 Z " fill="rgb(0, 0, 0)" fill-opacity="1.000000" />
<path d="M 475.892578 59.797852 L 475.892578 57.950195 L 482.729980 57.950195 L 482.729980 59.797852 Z " fill="rgb(0, 0, 0)" fill-opacity="1.000000" />
<path d="M 482.892578 59.797852 L 482.892578 57.950195 L 489.729980 57.950195 L 489.729980 59.797852 Z " fill="rgb(0, 0, 0)" fill-opacity="1.000000" />
<path d="M 489.892578 59.797852 L 489.892578 57.950195 L 496.729980 57.950195 L 496.729980 59.797852 Z " fill="rgb(0, 0, 0)" fill-opacity="1.000000" />
<path d="M 496.892578 59.797852 L 496.892578 57.950195 L 503.729980 57.950195 L 503.729980 59.797852 Z " fill="rgb(0, 0, 0)" fill-opacity="1.000000" />
<path d="M 503.892578 59.797852 L 503.892578 57.950195 L 510.729980 57.950195 L 510.729980 59.797852 Z " fill="rgb(0, 0, 0)" fill-opacity="1.000000" />
<path d="M 510.892578 59.797852 L 510.892578 57.950195 L 517.729980 57.950195 L 517.729980 59.797852 Z " fill="rgb(0, 0, 0)" fill-opacity="1.000000" />
<path d="M 517.892578 59.797852 L 517.892578 57.950195 L 524.729980 57.950195 L 524.729980 59.797852 Z " fill="rgb(0, 0, 0)" fill-opacity="1.000000" />
<path d="M 524.892578 59.797852 L 524.892578 57.950195 L 531.729980 57.950195 L 531.729980 59.797852 Z " fill="rgb(0, 0, 0)" fill-opacity="1.000000" />
<path d="M 531.892578 59.797852 L 531.892578 57.950195 L 538.729980 57.950195 L 538.729980 59.797852 Z " fill="rgb(0, 0, 0)" fill-opacity="1.000000" />
<path d="M 538.892578 59.797852 L 538.892578 57.950195 L 545.729980 57.950195 L 545.729980 59.797852 Z " fill="rgb(0, 0, 0)" fill-opacity="1.000000" />
<path d="M 545.892578 59.797852 L 545.892578 57.950195 L 552.729980 57.950195 L 552.729980 59.797852 Z " fill="rgb(0, 0, 0)" fill-opacity="1.000000" />
<path d="M 552.892578 59.797852 L 552.892578 57.950195 L 559.729980 57.950195 L 559.729980 59.797852 Z " fill="rgb(0, 0, 0)" fill-opacity="1.000000" />
<path d="M 559.892578 59.797852 L 559.892578 57.950195 L 566.729980 57.950195 L 566.729980 59.797852 Z " fill="rgb(0, 0, 0)" fill-opacity="1.000000" />
<path d="M 566.892578 59.797852 L 566.892578 57.950195 L 573.729980 57.950195 L 573.729980 59.797852 Z " fill="rgb(0, 0, 0)" fill-opacity="1.000000" />
<path d="M 573.892578 59.797852 L 573.892578 57.950195 L 580.729980 57.950195 L 580.729980 59.797852 Z " fill="rgb(0, 0, 0)" fill-opacity="1.000000" />
<path d="M 580.892578 59.797852 L 580.892578 57.950195 L 587.729980 57.950195 L 587.729980 59.797852 Z " fill="rgb(0, 0, 0)" fill-opacity="1.000000" />
<path d="M 587.892578 59.797852 L 587.892578 57.950195 L 594.729980 57.950195 L 594.729980 59.797852 Z " fill="rgb(0, 0, 0)" fill-opacity="1.000000" />
<path d="M 594.892578 59.797852 L 594.892578 57.950195 L 601.729980 57.950195 L 601.729980 59.797852 Z " fill="rgb(0, 0, 0)" fill-opacity="1.000000" />
<path d="M 601.892578 59.797852 L 601.892578 57.950195 L 608.729980 57.950195 L 608.729980 59.797852 Z " fill="rgb(0, 0, 0)" fill-opacity="1.000000" />
<path d="M 608.892578 59.797852 L 608.892578 57.950195 L 611.449219 57.950195 L 611.449219 51.300781 L 613.167969 51.300781 L 613.167969 59.797852 Z " fill="rgb(0, 0, 0)" fill-opacity="1.000000" />
<path d="M 18.592285 27.116211 Q 17.877930 28.340820 17.526123 29.557373 Q 17.174316 30.773926 17.174316 32.009277 Q 17.174316 33.239258 17.526123 34.458496 Q 17.877930 35.677734 18.592285 36.913086 L 17.732910 36.913086 Q 16.921875 35.634766 16.524414 34.423584 Q 16.126953 33.212402 16.126953 32.009277 Q 16.126953 30.811523 16.524414 29.597656 Q 16.921875 28.383789 17.732910 27.116211 Z " fill="rgb(0, 0, 0)" fill-opacity="1.000000" />
<path d="M 35.537109 42.984375 L 36.562988 42.984375 L 38.308594 48.033203 L 40.059570 42.984375 L 41.085449 42.984375 L 38.947754 49.000000 L 37.674805 49.000000 Z " fill="rgb(0, 0, 0)" fill-opacity="1.000000" />
<path d="M 48.015625 45.498047 L 48.015625 45.981445 L 43.734863 45.981445 L 43.734863 46.013672 Q 43.691895 47.243652 44.204834 47.780762 Q 44.717773 48.317871 45.652344 48.317871 Q 46.125000 48.317871 46.640625 48.167480 Q 47.156250 48.017090 47.741699 47.710938 L 47.741699 48.693848 Q 47.177734 48.924805 46.654053 49.040283 Q 46.130371 49.155762 45.641602 49.155762 Q 44.239746 49.155762 43.450195 48.315186 Q 42.660645 47.474609 42.660645 45.997559 Q 42.660645 44.558105 43.434082 43.698730 Q 44.207520 42.839355 45.496582 42.839355 Q 46.645996 42.839355 47.309326 43.618164 Q 47.972656 44.396973 48.015625 45.498047 Z M 47.027344 45.208008 Q 46.962891 44.584961 46.573486 44.131104 Q 46.184082 43.677246 45.453613 43.677246 Q 44.739258 43.677246 44.277344 44.149902 Q 43.815430 44.622559 43.772461 45.213379 Z " fill="rgb(0, 0, 0)" fill-opacity="1.000000" />
<path d="M 55.203613 44.225098 Q 54.886719 43.978027 54.559082 43.865234 Q 54.231445 43.752441 53.839355 43.752441 Q 52.915527 43.752441 52.426758 44.332520 Q 51.937988 44.912598 51.937988 46.008301 L 51.937988 49.000000 L 50.944336 49.000000 L 50.944336 42.984375 L 51.937988 42.984375 L 51.937988 44.160645 Q 52.185059 43.521484 52.697998 43.180420 Q 53.210938 42.839355 53.914551 42.839355 Q 54.279785 42.839355 54.596680 42.930664 Q 54.913574 43.021973 55.203613 43.215332 Z " fill="rgb(0, 0, 0)" fill-opacity="1.000000" />
<path d="M 61.226074 43.193848 L 61.226074 44.160645 Q 60.801758 43.913574 60.372070 43.790039 Q 59.942383 43.666504 59.496582 43.666504 Q 58.825195 43.666504 58.494873 43.884033 Q 58.164551 44.101562 58.164551 44.547363 Q 58.164551 44.950195 58.411621 45.148926 Q 58.658691 45.347656 59.641602 45.535645 L 60.039062 45.610840 Q 60.774902 45.750488 61.153564 46.169434 Q 61.532227 46.588379 61.532227 47.259766 Q 61.532227 48.151367 60.898438 48.653564 Q 60.264648 49.155762 59.136719 49.155762 Q 58.690918 49.155762 58.202148 49.061768 Q 57.713379 48.967773 57.144043 48.779785 L 57.144043 47.759277 Q 57.697266 48.043945 58.202148 48.186279 Q 58.707031 48.328613 59.158203 48.328613 Q 59.813477 48.328613 60.173340 48.062744 Q 60.533203 47.796875 60.533203 47.318848 Q 60.533203 46.631348 59.217285 46.368164 L 59.174316 46.357422 L 58.803711 46.282227 Q 57.949707 46.115723 57.557617 45.720947 Q 57.165527 45.326172 57.165527 44.644043 Q 57.165527 43.779297 57.750977 43.309326 Q 58.336426 42.839355 59.421387 42.839355 Q 59.904785 42.839355 60.350586 42.927979 Q 60.796387 43.016602 61.226074 43.193848 Z " fill="rgb(0, 0, 0)" fill-opacity="1.000000" />
<path d="M 64.697266 43.005859 L 67.227051 43.005859 L 67.227051 48.231934 L 69.187500 48.231934 L 69.187500 49.000000 L 64.278320 49.000000 L 64.278320 48.231934 L 66.238770 48.231934 L 66.238770 43.773926 L 64.697266 43.773926 Z M 66.238770 40.669434 L 67.227051 40.669434 L 67.227051 41.915527 L 66.238770 41.915527 Z " fill="rgb(0, 0, 0)" fill-opacity="1.000000" />
<path d="M 73.308594 43.677246 Q 72.556641 43.677246 72.169922 44.262695 Q 71.783203 44.848145 71.783203 45.997559 Q 71.783203 47.141602 72.169922 47.729736 Q 72.556641 48.317871 73.308594 48.317871 Q 74.065918 48.317871 74.452637 47.729736 Q 74.839355 47.141602 74.839355 45.997559 Q 74.839355 44.848145 74.452637 44.262695 Q 74.065918 43.677246 73.308594 43.677246 Z M 73.308594 42.839355 Q 74.560059 42.839355 75.223389 43.650391 Q 75.886719 44.461426 75.886719 45.997559 Q 75.886719 47.539062 75.226074 48.347412 Q 74.565430 49.155762 73.308594 49.155762 Q 72.057129 49.155762 71.396484 48.347412 Q 70.735840 47.539062 70.735840 45.997559 Q 70.735840 44.461426 71.396484 43.650391 Q 72.057129 42.839355 73.308594 42.839355 Z " fill="rgb(0, 0, 0)" fill-opacity="1.000000" />
<path d="M 82.645020 45.272461 L 82.645020 49.000000 L 81.651367 49.000000 L 81.651367 45.272461 Q 81.651367 44.461426 81.366699 44.080078 Q 81.082031 43.698730 80.475098 43.698730 Q 79.782227 43.698730 79.408936 44.190186 Q 79.035645 44.681641 79.035645 45.600098 L 79.035645 49.000000 L 78.047363 49.000000 L 78.047363 42.984375 L 79.035645 42.984375 L 79.035645 43.886719 Q 79.298828 43.371094 79.750000 43.105225 Q 80.201172 42.839355 80.818848 42.839355 Q 81.737305 42.839355 82.191162 43.443604 Q 82.645020 44.047852 82.645020 45.272461 Z " fill="rgb(0, 0, 0)" fill-opacity="1.000000" />
<path d="M 92.450195 48.092285 L 94.136719 48.092285 L 94.136719 42.033691 L 92.117188 43.005859 L 92.117188 41.963867 L 94.125977 41.007812 L 95.210938 41.007812 L 95.210938 48.092285 L 96.875977 48.092285 L 96.875977 49.000000 L 92.450195 49.000000 Z " fill="rgb(0, 0, 0)" fill-opacity="1.000000" />
<path d="M 99.869141 40.116211 L 100.728516 40.116211 Q 101.539551 41.383789 101.937012 42.597656 Q 102.334473 43.811523 102.334473 45.009277 Q 102.334473 46.217773 101.937012 47.431641 Q 101.539551 48.645508 100.728516 49.913086 L 99.869141 49.913086 Q 100.583496 48.666992 100.935303 47.447754 Q 101.287109 46.228516 101.287109 45.009277 Q 101.287109 43.784668 100.935303 42.565430 Q 100.583496 41.346191 99.869141 40.116211 Z " fill="rgb(0, 0, 0)" fill-opacity="1.000000" />
<path d="M 135.449219 52.319336 L 135.449219 38.300781 L 137.167969 38.300781 L 137.167969 52.319336 Z " fill="rgb(0, 0, 0)" fill-opacity="1.000000" />
<path d="M 233.449219 52.319336 L 233.449219 38.300781 L 235.167969 38.300781 L 235.167969 52.319336 Z " fill="rgb(0, 0, 0)" fill-opacity="1.000000" />
<path d="M 266.537109 42.984375 L 267.562988 42.984375 L 269.308594 48.033203 L 271.059570 42.984375 L 272.085449 42.984375 L 269.947754 49.000000 L 268.674805 49.000000 Z " fill="rgb(0, 0, 0)" fill-opacity="1.000000" />
<path d="M 279.015625 45.498047 L 279.015625 45.981445 L 274.734863 45.981445 L 274.734863 46.013672 Q 274.691895 47.243652 275.204834 47.780762 Q 275.717773 48.317871 276.652344 48.317871 Q 277.125000 48.317871 277.640625 48.167480 Q 278.156250 48.017090 278.741699 47.710938 L 278.741699 48.693848 Q 278.177734 48.924805 277.654053 49.040283 Q 277.130371 49.155762 276.641602 49.155762 Q 275.239746 49.155762 274.450195 48.315186 Q 273.660645 47.474609 273.660645 45.997559 Q 273.660645 44.558105 274.434082 43.698730 Q 275.207520 42.839355 276.496582 42.839355 Q 277.645996 42.839355 278.309326 43.618164 Q 278.972656 44.396973 279.015625 45.498047 Z M 278.027344 45.208008 Q 277.962891 44.584961 277.573486 44.131104 Q 277.184082 43.677246 276.453613 43.677246 Q 275.739258 43.677246 275.277344 44.149902 Q 274.815430 44.622559 274.772461 45.213379 Z " fill="rgb(0, 0, 0)" fill-opacity="1.000000" />
<path d="M 286.203613 44.225098 Q 285.886719 43.978027 285.559082 43.865234 Q 285.231445 43.752441 284.839355 43.752441 Q 283.915527 43.752441 283.426758 44.332520 Q 282.937988 44.912598 282.937988 46.008301 L 282.937988 49.000000 L 281.944336 49.000000 L 281.944336 42.984375 L 282.937988 42.984375 L 282.937988 44.160645 Q 283.185059 43.521484 283.697998 43.180420 Q 284.210938 42.839355 284.914551 42.839355 Q 285.279785 42.839355 285.596680 42.930664 Q 285.913574 43.021973 286.203613 43.215332 Z " fill="rgb(0, 0, 0)" fill-opacity="1.000000" />
<path d="M 292.226074 43.193848 L 292.226074 44.160645 Q 291.801758 43.913574 291.372070 43.790039 Q 290.942383 43.666504 290.496582 43.666504 Q 289.825195 43.666504 289.494873 43.884033 Q 289.164551 44.101562 289.164551 44.547363 Q 289.164551 44.950195 289.411621 45.148926 Q 289.658691 45.347656 290.641602 45.535645 L 291.039062 45.610840 Q 291.774902 45.750488 292.153564 46.169434 Q 292.532227 46.588379 292.532227 47.259766 Q 292.532227 48.151367 291.898438 48.653564 Q 291.264648 49.155762 290.136719 49.155762 Q 289.690918 49.155762 289.202148 49.061768 Q 288.713379 48.967773 288.144043 48.779785 L 288.144043 47.759277 Q 288.697266 48.043945 289.202148 48.186279 Q 289.707031 48.328613 290.158203 48.328613 Q 290.813477 48.328613 291.173340 48.062744 Q 291.533203 47.796875 291.533203 47.318848 Q 291.533203 46.631348 290.217285 46.368164 L 290.174316 46.357422 L 289.803711 46.282227 Q 288.949707 46.115723 288.557617 45.720947 Q 288.165527 45.326172 288.165527 44.644043 Q 288.165527 43.779297 288.750977 43.309326 Q 289.336426 42.839355 290.421387 42.839355 Q 290.904785 42.839355 291.350586 42.927979 Q 291.796387 43.016602 292.226074 43.193848 Z " fill="rgb(0, 0, 0)" fill-opacity="1.000000" />
<path d="M 295.697266 43.005859 L 298.227051 43.005859 L 298.227051 48.231934 L 300.187500 48.231934 L 300.187500 49.000000 L 295.278320 49.000000 L 295.278320 48.231934 L 297.238770 48.231934 L 297.238770 43.773926 L 295.697266 43.773926 Z M 297.238770 40.669434 L 298.227051 40.669434 L 298.227051 41.915527 L 297.238770 41.915527 Z " fill="rgb(0, 0, 0)" fill-opacity="1.000000" />
<path d="M 304.308594 43.677246 Q 303.556641 43.677246 303.169922 44.262695 Q 302.783203 44.848145 302.783203 45.997559 Q 302.783203 47.141602 303.169922 47.729736 Q 303.556641 48.317871 304.308594 48.317871 Q 305.065918 48.317871 305.452637 47.729736 Q 305.839355 47.141602 305.839355 45.997559 Q 305.839355 44.848145 305.452637 44.262695 Q 305.065918 43.677246 304.308594 43.677246 Z M 304.308594 42.839355 Q 305.560059 42.839355 306.223389 43.650391 Q 306.886719 44.461426 306.886719 45.997559 Q 306.886719 47.539062 306.226074 48.347412 Q 305.565430 49.155762 304.308594 49.155762 Q 303.057129 49.155762 302.396484 48.347412 Q 301.735840 47.539062 301.735840 45.997559 Q 301.735840 44.461426 302.396484 43.650391 Q 303.057129 42.839355 304.308594 42.839355 Z " fill="rgb(0, 0, 0)" fill-opacity="1.000000" />
<path d="M 313.645020 45.272461 L 313.645020 49.000000 L 312.651367 49.000000 L 312.651367 45.272461 Q 312.651367 44.461426 312.366699 44.080078 Q 312.082031 43.698730 311.475098 43.698730 Q 310.782227 43.698730 310.408936 44.190186 Q 310.035645 44.681641 310.035645 45.600098 L 310.035645 49.000000 L 309.047363 49.000000 L 309.047363 42.984375 L 310.035645 42.984375 L 310.035645 43.886719 Q 310.298828 43.371094 310.750000 43.105225 Q 311.201172 42.839355 311.818848 42.839355 Q 312.737305 42.839355 313.191162 43.443604 Q 313.645020 44.047852 313.645020 45.272461 Z " fill="rgb(0, 0, 0)" fill-opacity="1.000000" />
<path d="M 324.003418 48.086914 L 327.687988 48.086914 L 327.687988 49.000000 L 322.816406 49.000000 L 322.816406 48.086914 Q 323.820801 47.028809 324.572754 46.217773 Q 325.324707 45.406738 325.609375 45.073730 Q 326.146484 44.418457 326.334473 44.012939 Q 326.522461 43.607422 326.522461 43.183105 Q 326.522461 42.511719 326.127686 42.130371 Q 325.732910 41.749023 325.045410 41.749023 Q 324.556641 41.749023 324.019531 41.926270 Q 323.482422 42.103516 322.880859 42.463379 L 322.880859 41.367676 Q 323.434082 41.104492 323.968506 40.970215 Q 324.502930 40.835938 325.023926 40.835938 Q 326.200195 40.835938 326.917236 41.461670 Q 327.634277 42.087402 327.634277 43.102539 Q 327.634277 43.618164 327.395264 44.133789 Q 327.156250 44.649414 326.619141 45.272461 Q 326.318359 45.621582 325.746338 46.239258 Q 325.174316 46.856934 324.003418 48.086914 Z " fill="rgb(0, 0, 0)" fill-opacity="1.000000" />
<path d="M 330.869141 40.116211 L 331.728516 40.116211 Q 332.539551 41.383789 332.937012 42.597656 Q 333.334473 43.811523 333.334473 45.009277 Q 333.334473 46.217773 332.937012 47.431641 Q 332.539551 48.645508 331.728516 49.913086 L 330.869141 49.913086 Q 331.583496 48.666992 331.935303 47.447754 Q 332.287109 46.228516 332.287109 45.009277 Q 332.287109 43.784668 331.935303 42.565430 Q 331.583496 41.346191 330.869141 40.116211 Z " fill="rgb(0, 0, 0)" fill-opacity="1.000000" />
<path d="M 366.449219 52.319336 L 366.449219 38.300781 L 368.167969 38.300781 L 368.167969 52.319336 Z " fill="rgb(0, 0, 0)" fill-opacity="1.000000" />
<path d="M 471.449219 52.319336 L 471.449219 38.300781 L 473.167969 38.300781 L 473.167969 52.319336 Z " fill="rgb(0, 0, 0)" fill-opacity="1.000000" />
<path d="M 611.449219 52.319336 L 611.449219 38.300781 L 613.167969 38.300781 L 613.167969 52.319336 Z " fill="rgb(0, 0, 0)" fill-opacity="1.000000" />
<path d="M 623.000000 42.984375 L 623.977539 42.984375 L 625.024902 47.845215 L 625.884277 44.740723 L 626.727539 44.740723 L 627.597656 47.845215 L 628.645020 42.984375 L 629.622559 42.984375 L 628.215332 49.000000 L 627.270020 49.000000 L 626.308594 45.702148 L 625.352539 49.000000 L 624.407227 49.000000 Z " fill="rgb(0, 0, 0)" fill-opacity="1.000000" />
<path d="M 631.697266 43.005859 L 634.227051 43.005859 L 634.227051 48.231934 L 636.187500 48.231934 L 636.187500 49.000000 L 631.278320 49.000000 L 631.278320 48.231934 L 633.238770 48.231934 L 633.238770 43.773926 L 631.697266 43.773926 Z M 633.238770 40.669434 L 634.227051 40.669434 L 634.227051 41.915527 L 633.238770 41.915527 Z " fill="rgb(0, 0, 0)" fill-opacity="1.000000" />
<path d="M 640.297852 41.276367 L 640.297852 42.984375 L 642.542969 42.984375 L 642.542969 43.752441 L 640.297852 43.752441 L 640.297852 47.018066 Q 640.297852 47.684082 640.550293 47.947266 Q 640.802734 48.210449 641.431152 48.210449 L 642.542969 48.210449 L 642.542969 49.000000 L 641.334473 49.000000 Q 640.222656 49.000000 639.766113 48.554199 Q 639.309570 48.108398 639.309570 47.018066 L 639.309570 43.752441 L 637.703613 43.752441 L 637.703613 42.984375 L 639.309570 42.984375 L 639.309570 41.276367 Z " fill="rgb(0, 0, 0)" fill-opacity="1.000000" />
<path d="M 649.645020 45.272461 L 649.645020 49.000000 L 648.651367 49.000000 L 648.651367 45.272461 Q 648.651367 44.461426 648.366699 44.080078 Q 648.082031 43.698730 647.475098 43.698730 Q 646.782227 43.698730 646.408936 44.190186 Q 646.035645 44.681641 646.035645 45.600098 L 646.035645 49.000000 L 645.047363 49.000000 L 645.047363 40.642578 L 646.035645 40.642578 L 646.035645 43.886719 Q 646.298828 43.371094 646.750000 43.105225 Q 647.201172 42.839355 647.818848 42.839355 Q 648.737305 42.839355 649.191162 43.443604 Q 649.645020 44.047852 649.645020 45.272461 Z " fill="rgb(0, 0, 0)" fill-opacity="1.000000" />
<path d="M 663.645020 45.272461 L 663.645020 49.000000 L 662.651367 49.000000 L 662.651367 45.272461 Q 662.651367 44.461426 662.366699 44.080078 Q 662.082031 43.698730 661.475098 43.698730 Q 660.782227 43.698730 660.408936 44.190186 Q 660.035645 44.681641 660.035645 45.600098 L 660.035645 49.000000 L 659.047363 49.000000 L 659.047363 40.642578 L 660.035645 40.642578 L 660.035645 43.886719 Q 660.298828 43.371094 660.750000 43.105225 Q 661.201172 42.839355 661.818848 42.839355 Q 662.737305 42.839355 663.191162 43.443604 Q 663.645020 44.047852 663.645020 45.272461 Z " fill="rgb(0, 0, 0)" fill-opacity="1.000000" />
<path d="M 671.015625 45.498047 L 671.015625 45.981445 L 666.734863 45.981445 L 666.734863 46.013672 Q 666.691895 47.243652 667.204834 47.780762 Q 667.717773 48.317871 668.652344 48.317871 Q 669.125000 48.317871 669.640625 48.167480 Q 670.156250 48.017090 670.741699 47.710938 L 670.741699 48.693848 Q 670.177734 48.924805 669.654053 49.040283 Q 669.130371 49.155762 668.641602 49.155762 Q 667.239746 49.155762 666.450195 48.315186 Q 665.660645 47.474609 665.660645 45.997559 Q 665.660645 44.558105 666.434082 43.698730 Q 667.207520 42.839355 668.496582 42.839355 Q 669.645996 42.839355 670.309326 43.618164 Q 670.972656 44.396973 671.015625 45.498047 Z M 670.027344 45.208008 Q 669.962891 44.584961 669.573486 44.131104 Q 669.184082 43.677246 668.453613 43.677246 Q 667.739258 43.677246 667.277344 44.149902 Q 666.815430 44.622559 666.772461 45.213379 Z " fill="rgb(0, 0, 0)" fill-opacity="1.000000" />
<path d="M 678.004883 42.984375 L 675.851074 45.863281 L 678.214355 49.000000 L 677.070312 49.000000 L 675.308594 46.588379 L 673.552246 49.000000 L 672.408203 49.000000 L 674.771484 45.863281 L 672.617676 42.984375 L 673.713379 42.984375 L 675.308594 45.159668 L 676.893066 42.984375 Z " fill="rgb(0, 0, 0)" fill-opacity="1.000000" />
<path d="M 683.608398 43.752441 L 683.608398 40.642578 L 684.596680 40.642578 L 684.596680 49.000000 L 683.608398 49.000000 L 683.608398 48.242676 Q 683.361328 48.688477 682.950439 48.922119 Q 682.539551 49.155762 682.002441 49.155762 Q 680.912109 49.155762 680.286377 48.309814 Q 679.660645 47.463867 679.660645 45.976074 Q 679.660645 44.509766 680.289062 43.674561 Q 680.917480 42.839355 682.002441 42.839355 Q 682.544922 42.839355 682.958496 43.072998 Q 683.372070 43.306641 683.608398 43.752441 Z M 680.702637 45.997559 Q 680.702637 47.146973 681.067871 47.732422 Q 681.433105 48.317871 682.147461 48.317871 Q 682.861816 48.317871 683.235107 47.727051 Q 683.608398 47.136230 683.608398 45.997559 Q 683.608398 44.853516 683.235107 44.265381 Q 682.861816 43.677246 682.147461 43.677246 Q 681.433105 43.677246 681.067871 44.262695 Q 680.702637 44.848145 680.702637 45.997559 Z " fill="rgb(0, 0, 0)" fill-opacity="1.000000" />
<path d="M 687.047363 46.722656 L 687.047363 42.995117 L 688.035645 42.995117 L 688.035645 46.722656 Q 688.035645 47.533691 688.322998 47.915039 Q 688.610352 48.296387 689.211914 48.296387 Q 689.910156 48.296387 690.280762 47.804932 Q 690.651367 47.313477 690.651367 46.395020 L 690.651367 42.995117 L 691.645020 42.995117 L 691.645020 49.000000 L 690.651367 49.000000 L 690.651367 48.097656 Q 690.388184 48.618652 689.934326 48.887207 Q 689.480469 49.155762 688.873535 49.155762 Q 687.949707 49.155762 687.498535 48.551514 Q 687.047363 47.947266 687.047363 46.722656 Z " fill="rgb(0, 0, 0)" fill-opacity="1.000000" />
<path d="M 696.630859 43.596680 Q 696.813477 43.209961 697.095459 43.024658 Q 697.377441 42.839355 697.774902 42.839355 Q 698.500000 42.839355 698.798096 43.400635 Q 699.096191 43.961914 699.096191 45.514160 L 699.096191 49.000000 L 698.193848 49.000000 L 698.193848 45.557129 Q 698.193848 44.284180 698.051514 43.975342 Q 697.909180 43.666504 697.533203 43.666504 Q 697.103516 43.666504 696.945068 43.996826 Q 696.786621 44.327148 696.786621 45.557129 L 696.786621 49.000000 L 695.884277 49.000000 L 695.884277 45.557129 Q 695.884277 44.268066 695.731201 43.967285 Q 695.578125 43.666504 695.180664 43.666504 Q 694.788574 43.666504 694.635498 43.996826 Q 694.482422 44.327148 694.482422 45.557129 L 694.482422 49.000000 L 693.585449 49.000000 L 693.585449 42.984375 L 694.482422 42.984375 L 694.482422 43.500000 Q 694.659668 43.177734 694.925537 43.008545 Q 695.191406 42.839355 695.529785 42.839355 Q 695.937988 42.839355 696.209229 43.027344 Q 696.480469 43.215332 696.630859 43.596680 Z " fill="rgb(0, 0, 0)" fill-opacity="1.000000" />
<path d="M 702.014160 48.242676 L 702.014160 51.288086 L 701.020508 51.288086 L 701.020508 42.984375 L 702.014160 42.984375 L 702.014160 43.752441 Q 702.261230 43.306641 702.672119 43.072998 Q 703.083008 42.839355 703.620117 42.839355 Q 704.710449 42.839355 705.330811 43.682617 Q 705.951172 44.525879 705.951172 46.019043 Q 705.951172 47.485352 705.328125 48.320557 Q 704.705078 49.155762 703.620117 49.155762 Q 703.072266 49.155762 702.661377 48.922119 Q 702.250488 48.688477 702.014160 48.242676 Z M 704.914551 45.997559 Q 704.914551 44.848145 704.552002 44.262695 Q 704.189453 43.677246 703.475098 43.677246 Q 702.755371 43.677246 702.384766 44.265381 Q 702.014160 44.853516 702.014160 45.997559 Q 702.014160 47.136230 702.384766 47.727051 Q 702.755371 48.317871 703.475098 48.317871 Q 704.189453 48.317871 704.552002 47.732422 Q 704.914551 47.146973 704.914551 45.997559 Z " fill="rgb(0, 0, 0)" fill-opacity="1.000000" />
<path d="M 23.143066 28.872559 L 23.143066 31.885742 L 24.399902 31.885742 Q 25.151855 31.885742 25.573486 31.488281 Q 25.995117 31.090820 25.995117 30.376465 Q 25.995117 29.662109 25.576172 29.267334 Q 25.157227 28.872559 24.399902 28.872559 Z M 22.058105 27.980957 L 24.399902 27.980957 Q 25.742676 27.980957 26.435547 28.590576 Q 27.128418 29.200195 27.128418 30.376465 Q 27.128418 31.563477 26.438232 32.170410 Q 25.748047 32.777344 24.399902 32.777344 L 23.143066 32.777344 L 23.143066 36.000000 L 22.058105 36.000000 Z " fill="rgb(0, 0, 0)" fill-opacity="1.000000" />
<path d="M 32.082031 32.213379 Q 32.500977 32.320801 32.796387 32.618896 Q 33.091797 32.916992 33.532227 33.808594 L 34.622559 36.000000 L 33.457031 36.000000 L 32.500977 33.975098 Q 32.087402 33.110352 31.757080 32.860596 Q 31.426758 32.610840 30.895020 32.610840 L 29.858398 32.610840 L 29.858398 36.000000 L 28.768066 36.000000 L 28.768066 27.980957 L 31.002441 27.980957 Q 32.323730 27.980957 33.027344 28.577148 Q 33.730957 29.173340 33.730957 30.301270 Q 33.730957 31.096191 33.298584 31.598389 Q 32.866211 32.100586 32.082031 32.213379 Z M 29.858398 28.872559 L 29.858398 31.719238 L 31.045410 31.719238 Q 31.824219 31.719238 32.205566 31.370117 Q 32.586914 31.020996 32.586914 30.301270 Q 32.586914 29.608398 32.181396 29.240479 Q 31.775879 28.872559 31.002441 28.872559 Z " fill="rgb(0, 0, 0)" fill-opacity="1.000000" />
<path d="M 39.860840 31.998535 Q 39.860840 30.231445 39.498291 29.474121 Q 39.135742 28.716797 38.308594 28.716797 Q 37.486816 28.716797 37.124268 29.474121 Q 36.761719 30.231445 36.761719 31.998535 Q 36.761719 33.760254 37.124268 34.517578 Q 37.486816 35.274902 38.308594 35.274902 Q 39.135742 35.274902 39.498291 34.520264 Q 39.860840 33.765625 39.860840 31.998535 Z M 40.994141 31.998535 Q 40.994141 34.093262 40.330811 35.124512 Q 39.667480 36.155762 38.308594 36.155762 Q 36.949707 36.155762 36.289062 35.129883 Q 35.628418 34.104004 35.628418 31.998535 Q 35.628418 29.898438 36.291748 28.867188 Q 36.955078 27.835938 38.308594 27.835938 Q 39.667480 27.835938 40.330811 28.867188 Q 40.994141 29.898438 40.994141 31.998535 Z " fill="rgb(0, 0, 0)" fill-opacity="1.000000" />
<path d="M 42.461914 27.980957 L 43.627441 27.980957 L 45.389160 31.004883 L 47.183105 27.980957 L 48.348633 27.980957 L 45.947754 31.751465 L 48.520508 36.000000 L 47.354980 36.000000 L 45.389160 32.546387 L 43.267578 36.000000 L 42.096680 36.000000 L 44.782227 31.751465 Z " fill="rgb(0, 0, 0)" fill-opacity="1.000000" />
<path d="M 49.198730 27.980957 L 50.353516 27.980957 L 52.308594 31.520508 L 54.258301 27.980957 L 55.423828 27.980957 L 52.851074 32.401367 L 52.851074 36.000000 L 51.760742 36.000000 L 51.760742 32.401367 Z " fill="rgb(0, 0, 0)" fill-opacity="1.000000" />
<path d="M 65.014160 35.242676 L 65.014160 38.288086 L 64.020508 38.288086 L 64.020508 29.984375 L 65.014160 29.984375 L 65.014160 30.752441 Q 65.261230 30.306641 65.672119 30.072998 Q 66.083008 29.839355 66.620117 29.839355 Q 67.710449 29.839355 68.330811 30.682617 Q 68.951172 31.525879 68.951172 33.019043 Q 68.951172 34.485352 68.328125 35.320557 Q 67.705078 36.155762 66.620117 36.155762 Q 66.072266 36.155762 65.661377 35.922119 Q 65.250488 35.688477 65.014160 35.242676 Z M 67.914551 32.997559 Q 67.914551 31.848145 67.552002 31.262695 Q 67.189453 30.677246 66.475098 30.677246 Q 65.755371 30.677246 65.384766 31.265381 Q 65.014160 31.853516 65.014160 32.997559 Q 65.014160 34.136230 65.384766 34.727051 Q 65.755371 35.317871 66.475098 35.317871 Q 67.189453 35.317871 67.552002 34.732422 Q 67.914551 34.146973 67.914551 32.997559 Z " fill="rgb(0, 0, 0)" fill-opacity="1.000000" />
<path d="M 76.203613 31.225098 Q 75.886719 30.978027 75.559082 30.865234 Q 75.231445 30.752441 74.839355 30.752441 Q 73.915527 30.752441 73.426758 31.332520 Q 72.937988 31.912598 72.937988 33.008301 L 72.937988 36.000000 L 71.944336 36.000000 L 71.944336 29.984375 L 72.937988 29.984375 L 72.937988 31.160645 Q 73.185059 30.521484 73.697998 30.180420 Q 74.210938 29.839355 74.914551 29.839355 Q 75.279785 29.839355 75.596680 29.930664 Q 75.913574 30.021973 76.203613 30.215332 Z " fill="rgb(0, 0, 0)" fill-opacity="1.000000" />
<path d="M 80.308594 30.677246 Q 79.556641 30.677246 79.169922 31.262695 Q 78.783203 31.848145 78.783203 32.997559 Q 78.783203 34.141602 79.169922 34.729736 Q 79.556641 35.317871 80.308594 35.317871 Q 81.065918 35.317871 81.452637 34.729736 Q 81.839355 34.141602 81.839355 32.997559 Q 81.839355 31.848145 81.452637 31.262695 Q 81.065918 30.677246 80.308594 30.677246 Z M 80.308594 29.839355 Q 81.560059 29.839355 82.223389 30.650391 Q 82.886719 31.461426 82.886719 32.997559 Q 82.886719 34.539062 82.226074 35.347412 Q 81.565430 36.155762 80.308594 36.155762 Q 79.057129 36.155762 78.396484 35.347412 Q 77.735840 34.539062 77.735840 32.997559 Q 77.735840 31.461426 78.396484 30.650391 Q 79.057129 29.839355 80.308594 29.839355 Z " fill="rgb(0, 0, 0)" fill-opacity="1.000000" />
<path d="M 87.297852 28.276367 L 87.297852 29.984375 L 89.542969 29.984375 L 89.542969 30.752441 L 87.297852 30.752441 L 87.297852 34.018066 Q 87.297852 34.684082 87.550293 34.947266 Q 87.802734 35.210449 88.431152 35.210449 L 89.542969 35.210449 L 89.542969 36.000000 L 88.334473 36.000000 Q 87.222656 36.000000 86.766113 35.554199 Q 86.309570 35.108398 86.309570 34.018066 L 86.309570 30.752441 L 84.703613 30.752441 L 84.703613 29.984375 L 86.309570 29.984375 L 86.309570 28.276367 Z " fill="rgb(0, 0, 0)" fill-opacity="1.000000" />
<path d="M 94.308594 30.677246 Q 93.556641 30.677246 93.169922 31.262695 Q 92.783203 31.848145 92.783203 32.997559 Q 92.783203 34.141602 93.169922 34.729736 Q 93.556641 35.317871 94.308594 35.317871 Q 95.065918 35.317871 95.452637 34.729736 Q 95.839355 34.141602 95.839355 32.997559 Q 95.839355 31.848145 95.452637 31.262695 Q 95.065918 30.677246 94.308594 30.677246 Z M 94.308594 29.839355 Q 95.560059 29.839355 96.223389 30.650391 Q 96.886719 31.461426 96.886719 32.997559 Q 96.886719 34.539062 96.226074 35.347412 Q 95.565430 36.155762 94.308594 36.155762 Q 93.057129 36.155762 92.396484 35.347412 Q 91.735840 34.539062 91.735840 32.997559 Q 91.735840 31.461426 92.396484 30.650391 Q 93.057129 29.839355 94.308594 29.839355 Z " fill="rgb(0, 0, 0)" fill-opacity="1.000000" />
<path d="M 103.698730 35.693848 Q 103.301270 35.924805 102.879639 36.040283 Q 102.458008 36.155762 102.017578 36.155762 Q 100.621094 36.155762 99.834229 35.317871 Q 99.047363 34.479980 99.047363 32.997559 Q 99.047363 31.515137 99.834229 30.677246 Q 100.621094 29.839355 102.017578 29.839355 Q 102.452637 29.839355 102.866211 29.952148 Q 103.279785 30.064941 103.698730 30.301270 L 103.698730 31.337891 Q 103.306641 30.988770 102.911865 30.833008 Q 102.517090 30.677246 102.017578 30.677246 Q 101.088379 30.677246 100.588867 31.278809 Q 100.089355 31.880371 100.089355 32.997559 Q 100.089355 34.109375 100.591553 34.713623 Q 101.093750 35.317871 102.017578 35.317871 Q 102.533203 35.317871 102.941406 35.159424 Q 103.349609 35.000977 103.698730 34.667969 Z " fill="rgb(0, 0, 0)" fill-opacity="1.000000" />
<path d="M 108.308594 30.677246 Q 107.556641 30.677246 107.169922 31.262695 Q 106.783203 31.848145 106.783203 32.997559 Q 106.783203 34.141602 107.169922 34.729736 Q 107.556641 35.317871 108.308594 35.317871 Q 109.065918 35.317871 109.452637 34.729736 Q 109.839355 34.141602 109.839355 32.997559 Q 109.839355 31.848145 109.452637 31.262695 Q 109.065918 30.677246 108.308594 30.677246 Z M 108.308594 29.839355 Q 109.560059 29.839355 110.223389 30.650391 Q 110.886719 31.461426 110.886719 32.997559 Q 110.886719 34.539062 110.226074 35.347412 Q 109.565430 36.155762 108.308594 36.155762 Q 107.057129 36.155762 106.396484 35.347412 Q 105.735840 34.539062 105.735840 32.997559 Q 105.735840 31.461426 106.396484 30.650391 Q 107.057129 29.839355 108.308594 29.839355 Z " fill="rgb(0, 0, 0)" fill-opacity="1.000000" />
<path d="M 115.861816 33.824707 Q 115.861816 34.490723 116.106201 34.829102 Q 116.350586 35.167480 116.828613 35.167480 L 117.983398 35.167480 L 117.983398 36.000000 L 116.731934 36.000000 Q 115.845703 36.000000 115.359619 35.433350 Q 114.873535 34.866699 114.873535 33.824707 L 114.873535 28.383789 L 113.289062 28.383789 L 113.289062 27.610352 L 115.861816 27.610352 Z " fill="rgb(0, 0, 0)" fill-opacity="1.000000" />
<path d="M 135.449219 39.319336 L 135.449219 25.300781 L 137.167969 25.300781 L 137.167969 31.950195 L 139.729980 31.950195 L 139.729980 33.797852 L 137.167969 33.797852 L 137.167969 39.319336 Z " fill="rgb(0, 0, 0)" fill-opacity="1.000000" />
<path d="M 139.892578 33.335938 L 139.892578 32.412109 L 146.729980 32.412109 L 146.729980 33.335938 Z " fill="rgb(0, 0, 0)" fill-opacity="1.000000" />
<path d="M 146.892578 33.335938 L 146.892578 32.412109 L 153.729980 32.412109 L 153.729980 33.335938 Z " fill="rgb(0, 0, 0)" fill-opacity="1.000000" />
<path d="M 153.892578 33.335938 L 153.892578 32.412109 L 160.729980 32.412109 L 160.729980 33.335938 Z " fill="rgb(0, 0, 0)" fill-opacity="1.000000" />
<path d="M 160.892578 33.335938 L 160.892578 32.412109 L 167.729980 32.412109 L 167.729980 33.335938 Z " fill="rgb(0, 0, 0)" fill-opacity="1.000000" />
<path d="M 167.892578 33.335938 L 167.892578 32.412109 L 174.729980 32.412109 L 174.729980 33.335938 Z " fill="rgb(0, 0, 0)" fill-opacity="1.000000" />
<path d="M 174.892578 33.335938 L 174.892578 32.412109 L 181.729980 32.412109 L 181.729980 33.335938 Z " fill="rgb(0, 0, 0)" fill-opacity="1.000000" />
<path d="M 181.892578 33.335938 L 181.892578 32.412109 L 188.729980 32.412109 L 188.729980 33.335938 Z " fill="rgb(0, 0, 0)" fill-opacity="1.000000" />
<path d="M 188.892578 33.335938 L 188.892578 32.412109 L 195.729980 32.412109 L 195.729980 33.335938 Z " fill="rgb(0, 0, 0)" fill-opacity="1.000000" />
<path d="M 195.892578 33.335938 L 195.892578 32.412109 L 202.729980 32.412109 L 202.729980 33.335938 Z " fill="rgb(0, 0, 0)" fill-opacity="1.000000" />
<path d="M 202.892578 33.335938 L 202.892578 32.412109 L 209.729980 32.412109 L 209.729980 33.335938 Z " fill="rgb(0, 0, 0)" fill-opacity="1.000000" />
<path d="M 209.892578 33.335938 L 209.892578 32.412109 L 216.729980 32.412109 L 216.729980 33.335938 Z " fill="rgb(0, 0, 0)" fill-opacity="1.000000" />
<path d="M 216.892578 33.335938 L 216.892578 32.412109 L 223.729980 32.412109 L 223.729980 33.335938 Z " fill="rgb(0, 0, 0)" fill-opacity="1.000000" />
<path d="M 223.892578 33.335938 L 223.892578 32.412109 L 230.729980 32.412109 L 230.729980 33.335938 Z " fill="rgb(0, 0, 0)" fill-opacity="1.000000" />
<path d="M 231.032227 36.418945 L 231.032227 29.866211 L 237.590332 33.142578 Z " fill="rgb(0, 0, 0)" fill-opacity="1.000000" />
<path d="M 249.592285 27.116211 Q 248.877930 28.340820 248.526123 29.557373 Q 248.174316 30.773926 248.174316 32.009277 Q 248.174316 33.239258 248.526123 34.458496 Q 248.877930 35.677734 249.592285 36.913086 L 248.732910 36.913086 Q 247.921875 35.634766 247.524414 34.423584 Q 247.126953 33.212402 247.126953 32.009277 Q 247.126953 30.811523 247.524414 29.597656 Q 247.921875 28.383789 248.732910 27.116211 Z " fill="rgb(0, 0, 0)" fill-opacity="1.000000" />
<path d="M 254.143066 28.872559 L 254.143066 31.885742 L 255.399902 31.885742 Q 256.151855 31.885742 256.573486 31.488281 Q 256.995117 31.090820 256.995117 30.376465 Q 256.995117 29.662109 256.576172 29.267334 Q 256.157227 28.872559 255.399902 28.872559 Z M 253.058105 27.980957 L 255.399902 27.980957 Q 256.742676 27.980957 257.435547 28.590576 Q 258.128418 29.200195 258.128418 30.376465 Q 258.128418 31.563477 257.438232 32.170410 Q 256.748047 32.777344 255.399902 32.777344 L 254.143066 32.777344 L 254.143066 36.000000 L 253.058105 36.000000 Z " fill="rgb(0, 0, 0)" fill-opacity="1.000000" />
<path d="M 263.082031 32.213379 Q 263.500977 32.320801 263.796387 32.618896 Q 264.091797 32.916992 264.532227 33.808594 L 265.622559 36.000000 L 264.457031 36.000000 L 263.500977 33.975098 Q 263.087402 33.110352 262.757080 32.860596 Q 262.426758 32.610840 261.895020 32.610840 L 260.858398 32.610840 L 260.858398 36.000000 L 259.768066 36.000000 L 259.768066 27.980957 L 262.002441 27.980957 Q 263.323730 27.980957 264.027344 28.577148 Q 264.730957 29.173340 264.730957 30.301270 Q 264.730957 31.096191 264.298584 31.598389 Q 263.866211 32.100586 263.082031 32.213379 Z M 260.858398 28.872559 L 260.858398 31.719238 L 262.045410 31.719238 Q 262.824219 31.719238 263.205566 31.370117 Q 263.586914 31.020996 263.586914 30.301270 Q 263.586914 29.608398 263.181396 29.240479 Q 262.775879 28.872559 262.002441 28.872559 Z " fill="rgb(0, 0, 0)" fill-opacity="1.000000" />
<path d="M 270.860840 31.998535 Q 270.860840 30.231445 270.498291 29.474121 Q 270.135742 28.716797 269.308594 28.716797 Q 268.486816 28.716797 268.124268 29.474121 Q 267.761719 30.231445 267.761719 31.998535 Q 267.761719 33.760254 268.124268 34.517578 Q 268.486816 35.274902 269.308594 35.274902 Q 270.135742 35.274902 270.498291 34.520264 Q 270.860840 33.765625 270.860840 31.998535 Z M 271.994141 31.998535 Q 271.994141 34.093262 271.330811 35.124512 Q 270.667480 36.155762 269.308594 36.155762 Q 267.949707 36.155762 267.289062 35.129883 Q 266.628418 34.104004 266.628418 31.998535 Q 266.628418 29.898438 267.291748 28.867188 Q 267.955078 27.835938 269.308594 27.835938 Q 270.667480 27.835938 271.330811 28.867188 Q 271.994141 29.898438 271.994141 31.998535 Z " fill="rgb(0, 0, 0)" fill-opacity="1.000000" />
<path d="M 273.461914 27.980957 L 274.627441 27.980957 L 276.389160 31.004883 L 278.183105 27.980957 L 279.348633 27.980957 L 276.947754 31.751465 L 279.520508 36.000000 L 278.354980 36.000000 L 276.389160 32.546387 L 274.267578 36.000000 L 273.096680 36.000000 L 275.782227 31.751465 Z " fill="rgb(0, 0, 0)" fill-opacity="1.000000" />
<path d="M 280.198730 27.980957 L 281.353516 27.980957 L 283.308594 31.520508 L 285.258301 27.980957 L 286.423828 27.980957 L 283.851074 32.401367 L 283.851074 36.000000 L 282.760742 36.000000 L 282.760742 32.401367 Z " fill="rgb(0, 0, 0)" fill-opacity="1.000000" />
<path d="M 296.143066 28.872559 L 296.143066 31.885742 L 297.399902 31.885742 Q 298.151855 31.885742 298.573486 31.488281 Q 298.995117 31.090820 298.995117 30.376465 Q 298.995117 29.662109 298.576172 29.267334 Q 298.157227 28.872559 297.399902 28.872559 Z M 295.058105 27.980957 L 297.399902 27.980957 Q 298.742676 27.980957 299.435547 28.590576 Q 300.128418 29.200195 300.128418 30.376465 Q 300.128418 31.563477 299.438232 32.170410 Q 298.748047 32.777344 297.399902 32.777344 L 296.143066 32.777344 L 296.143066 36.000000 L 295.058105 36.000000 Z " fill="rgb(0, 0, 0)" fill-opacity="1.000000" />
<path d="M 307.203613 31.225098 Q 306.886719 30.978027 306.559082 30.865234 Q 306.231445 30.752441 305.839355 30.752441 Q 304.915527 30.752441 304.426758 31.332520 Q 303.937988 31.912598 303.937988 33.008301 L 303.937988 36.000000 L 302.944336 36.000000 L 302.944336 29.984375 L 303.937988 29.984375 L 303.937988 31.160645 Q 304.185059 30.521484 304.697998 30.180420 Q 305.210938 29.839355 305.914551 29.839355 Q 306.279785 29.839355 306.596680 29.930664 Q 306.913574 30.021973 307.203613 30.215332 Z " fill="rgb(0, 0, 0)" fill-opacity="1.000000" />
<path d="M 311.308594 30.677246 Q 310.556641 30.677246 310.169922 31.262695 Q 309.783203 31.848145 309.783203 32.997559 Q 309.783203 34.141602 310.169922 34.729736 Q 310.556641 35.317871 311.308594 35.317871 Q 312.065918 35.317871 312.452637 34.729736 Q 312.839355 34.141602 312.839355 32.997559 Q 312.839355 31.848145 312.452637 31.262695 Q 312.065918 30.677246 311.308594 30.677246 Z M 311.308594 29.839355 Q 312.560059 29.839355 313.223389 30.650391 Q 313.886719 31.461426 313.886719 32.997559 Q 313.886719 34.539062 313.226074 35.347412 Q 312.565430 36.155762 311.308594 36.155762 Q 310.057129 36.155762 309.396484 35.347412 Q 308.735840 34.539062 308.735840 32.997559 Q 308.735840 31.461426 309.396484 30.650391 Q 310.057129 29.839355 311.308594 29.839355 Z " fill="rgb(0, 0, 0)" fill-opacity="1.000000" />
<path d="M 318.297852 28.276367 L 318.297852 29.984375 L 320.542969 29.984375 L 320.542969 30.752441 L 318.297852 30.752441 L 318.297852 34.018066 Q 318.297852 34.684082 318.550293 34.947266 Q 318.802734 35.210449 319.431152 35.210449 L 320.542969 35.210449 L 320.542969 36.000000 L 319.334473 36.000000 Q 318.222656 36.000000 317.766113 35.554199 Q 317.309570 35.108398 317.309570 34.018066 L 317.309570 30.752441 L 315.703613 30.752441 L 315.703613 29.984375 L 317.309570 29.984375 L 317.309570 28.276367 Z " fill="rgb(0, 0, 0)" fill-opacity="1.000000" />
<path d="M 325.308594 30.677246 Q 324.556641 30.677246 324.169922 31.262695 Q 323.783203 31.848145 323.783203 32.997559 Q 323.783203 34.141602 324.169922 34.729736 Q 324.556641 35.317871 325.308594 35.317871 Q 326.065918 35.317871 326.452637 34.729736 Q 326.839355 34.141602 326.839355 32.997559 Q 326.839355 31.848145 326.452637 31.262695 Q 326.065918 30.677246 325.308594 30.677246 Z M 325.308594 29.839355 Q 326.560059 29.839355 327.223389 30.650391 Q 327.886719 31.461426 327.886719 32.997559 Q 327.886719 34.539062 327.226074 35.347412 Q 326.565430 36.155762 325.308594 36.155762 Q 324.057129 36.155762 323.396484 35.347412 Q 322.735840 34.539062 322.735840 32.997559 Q 322.735840 31.461426 323.396484 30.650391 Q 324.057129 29.839355 325.308594 29.839355 Z " fill="rgb(0, 0, 0)" fill-opacity="1.000000" />
<path d="M 334.698730 35.693848 Q 334.301270 35.924805 333.879639 36.040283 Q 333.458008 36.155762 333.017578 36.155762 Q 331.621094 36.155762 330.834229 35.317871 Q 330.047363 34.479980 330.047363 32.997559 Q 330.047363 31.515137 330.834229 30.677246 Q 331.621094 29.839355 333.017578 29.839355 Q 333.452637 29.839355 333.866211 29.952148 Q 334.279785 30.064941 334.698730 30.301270 L 334.698730 31.337891 Q 334.306641 30.988770 333.911865 30.833008 Q 333.517090 30.677246 333.017578 30.677246 Q 332.088379 30.677246 331.588867 31.278809 Q 331.089355 31.880371 331.089355 32.997559 Q 331.089355 34.109375 331.591553 34.713623 Q 332.093750 35.317871 333.017578 35.317871 Q 333.533203 35.317871 333.941406 35.159424 Q 334.349609 35.000977 334.698730 34.667969 Z " fill="rgb(0, 0, 0)" fill-opacity="1.000000" />
<path d="M 339.308594 30.677246 Q 338.556641 30.677246 338.169922 31.262695 Q 337.783203 31.848145 337.783203 32.997559 Q 337.783203 34.141602 338.169922 34.729736 Q 338.556641 35.317871 339.308594 35.317871 Q 340.065918 35.317871 340.452637 34.729736 Q 340.839355 34.141602 340.839355 32.997559 Q 340.839355 31.848145 340.452637 31.262695 Q 340.065918 30.677246 339.308594 30.677246 Z M 339.308594 29.839355 Q 340.560059 29.839355 341.223389 30.650391 Q 341.886719 31.461426 341.886719 32.997559 Q 341.886719 34.539062 341.226074 35.347412 Q 340.565430 36.155762 339.308594 36.155762 Q 338.057129 36.155762 337.396484 35.347412 Q 336.735840 34.539062 336.735840 32.997559 Q 336.735840 31.461426 337.396484 30.650391 Q 338.057129 29.839355 339.308594 29.839355 Z " fill="rgb(0, 0, 0)" fill-opacity="1.000000" />
<path d="M 346.861816 33.824707 Q 346.861816 34.490723 347.106201 34.829102 Q 347.350586 35.167480 347.828613 35.167480 L 348.983398 35.167480 L 348.983398 36.000000 L 347.731934 36.000000 Q 346.845703 36.000000 346.359619 35.433350 Q 345.873535 34.866699 345.873535 33.824707 L 345.873535 28.383789 L 344.289062 28.383789 L 344.289062 27.610352 L 346.861816 27.610352 Z " fill="rgb(0, 0, 0)" fill-opacity="1.000000" />
<path d="M 366.449219 39.319336 L 366.449219 25.300781 L 368.167969 25.300781 L 368.167969 39.319336 Z " fill="rgb(0, 0, 0)" fill-opacity="1.000000" />
<path d="M 370.892578 33.335938 L 370.892578 32.412109 L 377.729980 32.412109 L 377.729980 33.335938 Z " fill="rgb(0, 0, 0)" fill-opacity="1.000000" />
<path d="M 377.892578 33.335938 L 377.892578 32.412109 L 384.729980 32.412109 L 384.729980 33.335938 Z " fill="rgb(0, 0, 0)" fill-opacity="1.000000" />
<path d="M 384.892578 33.335938 L 384.892578 32.412109 L 391.729980 32.412109 L 391.729980 33.335938 Z " fill="rgb(0, 0, 0)" fill-opacity="1.000000" />
<path d="M 391.892578 33.335938 L 391.892578 32.412109 L 398.729980 32.412109 L 398.729980 33.335938 Z " fill="rgb(0, 0, 0)" fill-opacity="1.000000" />
<path d="M 398.892578 33.335938 L 398.892578 32.412109 L 405.729980 32.412109 L 405.729980 33.335938 Z " fill="rgb(0, 0, 0)" fill-opacity="1.000000" />
<path d="M 405.892578 33.335938 L 405.892578 32.412109 L 412.729980 32.412109 L 412.729980 33.335938 Z " fill="rgb(0, 0, 0)" fill-opacity="1.000000" />
<path d="M 412.892578 33.335938 L 412.892578 32.412109 L 419.729980 32.412109 L 419.729980 33.335938 Z " fill="rgb(0, 0, 0)" fill-opacity="1.000000" />
<path d="M 419.892578 33.335938 L 419.892578 32.412109 L 426.729980 32.412109 L 426.729980 33.335938 Z " fill="rgb(0, 0, 0)" fill-opacity="1.000000" />
<path d="M 426.892578 33.335938 L 426.892578 32.412109 L 433.729980 32.412109 L 433.729980 33.335938 Z " fill="rgb(0, 0, 0)" fill-opacity="1.000000" />
<path d="M 433.892578 33.335938 L 433.892578 32.412109 L 440.729980 32.412109 L 440.729980 33.335938 Z " fill="rgb(0, 0, 0)" fill-opacity="1.000000" />
<path d="M 440.892578 33.335938 L 440.892578 32.412109 L 447.729980 32.412109 L 447.729980 33.335938 Z " fill="rgb(0, 0, 0)" fill-opacity="1.000000" />
<path d="M 447.892578 33.335938 L 447.892578 32.412109 L 454.729980 32.412109 L 454.729980 33.335938 Z " fill="rgb(0, 0, 0)" fill-opacity="1.000000" />
<path d="M 454.892578 33.335938 L 454.892578 32.412109 L 461.729980 32.412109 L 461.729980 33.335938 Z " fill="rgb(0, 0, 0)" fill-opacity="1.000000" />
<path d="M 461.892578 33.335938 L 461.892578 32.412109 L 468.729980 32.412109 L 468.729980 33.335938 Z " fill="rgb(0, 0, 0)" fill-opacity="1.000000" />
<path d="M 469.032227 36.418945 L 469.032227 29.866211 L 475.590332 33.142578 Z " fill="rgb(0, 0, 0)" fill-opacity="1.000000" />
<path d="M 523.645020 32.272461 L 523.645020 36.000000 L 522.651367 36.000000 L 522.651367 32.272461 Q 522.651367 31.461426 522.366699 31.080078 Q 522.082031 30.698730 521.475098 30.698730 Q 520.782227 30.698730 520.408936 31.190186 Q 520.035645 31.681641 520.035645 32.600098 L 520.035645 36.000000 L 519.047363 36.000000 L 519.047363 29.984375 L 520.035645 29.984375 L 520.035645 30.886719 Q 520.298828 30.371094 520.750000 30.105225 Q 521.201172 29.839355 521.818848 29.839355 Q 522.737305 29.839355 523.191162 30.443604 Q 523.645020 31.047852 523.645020 32.272461 Z " fill="rgb(0, 0, 0)" fill-opacity="1.000000" />
<path d="M 531.015625 32.498047 L 531.015625 32.981445 L 526.734863 32.981445 L 526.734863 33.013672 Q 526.691895 34.243652 527.204834 34.780762 Q 527.717773 35.317871 528.652344 35.317871 Q 529.125000 35.317871 529.640625 35.167480 Q 530.156250 35.017090 530.741699 34.710938 L 530.741699 35.693848 Q 530.177734 35.924805 529.654053 36.040283 Q 529.130371 36.155762 528.641602 36.155762 Q 527.239746 36.155762 526.450195 35.315186 Q 525.660645 34.474609 525.660645 32.997559 Q 525.660645 31.558105 526.434082 30.698730 Q 527.207520 29.839355 528.496582 29.839355 Q 529.645996 29.839355 530.309326 30.618164 Q 530.972656 31.396973 531.015625 32.498047 Z M 530.027344 32.208008 Q 529.962891 31.584961 529.573486 31.131104 Q 529.184082 30.677246 528.453613 30.677246 Q 527.739258 30.677246 527.277344 31.149902 Q 526.815430 31.622559 526.772461 32.213379 Z " fill="rgb(0, 0, 0)" fill-opacity="1.000000" />
<path d="M 535.297852 28.276367 L 535.297852 29.984375 L 537.542969 29.984375 L 537.542969 30.752441 L 535.297852 30.752441 L 535.297852 34.018066 Q 535.297852 34.684082 535.550293 34.947266 Q 535.802734 35.210449 536.431152 35.210449 L 537.542969 35.210449 L 537.542969 36.000000 L 536.334473 36.000000 Q 535.222656 36.000000 534.766113 35.554199 Q 534.309570 35.108398 534.309570 34.018066 L 534.309570 30.752441 L 532.703613 30.752441 L 532.703613 29.984375 L 534.309570 29.984375 L 534.309570 28.276367 Z " fill="rgb(0, 0, 0)" fill-opacity="1.000000" />
<path d="M 544.698730 35.693848 Q 544.301270 35.924805 543.879639 36.040283 Q 543.458008 36.155762 543.017578 36.155762 Q 541.621094 36.155762 540.834229 35.317871 Q 540.047363 34.479980 540.047363 32.997559 Q 540.047363 31.515137 540.834229 30.677246 Q 541.621094 29.839355 543.017578 29.839355 Q 543.452637 29.839355 543.866211 29.952148 Q 544.279785 30.064941 544.698730 30.301270 L 544.698730 31.337891 Q 544.306641 30.988770 543.911865 30.833008 Q 543.517090 30.677246 543.017578 30.677246 Q 542.088379 30.677246 541.588867 31.278809 Q 541.089355 31.880371 541.089355 32.997559 Q 541.089355 34.109375 541.591553 34.713623 Q 542.093750 35.317871 543.017578 35.317871 Q 543.533203 35.317871 543.941406 35.159424 Q 544.349609 35.000977 544.698730 34.667969 Z " fill="rgb(0, 0, 0)" fill-opacity="1.000000" />
<path d="M 549.770508 32.976074 L 549.442871 32.976074 Q 548.578125 32.976074 548.140381 33.279541 Q 547.702637 33.583008 547.702637 34.184570 Q 547.702637 34.727051 548.030273 35.027832 Q 548.357910 35.328613 548.937988 35.328613 Q 549.754395 35.328613 550.221680 34.761963 Q 550.688965 34.195312 550.694336 33.196289 L 550.694336 32.976074 Z M 551.687988 32.567871 L 551.687988 36.000000 L 550.694336 36.000000 L 550.694336 35.108398 Q 550.377441 35.645508 549.896729 35.900635 Q 549.416016 36.155762 548.728516 36.155762 Q 547.810059 36.155762 547.262207 35.637451 Q 546.714355 35.119141 546.714355 34.249023 Q 546.714355 33.244629 547.388428 32.723633 Q 548.062500 32.202637 549.367676 32.202637 L 550.694336 32.202637 L 550.694336 32.046875 Q 550.688965 31.327148 550.329102 31.002197 Q 549.969238 30.677246 549.179688 30.677246 Q 548.674805 30.677246 548.159180 30.822266 Q 547.643555 30.967285 547.154785 31.246582 L 547.154785 30.258301 Q 547.702637 30.048828 548.204834 29.944092 Q 548.707031 29.839355 549.179688 29.839355 Q 549.926270 29.839355 550.455322 30.059570 Q 550.984375 30.279785 551.312012 30.720215 Q 551.516113 30.988770 551.602051 31.383545 Q 551.687988 31.778320 551.687988 32.567871 Z " fill="rgb(0, 0, 0)" fill-opacity="1.000000" />
<path d="M 556.297852 28.276367 L 556.297852 29.984375 L 558.542969 29.984375 L 558.542969 30.752441 L 556.297852 30.752441 L 556.297852 34.018066 Q 556.297852 34.684082 556.550293 34.947266 Q 556.802734 35.210449 557.431152 35.210449 L 558.542969 35.210449 L 558.542969 36.000000 L 557.334473 36.000000 Q 556.222656 36.000000 555.766113 35.554199 Q 555.309570 35.108398 555.309570 34.018066 L 555.309570 30.752441 L 553.703613 30.752441 L 553.703613 29.984375 L 555.309570 29.984375 L 555.309570 28.276367 Z " fill="rgb(0, 0, 0)" fill-opacity="1.000000" />
<path d="M 611.449219 39.319336 L 611.449219 25.300781 L 613.167969 25.300781 L 613.167969 39.319336 Z " fill="rgb(0, 0, 0)" fill-opacity="1.000000" />
<path d="M 623.252441 27.980957 L 629.370117 27.980957 L 629.370117 28.894043 L 626.861816 28.894043 L 626.861816 36.000000 L 625.771484 36.000000 L 625.771484 28.894043 L 623.252441 28.894043 Z " fill="rgb(0, 0, 0)" fill-opacity="1.000000" />
<path d="M 635.763184 35.715332 Q 635.349609 35.935547 634.914551 36.045654 Q 634.479492 36.155762 633.990723 36.155762 Q 632.449219 36.155762 631.597900 35.065430 Q 630.746582 33.975098 630.746582 31.998535 Q 630.746582 30.032715 631.603271 28.934326 Q 632.459961 27.835938 633.990723 27.835938 Q 634.479492 27.835938 634.914551 27.946045 Q 635.349609 28.056152 635.763184 28.276367 L 635.763184 29.388184 Q 635.365723 29.060547 634.909180 28.888672 Q 634.452637 28.716797 633.990723 28.716797 Q 632.932617 28.716797 632.406250 29.533203 Q 631.879883 30.349609 631.879883 31.998535 Q 631.879883 33.642090 632.406250 34.458496 Q 632.932617 35.274902 633.990723 35.274902 Q 634.463379 35.274902 634.917236 35.103027 Q 635.371094 34.931152 635.763184 34.603516 Z " fill="rgb(0, 0, 0)" fill-opacity="1.000000" />
<path d="M 639.143066 28.872559 L 639.143066 31.885742 L 640.399902 31.885742 Q 641.151855 31.885742 641.573486 31.488281 Q 641.995117 31.090820 641.995117 30.376465 Q 641.995117 29.662109 641.576172 29.267334 Q 641.157227 28.872559 640.399902 28.872559 Z M 638.058105 27.980957 L 640.399902 27.980957 Q 641.742676 27.980957 642.435547 28.590576 Q 643.128418 29.200195 643.128418 30.376465 Q 643.128418 31.563477 642.438232 32.170410 Q 641.748047 32.777344 640.399902 32.777344 L 639.143066 32.777344 L 639.143066 36.000000 L 638.058105 36.000000 Z " fill="rgb(0, 0, 0)" fill-opacity="1.000000" />
<path d="M 655.082031 32.213379 Q 655.500977 32.320801 655.796387 32.618896 Q 656.091797 32.916992 656.532227 33.808594 L 657.622559 36.000000 L 656.457031 36.000000 L 655.500977 33.975098 Q 655.087402 33.110352 654.757080 32.860596 Q 654.426758 32.610840 653.895020 32.610840 L 652.858398 32.610840 L 652.858398 36.000000 L 651.768066 36.000000 L 651.768066 27.980957 L 654.002441 27.980957 Q 655.323730 27.980957 656.027344 28.577148 Q 656.730957 29.173340 656.730957 30.301270 Q 656.730957 31.096191 656.298584 31.598389 Q 655.866211 32.100586 655.082031 32.213379 Z M 652.858398 28.872559 L 652.858398 31.719238 L 654.045410 31.719238 Q 654.824219 31.719238 655.205566 31.370117 Q 655.586914 31.020996 655.586914 30.301270 Q 655.586914 29.608398 655.181396 29.240479 Q 654.775879 28.872559 654.002441 28.872559 Z " fill="rgb(0, 0, 0)" fill-opacity="1.000000" />
<path d="M 664.015625 32.498047 L 664.015625 32.981445 L 659.734863 32.981445 L 659.734863 33.013672 Q 659.691895 34.243652 660.204834 34.780762 Q 660.717773 35.317871 661.652344 35.317871 Q 662.125000 35.317871 662.640625 35.167480 Q 663.156250 35.017090 663.741699 34.710938 L 663.741699 35.693848 Q 663.177734 35.924805 662.654053 36.040283 Q 662.130371 36.155762 661.641602 36.155762 Q 660.239746 36.155762 659.450195 35.315186 Q 658.660645 34.474609 658.660645 32.997559 Q 658.660645 31.558105 659.434082 30.698730 Q 660.207520 29.839355 661.496582 29.839355 Q 662.645996 29.839355 663.309326 30.618164 Q 663.972656 31.396973 664.015625 32.498047 Z M 663.027344 32.208008 Q 662.962891 31.584961 662.573486 31.131104 Q 662.184082 30.677246 661.453613 30.677246 Q 660.739258 30.677246 660.277344 31.149902 Q 659.815430 31.622559 659.772461 32.213379 Z " fill="rgb(0, 0, 0)" fill-opacity="1.000000" />
<path d="M 666.783203 33.019043 Q 666.783203 34.168457 667.145752 34.753906 Q 667.508301 35.339355 668.222656 35.339355 Q 668.937012 35.339355 669.304932 34.751221 Q 669.672852 34.163086 669.672852 33.019043 Q 669.672852 31.875000 669.304932 31.286865 Q 668.937012 30.698730 668.222656 30.698730 Q 667.508301 30.698730 667.145752 31.284180 Q 666.783203 31.869629 666.783203 33.019043 Z M 669.672852 35.253418 Q 669.431152 35.699219 669.020264 35.938232 Q 668.609375 36.177246 668.066895 36.177246 Q 666.987305 36.177246 666.361572 35.342041 Q 665.735840 34.506836 665.735840 33.040527 Q 665.735840 31.547363 666.358887 30.704102 Q 666.981934 29.860840 668.066895 29.860840 Q 668.604004 29.860840 669.014893 30.094482 Q 669.425781 30.328125 669.672852 30.773926 L 669.672852 30.005859 L 670.666504 30.005859 L 670.666504 38.309570 L 669.672852 38.309570 Z " fill="rgb(0, 0, 0)" fill-opacity="1.000000" />
<path d="M 673.047363 33.722656 L 673.047363 29.995117 L 674.035645 29.995117 L 674.035645 33.722656 Q 674.035645 34.533691 674.322998 34.915039 Q 674.610352 35.296387 675.211914 35.296387 Q 675.910156 35.296387 676.280762 34.804932 Q 676.651367 34.313477 676.651367 33.395020 L 676.651367 29.995117 L 677.645020 29.995117 L 677.645020 36.000000 L 676.651367 36.000000 L 676.651367 35.097656 Q 676.388184 35.618652 675.934326 35.887207 Q 675.480469 36.155762 674.873535 36.155762 Q 673.949707 36.155762 673.498535 35.551514 Q 673.047363 34.947266 673.047363 33.722656 Z " fill="rgb(0, 0, 0)" fill-opacity="1.000000" />
<path d="M 685.015625 32.498047 L 685.015625 32.981445 L 680.734863 32.981445 L 680.734863 33.013672 Q 680.691895 34.243652 681.204834 34.780762 Q 681.717773 35.317871 682.652344 35.317871 Q 683.125000 35.317871 683.640625 35.167480 Q 684.156250 35.017090 684.741699 34.710938 L 684.741699 35.693848 Q 684.177734 35.924805 683.654053 36.040283 Q 683.130371 36.155762 682.641602 36.155762 Q 681.239746 36.155762 680.450195 35.315186 Q 679.660645 34.474609 679.660645 32.997559 Q 679.660645 31.558105 680.434082 30.698730 Q 681.207520 29.839355 682.496582 29.839355 Q 683.645996 29.839355 684.309326 30.618164 Q 684.972656 31.396973 685.015625 32.498047 Z M 684.027344 32.208008 Q 683.962891 31.584961 683.573486 31.131104 Q 683.184082 30.677246 682.453613 30.677246 Q 681.739258 30.677246 681.277344 31.149902 Q 680.815430 31.622559 680.772461 32.213379 Z " fill="rgb(0, 0, 0)" fill-opacity="1.000000" />
<path d="M 691.226074 30.193848 L 691.226074 31.160645 Q 690.801758 30.913574 690.372070 30.790039 Q 689.942383 30.666504 689.496582 30.666504 Q 688.825195 30.666504 688.494873 30.884033 Q 688.164551 31.101562 688.164551 31.547363 Q 688.164551 31.950195 688.411621 32.148926 Q 688.658691 32.347656 689.641602 32.535645 L 690.039062 32.610840 Q 690.774902 32.750488 691.153564 33.169434 Q 691.532227 33.588379 691.532227 34.259766 Q 691.532227 35.151367 690.898438 35.653564 Q 690.264648 36.155762 689.136719 36.155762 Q 688.690918 36.155762 688.202148 36.061768 Q 687.713379 35.967773 687.144043 35.779785 L 687.144043 34.759277 Q 687.697266 35.043945 688.202148 35.186279 Q 688.707031 35.328613 689.158203 35.328613 Q 689.813477 35.328613 690.173340 35.062744 Q 690.533203 34.796875 690.533203 34.318848 Q 690.533203 33.631348 689.217285 33.368164 L 689.174316 33.357422 L 688.803711 33.282227 Q 687.949707 33.115723 687.557617 32.720947 Q 687.165527 32.326172 687.165527 31.644043 Q 687.165527 30.779297 687.750977 30.309326 Q 688.336426 29.839355 689.421387 29.839355 Q 689.904785 29.839355 690.350586 29.927979 Q 690.796387 30.016602 691.226074 30.193848 Z " fill="rgb(0, 0, 0)" fill-opacity="1.000000" />
<path d="M 696.297852 28.276367 L 696.297852 29.984375 L 698.542969 29.984375 L 698.542969 30.752441 L 696.297852 30.752441 L 696.297852 34.018066 Q 696.297852 34.684082 696.550293 34.947266 Q 696.802734 35.210449 697.431152 35.210449 L 698.542969 35.210449 L 698.542969 36.000000 L 697.334473 36.000000 Q 696.222656 36.000000 695.766113 35.554199 Q 695.309570 35.108398 695.309570 34.018066 L 695.309570 30.752441 L 693.703613 30.752441 L 693.703613 29.984375 L 695.309570 29.984375 L 695.309570 28.276367 Z " fill="rgb(0, 0, 0)" fill-opacity="1.000000" />
<path d="M 40.645020 19.272461 L 40.645020 23.000000 L 39.651367 23.000000 L 39.651367 19.272461 Q 39.651367 18.461426 39.366699 18.080078 Q 39.082031 17.698730 38.475098 17.698730 Q 37.782227 17.698730 37.408936 18.190186 Q 37.035645 18.681641 37.035645 19.600098 L 37.035645 23.000000 L 36.047363 23.000000 L 36.047363 16.984375 L 37.035645 16.984375 L 37.035645 17.886719 Q 37.298828 17.371094 37.750000 17.105225 Q 38.201172 16.839355 38.818848 16.839355 Q 39.737305 16.839355 40.191162 17.443604 Q 40.645020 18.047852 40.645020 19.272461 Z " fill="rgb(0, 0, 0)" fill-opacity="1.000000" />
<path d="M 46.608398 19.943848 Q 46.608398 18.832031 46.245850 18.254639 Q 45.883301 17.677246 45.190430 17.677246 Q 44.465332 17.677246 44.083984 18.254639 Q 43.702637 18.832031 43.702637 19.943848 Q 43.702637 21.055664 44.086670 21.638428 Q 44.470703 22.221191 45.201172 22.221191 Q 45.883301 22.221191 46.245850 21.635742 Q 46.608398 21.050293 46.608398 19.943848 Z M 47.596680 22.613281 Q 47.596680 23.966797 46.957520 24.665039 Q 46.318359 25.363281 45.077637 25.363281 Q 44.669434 25.363281 44.223633 25.288086 Q 43.777832 25.212891 43.332031 25.067871 L 43.332031 24.090332 Q 43.858398 24.337402 44.288086 24.455566 Q 44.717773 24.573730 45.077637 24.573730 Q 45.877930 24.573730 46.243164 24.138672 Q 46.608398 23.703613 46.608398 22.758301 L 46.608398 22.715332 L 46.608398 22.043945 Q 46.372070 22.548828 45.963867 22.795898 Q 45.555664 23.042969 44.970215 23.042969 Q 43.917480 23.042969 43.289062 22.199707 Q 42.660645 21.356445 42.660645 19.943848 Q 42.660645 18.525879 43.289062 17.682617 Q 43.917480 16.839355 44.970215 16.839355 Q 45.550293 16.839355 45.953125 17.070312 Q 46.355957 17.301270 46.608398 17.784668 L 46.608398 17.005859 L 47.596680 17.005859 Z " fill="rgb(0, 0, 0)" fill-opacity="1.000000" />
<path d="M 50.697266 17.005859 L 53.227051 17.005859 L 53.227051 22.231934 L 55.187500 22.231934 L 55.187500 23.000000 L 50.278320 23.000000 L 50.278320 22.231934 L 52.238770 22.231934 L 52.238770 17.773926 L 50.697266 17.773926 Z M 52.238770 14.669434 L 53.227051 14.669434 L 53.227051 15.915527 L 52.238770 15.915527 Z " fill="rgb(0, 0, 0)" fill-opacity="1.000000" />
<path d="M 61.645020 19.272461 L 61.645020 23.000000 L 60.651367 23.000000 L 60.651367 19.272461 Q 60.651367 18.461426 60.366699 18.080078 Q 60.082031 17.698730 59.475098 17.698730 Q 58.782227 17.698730 58.408936 18.190186 Q 58.035645 18.681641 58.035645 19.600098 L 58.035645 23.000000 L 57.047363 23.000000 L 57.047363 16.984375 L 58.035645 16.984375 L 58.035645 17.886719 Q 58.298828 17.371094 58.750000 17.105225 Q 59.201172 16.839355 59.818848 16.839355 Q 60.737305 16.839355 61.191162 17.443604 Q 61.645020 18.047852 61.645020 19.272461 Z " fill="rgb(0, 0, 0)" fill-opacity="1.000000" />
<path d="M 69.004883 16.984375 L 66.851074 19.863281 L 69.214355 23.000000 L 68.070312 23.000000 L 66.308594 20.588379 L 64.552246 23.000000 L 63.408203 23.000000 L 65.771484 19.863281 L 63.617676 16.984375 L 64.713379 16.984375 L 66.308594 19.159668 L 67.893066 16.984375 Z " fill="rgb(0, 0, 0)" fill-opacity="1.000000" />
<path d="M 70.547852 19.111328 L 76.241211 19.111328 L 76.241211 20.019043 L 70.547852 20.019043 Z " fill="rgb(0, 0, 0)" fill-opacity="1.000000" />
<path d="M 83.015625 19.498047 L 83.015625 19.981445 L 78.734863 19.981445 L 78.734863 20.013672 Q 78.691895 21.243652 79.204834 21.780762 Q 79.717773 22.317871 80.652344 22.317871 Q 81.125000 22.317871 81.640625 22.167480 Q 82.156250 22.017090 82.741699 21.710938 L 82.741699 22.693848 Q 82.177734 22.924805 81.654053 23.040283 Q 81.130371 23.155762 80.641602 23.155762 Q 79.239746 23.155762 78.450195 22.315186 Q 77.660645 21.474609 77.660645 19.997559 Q 77.660645 18.558105 78.434082 17.698730 Q 79.207520 16.839355 80.496582 16.839355 Q 81.645996 16.839355 82.309326 17.618164 Q 82.972656 18.396973 83.015625 19.498047 Z M 82.027344 19.208008 Q 81.962891 18.584961 81.573486 18.131104 Q 81.184082 17.677246 80.453613 17.677246 Q 79.739258 17.677246 79.277344 18.149902 Q 78.815430 18.622559 78.772461 19.213379 Z " fill="rgb(0, 0, 0)" fill-opacity="1.000000" />
<path d="M 88.608398 17.752441 L 88.608398 14.642578 L 89.596680 14.642578 L 89.596680 23.000000 L 88.608398 23.000000 L 88.608398 22.242676 Q 88.361328 22.688477 87.950439 22.922119 Q 87.539551 23.155762 87.002441 23.155762 Q 85.912109 23.155762 85.286377 22.309814 Q 84.660645 21.463867 84.660645 19.976074 Q 84.660645 18.509766 85.289062 17.674561 Q 85.917480 16.839355 87.002441 16.839355 Q 87.544922 16.839355 87.958496 17.072998 Q 88.372070 17.306641 88.608398 17.752441 Z M 85.702637 19.997559 Q 85.702637 21.146973 86.067871 21.732422 Q 86.433105 22.317871 87.147461 22.317871 Q 87.861816 22.317871 88.235107 21.727051 Q 88.608398 21.136230 88.608398 19.997559 Q 88.608398 18.853516 88.235107 18.265381 Q 87.861816 17.677246 87.147461 17.677246 Q 86.433105 17.677246 86.067871 18.262695 Q 85.702637 18.848145 85.702637 19.997559 Z " fill="rgb(0, 0, 0)" fill-opacity="1.000000" />
<path d="M 95.608398 19.943848 Q 95.608398 18.832031 95.245850 18.254639 Q 94.883301 17.677246 94.190430 17.677246 Q 93.465332 17.677246 93.083984 18.254639 Q 92.702637 18.832031 92.702637 19.943848 Q 92.702637 21.055664 93.086670 21.638428 Q 93.470703 22.221191 94.201172 22.221191 Q 94.883301 22.221191 95.245850 21.635742 Q 95.608398 21.050293 95.608398 19.943848 Z M 96.596680 22.613281 Q 96.596680 23.966797 95.957520 24.665039 Q 95.318359 25.363281 94.077637 25.363281 Q 93.669434 25.363281 93.223633 25.288086 Q 92.777832 25.212891 92.332031 25.067871 L 92.332031 24.090332 Q 92.858398 24.337402 93.288086 24.455566 Q 93.717773 24.573730 94.077637 24.573730 Q 94.877930 24.573730 95.243164 24.138672 Q 95.608398 23.703613 95.608398 22.758301 L 95.608398 22.715332 L 95.608398 22.043945 Q 95.372070 22.548828 94.963867 22.795898 Q 94.555664 23.042969 93.970215 23.042969 Q 92.917480 23.042969 92.289062 22.199707 Q 91.660645 21.356445 91.660645 19.943848 Q 91.660645 18.525879 92.289062 17.682617 Q 92.917480 16.839355 93.970215 16.839355 Q 94.550293 16.839355 94.953125 17.070312 Q 95.355957 17.301270 95.608398 17.784668 L 95.608398 17.005859 L 96.596680 17.005859 Z " fill="rgb(0, 0, 0)" fill-opacity="1.000000" />
<path d="M 104.015625 19.498047 L 104.015625 19.981445 L 99.734863 19.981445 L 99.734863 20.013672 Q 99.691895 21.243652 100.204834 21.780762 Q 100.717773 22.317871 101.652344 22.317871 Q 102.125000 22.317871 102.640625 22.167480 Q 103.156250 22.017090 103.741699 21.710938 L 103.741699 22.693848 Q 103.177734 22.924805 102.654053 23.040283 Q 102.130371 23.155762 101.641602 23.155762 Q 100.239746 23.155762 99.450195 22.315186 Q 98.660645 21.474609 98.660645 19.997559 Q 98.660645 18.558105 99.434082 17.698730 Q 100.207520 16.839355 101.496582 16.839355 Q 102.645996 16.839355 103.309326 17.618164 Q 103.972656 18.396973 104.015625 19.498047 Z M 103.027344 19.208008 Q 102.962891 18.584961 102.573486 18.131104 Q 102.184082 17.677246 101.453613 17.677246 Q 100.739258 17.677246 100.277344 18.149902 Q 99.815430 18.622559 99.772461 19.213379 Z " fill="rgb(0, 0, 0)" fill-opacity="1.000000" />
<path d="M 135.449219 26.319336 L 135.449219 12.300781 L 137.167969 12.300781 L 137.167969 26.319336 Z " fill="rgb(0, 0, 0)" fill-opacity="1.000000" />
<path d="M 233.449219 26.319336 L 233.449219 12.300781 L 235.167969 12.300781 L 235.167969 26.319336 Z " fill="rgb(0, 0, 0)" fill-opacity="1.000000" />
<path d="M 264.645020 19.272461 L 264.645020 23.000000 L 263.651367 23.000000 L 263.651367 19.272461 Q 263.651367 18.461426 263.366699 18.080078 Q 263.082031 17.698730 262.475098 17.698730 Q 261.782227 17.698730 261.408936 18.190186 Q 261.035645 18.681641 261.035645 19.600098 L 261.035645 23.000000 L 260.047363 23.000000 L 260.047363 14.642578 L 261.035645 14.642578 L 261.035645 17.886719 Q 261.298828 17.371094 261.750000 17.105225 Q 262.201172 16.839355 262.818848 16.839355 Q 263.737305 16.839355 264.191162 17.443604 Q 264.645020 18.047852 264.645020 19.272461 Z " fill="rgb(0, 0, 0)" fill-opacity="1.000000" />
<path d="M 269.770508 19.976074 L 269.442871 19.976074 Q 268.578125 19.976074 268.140381 20.279541 Q 267.702637 20.583008 267.702637 21.184570 Q 267.702637 21.727051 268.030273 22.027832 Q 268.357910 22.328613 268.937988 22.328613 Q 269.754395 22.328613 270.221680 21.761963 Q 270.688965 21.195312 270.694336 20.196289 L 270.694336 19.976074 Z M 271.687988 19.567871 L 271.687988 23.000000 L 270.694336 23.000000 L 270.694336 22.108398 Q 270.377441 22.645508 269.896729 22.900635 Q 269.416016 23.155762 268.728516 23.155762 Q 267.810059 23.155762 267.262207 22.637451 Q 266.714355 22.119141 266.714355 21.249023 Q 266.714355 20.244629 267.388428 19.723633 Q 268.062500 19.202637 269.367676 19.202637 L 270.694336 19.202637 L 270.694336 19.046875 Q 270.688965 18.327148 270.329102 18.002197 Q 269.969238 17.677246 269.179688 17.677246 Q 268.674805 17.677246 268.159180 17.822266 Q 267.643555 17.967285 267.154785 18.246582 L 267.154785 17.258301 Q 267.702637 17.048828 268.204834 16.944092 Q 268.707031 16.839355 269.179688 16.839355 Q 269.926270 16.839355 270.455322 17.059570 Q 270.984375 17.279785 271.312012 17.720215 Q 271.516113 17.988770 271.602051 18.383545 Q 271.687988 18.778320 271.687988 19.567871 Z " fill="rgb(0, 0, 0)" fill-opacity="1.000000" />
<path d="M 275.014160 22.242676 L 275.014160 25.288086 L 274.020508 25.288086 L 274.020508 16.984375 L 275.014160 16.984375 L 275.014160 17.752441 Q 275.261230 17.306641 275.672119 17.072998 Q 276.083008 16.839355 276.620117 16.839355 Q 277.710449 16.839355 278.330811 17.682617 Q 278.951172 18.525879 278.951172 20.019043 Q 278.951172 21.485352 278.328125 22.320557 Q 277.705078 23.155762 276.620117 23.155762 Q 276.072266 23.155762 275.661377 22.922119 Q 275.250488 22.688477 275.014160 22.242676 Z M 277.914551 19.997559 Q 277.914551 18.848145 277.552002 18.262695 Q 277.189453 17.677246 276.475098 17.677246 Q 275.755371 17.677246 275.384766 18.265381 Q 275.014160 18.853516 275.014160 19.997559 Q 275.014160 21.136230 275.384766 21.727051 Q 275.755371 22.317871 276.475098 22.317871 Q 277.189453 22.317871 277.552002 21.732422 Q 277.914551 21.146973 277.914551 19.997559 Z " fill="rgb(0, 0, 0)" fill-opacity="1.000000" />
<path d="M 286.203613 18.225098 Q 285.886719 17.978027 285.559082 17.865234 Q 285.231445 17.752441 284.839355 17.752441 Q 283.915527 17.752441 283.426758 18.332520 Q 282.937988 18.912598 282.937988 20.008301 L 282.937988 23.000000 L 281.944336 23.000000 L 281.944336 16.984375 L 282.937988 16.984375 L 282.937988 18.160645 Q 283.185059 17.521484 283.697998 17.180420 Q 284.210938 16.839355 284.914551 16.839355 Q 285.279785 16.839355 285.596680 16.930664 Q 285.913574 17.021973 286.203613 17.215332 Z " fill="rgb(0, 0, 0)" fill-opacity="1.000000" />
<path d="M 290.308594 17.677246 Q 289.556641 17.677246 289.169922 18.262695 Q 288.783203 18.848145 288.783203 19.997559 Q 288.783203 21.141602 289.169922 21.729736 Q 289.556641 22.317871 290.308594 22.317871 Q 291.065918 22.317871 291.452637 21.729736 Q 291.839355 21.141602 291.839355 19.997559 Q 291.839355 18.848145 291.452637 18.262695 Q 291.065918 17.677246 290.308594 17.677246 Z M 290.308594 16.839355 Q 291.560059 16.839355 292.223389 17.650391 Q 292.886719 18.461426 292.886719 19.997559 Q 292.886719 21.539062 292.226074 22.347412 Q 291.565430 23.155762 290.308594 23.155762 Q 289.057129 23.155762 288.396484 22.347412 Q 287.735840 21.539062 287.735840 19.997559 Q 287.735840 18.461426 288.396484 17.650391 Q 289.057129 16.839355 290.308594 16.839355 Z " fill="rgb(0, 0, 0)" fill-opacity="1.000000" />
<path d="M 300.004883 16.984375 L 297.851074 19.863281 L 300.214355 23.000000 L 299.070312 23.000000 L 297.308594 20.588379 L 295.552246 23.000000 L 294.408203 23.000000 L 296.771484 19.863281 L 294.617676 16.984375 L 295.713379 16.984375 L 297.308594 19.159668 L 298.893066 16.984375 Z " fill="rgb(0, 0, 0)" fill-opacity="1.000000" />
<path d="M 305.608398 21.066406 Q 305.361328 21.694824 304.979980 22.720703 Q 304.448242 24.138672 304.265625 24.450195 Q 304.018555 24.869141 303.647949 25.078613 Q 303.277344 25.288086 302.783203 25.288086 L 301.988281 25.288086 L 301.988281 24.460938 L 302.573730 24.460938 Q 303.008789 24.460938 303.255859 24.208496 Q 303.502930 23.956055 303.884277 22.903320 L 301.558594 16.984375 L 302.605957 16.984375 L 304.389160 21.689453 L 306.145508 16.984375 L 307.192871 16.984375 Z " fill="rgb(0, 0, 0)" fill-opacity="1.000000" />
<path d="M 308.547852 19.111328 L 314.241211 19.111328 L 314.241211 20.019043 L 308.547852 20.019043 Z " fill="rgb(0, 0, 0)" fill-opacity="1.000000" />
<path d="M 321.015625 19.498047 L 321.015625 19.981445 L 316.734863 19.981445 L 316.734863 20.013672 Q 316.691895 21.243652 317.204834 21.780762 Q 317.717773 22.317871 318.652344 22.317871 Q 319.125000 22.317871 319.640625 22.167480 Q 320.156250 22.017090 320.741699 21.710938 L 320.741699 22.693848 Q 320.177734 22.924805 319.654053 23.040283 Q 319.130371 23.155762 318.641602 23.155762 Q 317.239746 23.155762 316.450195 22.315186 Q 315.660645 21.474609 315.660645 19.997559 Q 315.660645 18.558105 316.434082 17.698730 Q 317.207520 16.839355 318.496582 16.839355 Q 319.645996 16.839355 320.309326 17.618164 Q 320.972656 18.396973 321.015625 19.498047 Z M 320.027344 19.208008 Q 319.962891 18.584961 319.573486 18.131104 Q 319.184082 17.677246 318.453613 17.677246 Q 317.739258 17.677246 317.277344 18.149902 Q 316.815430 18.622559 316.772461 19.213379 Z " fill="rgb(0, 0, 0)" fill-opacity="1.000000" />
<path d="M 326.608398 17.752441 L 326.608398 14.642578 L 327.596680 14.642578 L 327.596680 23.000000 L 326.608398 23.000000 L 326.608398 22.242676 Q 326.361328 22.688477 325.950439 22.922119 Q 325.539551 23.155762 325.002441 23.155762 Q 323.912109 23.155762 323.286377 22.309814 Q 322.660645 21.463867 322.660645 19.976074 Q 322.660645 18.509766 323.289062 17.674561 Q 323.917480 16.839355 325.002441 16.839355 Q 325.544922 16.839355 325.958496 17.072998 Q 326.372070 17.306641 326.608398 17.752441 Z M 323.702637 19.997559 Q 323.702637 21.146973 324.067871 21.732422 Q 324.433105 22.317871 325.147461 22.317871 Q 325.861816 22.317871 326.235107 21.727051 Q 326.608398 21.136230 326.608398 19.997559 Q 326.608398 18.853516 326.235107 18.265381 Q 325.861816 17.677246 325.147461 17.677246 Q 324.433105 17.677246 324.067871 18.262695 Q 323.702637 18.848145 323.702637 19.997559 Z " fill="rgb(0, 0, 0)" fill-opacity="1.000000" />
<path d="M 333.608398 19.943848 Q 333.608398 18.832031 333.245850 18.254639 Q 332.883301 17.677246 332.190430 17.677246 Q 331.465332 17.677246 331.083984 18.254639 Q 330.702637 18.832031 330.702637 19.943848 Q 330.702637 21.055664 331.086670 21.638428 Q 331.470703 22.221191 332.201172 22.221191 Q 332.883301 22.221191 333.245850 21.635742 Q 333.608398 21.050293 333.608398 19.943848 Z M 334.596680 22.613281 Q 334.596680 23.966797 333.957520 24.665039 Q 333.318359 25.363281 332.077637 25.363281 Q 331.669434 25.363281 331.223633 25.288086 Q 330.777832 25.212891 330.332031 25.067871 L 330.332031 24.090332 Q 330.858398 24.337402 331.288086 24.455566 Q 331.717773 24.573730 332.077637 24.573730 Q 332.877930 24.573730 333.243164 24.138672 Q 333.608398 23.703613 333.608398 22.758301 L 333.608398 22.715332 L 333.608398 22.043945 Q 333.372070 22.548828 332.963867 22.795898 Q 332.555664 23.042969 331.970215 23.042969 Q 330.917480 23.042969 330.289062 22.199707 Q 329.660645 21.356445 329.660645 19.943848 Q 329.660645 18.525879 330.289062 17.682617 Q 330.917480 16.839355 331.970215 16.839355 Q 332.550293 16.839355 332.953125 17.070312 Q 333.355957 17.301270 333.608398 17.784668 L 333.608398 17.005859 L 334.596680 17.005859 Z " fill="rgb(0, 0, 0)" fill-opacity="1.000000" />
<path d="M 342.015625 19.498047 L 342.015625 19.981445 L 337.734863 19.981445 L 337.734863 20.013672 Q 337.691895 21.243652 338.204834 21.780762 Q 338.717773 22.317871 339.652344 22.317871 Q 340.125000 22.317871 340.640625 22.167480 Q 341.156250 22.017090 341.741699 21.710938 L 341.741699 22.693848 Q 341.177734 22.924805 340.654053 23.040283 Q 340.130371 23.155762 339.641602 23.155762 Q 338.239746 23.155762 337.450195 22.315186 Q 336.660645 21.474609 336.660645 19.997559 Q 336.660645 18.558105 337.434082 17.698730 Q 338.207520 16.839355 339.496582 16.839355 Q 340.645996 16.839355 341.309326 17.618164 Q 341.972656 18.396973 342.015625 19.498047 Z M 341.027344 19.208008 Q 340.962891 18.584961 340.573486 18.131104 Q 340.184082 17.677246 339.453613 17.677246 Q 338.739258 17.677246 338.277344 18.149902 Q 337.815430 18.622559 337.772461 19.213379 Z " fill="rgb(0, 0, 0)" fill-opacity="1.000000" />
<path d="M 366.449219 26.319336 L 366.449219 12.300781 L 368.167969 12.300781 L 368.167969 26.319336 Z " fill="rgb(0, 0, 0)" fill-opacity="1.000000" />
<path d="M 471.449219 26.319336 L 471.449219 12.300781 L 473.167969 12.300781 L 473.167969 26.319336 Z " fill="rgb(0, 0, 0)" fill-opacity="1.000000" />
<path d="M 611.449219 26.319336 L 611.449219 12.300781 L 613.167969 12.300781 L 613.167969 26.319336 Z " fill="rgb(0, 0, 0)" fill-opacity="1.000000" />
<path d="M 618.143066 15.872559 L 618.143066 18.885742 L 619.399902 18.885742 Q 620.151855 18.885742 620.573486 18.488281 Q 620.995117 18.090820 620.995117 17.376465 Q 620.995117 16.662109 620.576172 16.267334 Q 620.157227 15.872559 619.399902 15.872559 Z M 617.058105 14.980957 L 619.399902 14.980957 Q 620.742676 14.980957 621.435547 15.590576 Q 622.128418 16.200195 622.128418 17.376465 Q 622.128418 18.563477 621.438232 19.170410 Q 620.748047 19.777344 619.399902 19.777344 L 618.143066 19.777344 L 618.143066 23.000000 L 617.058105 23.000000 Z " fill="rgb(0, 0, 0)" fill-opacity="1.000000" />
<path d="M 629.203613 18.225098 Q 628.886719 17.978027 628.559082 17.865234 Q 628.231445 17.752441 627.839355 17.752441 Q 626.915527 17.752441 626.426758 18.332520 Q 625.937988 18.912598 625.937988 20.008301 L 625.937988 23.000000 L 624.944336 23.000000 L 624.944336 16.984375 L 625.937988 16.984375 L 625.937988 18.160645 Q 626.185059 17.521484 626.697998 17.180420 Q 627.210938 16.839355 627.914551 16.839355 Q 628.279785 16.839355 628.596680 16.930664 Q 628.913574 17.021973 629.203613 17.215332 Z " fill="rgb(0, 0, 0)" fill-opacity="1.000000" />
<path d="M 631.697266 17.005859 L 634.227051 17.005859 L 634.227051 22.231934 L 636.187500 22.231934 L 636.187500 23.000000 L 631.278320 23.000000 L 631.278320 22.231934 L 633.238770 22.231934 L 633.238770 17.773926 L 631.697266 17.773926 Z M 633.238770 14.669434 L 634.227051 14.669434 L 634.227051 15.915527 L 633.238770 15.915527 Z " fill="rgb(0, 0, 0)" fill-opacity="1.000000" />
<path d="M 642.645020 19.272461 L 642.645020 23.000000 L 641.651367 23.000000 L 641.651367 19.272461 Q 641.651367 18.461426 641.366699 18.080078 Q 641.082031 17.698730 640.475098 17.698730 Q 639.782227 17.698730 639.408936 18.190186 Q 639.035645 18.681641 639.035645 19.600098 L 639.035645 23.000000 L 638.047363 23.000000 L 638.047363 16.984375 L 639.035645 16.984375 L 639.035645 17.886719 Q 639.298828 17.371094 639.750000 17.105225 Q 640.201172 16.839355 640.818848 16.839355 Q 641.737305 16.839355 642.191162 17.443604 Q 642.645020 18.047852 642.645020 19.272461 Z " fill="rgb(0, 0, 0)" fill-opacity="1.000000" />
<path d="M 647.297852 15.276367 L 647.297852 16.984375 L 649.542969 16.984375 L 649.542969 17.752441 L 647.297852 17.752441 L 647.297852 21.018066 Q 647.297852 21.684082 647.550293 21.947266 Q 647.802734 22.210449 648.431152 22.210449 L 649.542969 22.210449 L 649.542969 23.000000 L 648.334473 23.000000 Q 647.222656 23.000000 646.766113 22.554199 Q 646.309570 22.108398 646.309570 21.018066 L 646.309570 17.752441 L 644.703613 17.752441 L 644.703613 16.984375 L 646.309570 16.984375 L 646.309570 15.276367 Z " fill="rgb(0, 0, 0)" fill-opacity="1.000000" />
<path d="M 659.697266 17.005859 L 662.227051 17.005859 L 662.227051 22.231934 L 664.187500 22.231934 L 664.187500 23.000000 L 659.278320 23.000000 L 659.278320 22.231934 L 661.238770 22.231934 L 661.238770 17.773926 L 659.697266 17.773926 Z M 661.238770 14.669434 L 662.227051 14.669434 L 662.227051 15.915527 L 661.238770 15.915527 Z " fill="rgb(0, 0, 0)" fill-opacity="1.000000" />
<path d="M 670.645020 19.272461 L 670.645020 23.000000 L 669.651367 23.000000 L 669.651367 19.272461 Q 669.651367 18.461426 669.366699 18.080078 Q 669.082031 17.698730 668.475098 17.698730 Q 667.782227 17.698730 667.408936 18.190186 Q 667.035645 18.681641 667.035645 19.600098 L 667.035645 23.000000 L 666.047363 23.000000 L 666.047363 16.984375 L 667.035645 16.984375 L 667.035645 17.886719 Q 667.298828 17.371094 667.750000 17.105225 Q 668.201172 16.839355 668.818848 16.839355 Q 669.737305 16.839355 670.191162 17.443604 Q 670.645020 18.047852 670.645020 19.272461 Z " fill="rgb(0, 0, 0)" fill-opacity="1.000000" />
<path d="M 677.698730 22.693848 Q 677.301270 22.924805 676.879639 23.040283 Q 676.458008 23.155762 676.017578 23.155762 Q 674.621094 23.155762 673.834229 22.317871 Q 673.047363 21.479980 673.047363 19.997559 Q 673.047363 18.515137 673.834229 17.677246 Q 674.621094 16.839355 676.017578 16.839355 Q 676.452637 16.839355 676.866211 16.952148 Q 677.279785 17.064941 677.698730 17.301270 L 677.698730 18.337891 Q 677.306641 17.988770 676.911865 17.833008 Q 676.517090 17.677246 676.017578 17.677246 Q 675.088379 17.677246 674.588867 18.278809 Q 674.089355 18.880371 674.089355 19.997559 Q 674.089355 21.109375 674.591553 21.713623 Q 675.093750 22.317871 676.017578 22.317871 Q 676.533203 22.317871 676.941406 22.159424 Q 677.349609 22.000977 677.698730 21.667969 Z " fill="rgb(0, 0, 0)" fill-opacity="1.000000" />
<path d="M 682.308594 17.677246 Q 681.556641 17.677246 681.169922 18.262695 Q 680.783203 18.848145 680.783203 19.997559 Q 680.783203 21.141602 681.169922 21.729736 Q 681.556641 22.317871 682.308594 22.317871 Q 683.065918 22.317871 683.452637 21.729736 Q 683.839355 21.141602 683.839355 19.997559 Q 683.839355 18.848145 683.452637 18.262695 Q 683.065918 17.677246 682.308594 17.677246 Z M 682.308594 16.839355 Q 683.560059 16.839355 684.223389 17.650391 Q 684.886719 18.461426 684.886719 19.997559 Q 684.886719 21.539062 684.226074 22.347412 Q 683.565430 23.155762 682.308594 23.155762 Q 681.057129 23.155762 680.396484 22.347412 Q 679.735840 21.539062 679.735840 19.997559 Q 679.735840 18.461426 680.396484 17.650391 Q 681.057129 16.839355 682.308594 16.839355 Z " fill="rgb(0, 0, 0)" fill-opacity="1.000000" />
<path d="M 689.630859 17.596680 Q 689.813477 17.209961 690.095459 17.024658 Q 690.377441 16.839355 690.774902 16.839355 Q 691.500000 16.839355 691.798096 17.400635 Q 692.096191 17.961914 692.096191 19.514160 L 692.096191 23.000000 L 691.193848 23.000000 L 691.193848 19.557129 Q 691.193848 18.284180 691.051514 17.975342 Q 690.909180 17.666504 690.533203 17.666504 Q 690.103516 17.666504 689.945068 17.996826 Q 689.786621 18.327148 689.786621 19.557129 L 689.786621 23.000000 L 688.884277 23.000000 L 688.884277 19.557129 Q 688.884277 18.268066 688.731201 17.967285 Q 688.578125 17.666504 688.180664 17.666504 Q 687.788574 17.666504 687.635498 17.996826 Q 687.482422 18.327148 687.482422 19.557129 L 687.482422 23.000000 L 686.585449 23.000000 L 686.585449 16.984375 L 687.482422 16.984375 L 687.482422 17.500000 Q 687.659668 17.177734 687.925537 17.008545 Q 688.191406 16.839355 688.529785 16.839355 Q 688.937988 16.839355 689.209229 17.027344 Q 689.480469 17.215332 689.630859 17.596680 Z " fill="rgb(0, 0, 0)" fill-opacity="1.000000" />
<path d="M 694.697266 17.005859 L 697.227051 17.005859 L 697.227051 22.231934 L 699.187500 22.231934 L 699.187500 23.000000 L 694.278320 23.000000 L 694.278320 22.231934 L 696.238770 22.231934 L 696.238770 17.773926 L 694.697266 17.773926 Z M 696.238770 14.669434 L 697.227051 14.669434 L 697.227051 15.915527 L 696.238770 15.915527 Z " fill="rgb(0, 0, 0)" fill-opacity="1.000000" />
<path d="M 705.645020 19.272461 L 705.645020 23.000000 L 704.651367 23.000000 L 704.651367 19.272461 Q 704.651367 18.461426 704.366699 18.080078 Q 704.082031 17.698730 703.475098 17.698730 Q 702.782227 17.698730 702.408936 18.190186 Q 702.035645 18.681641 702.035645 19.600098 L 702.035645 23.000000 L 701.047363 23.000000 L 701.047363 16.984375 L 702.035645 16.984375 L 702.035645 17.886719 Q 702.298828 17.371094 702.750000 17.105225 Q 703.201172 16.839355 703.818848 16.839355 Q 704.737305 16.839355 705.191162 17.443604 Q 705.645020 18.047852 705.645020 19.272461 Z " fill="rgb(0, 0, 0)" fill-opacity="1.000000" />
<path d="M 711.608398 19.943848 Q 711.608398 18.832031 711.245850 18.254639 Q 710.883301 17.677246 710.190430 17.677246 Q 709.465332 17.677246 709.083984 18.254639 Q 708.702637 18.832031 708.702637 19.943848 Q 708.702637 21.055664 709.086670 21.638428 Q 709.470703 22.221191 710.201172 22.221191 Q 710.883301 22.221191 711.245850 21.635742 Q 711.608398 21.050293 711.608398 19.943848 Z M 712.596680 22.613281 Q 712.596680 23.966797 711.957520 24.665039 Q 711.318359 25.363281 710.077637 25.363281 Q 709.669434 25.363281 709.223633 25.288086 Q 708.777832 25.212891 708.332031 25.067871 L 708.332031 24.090332 Q 708.858398 24.337402 709.288086 24.455566 Q 709.717773 24.573730 710.077637 24.573730 Q 710.877930 24.573730 711.243164 24.138672 Q 711.608398 23.703613 711.608398 22.758301 L 711.608398 22.715332 L 711.608398 22.043945 Q 711.372070 22.548828 710.963867 22.795898 Q 710.555664 23.042969 709.970215 23.042969 Q 708.917480 23.042969 708.289062 22.199707 Q 707.660645 21.356445 707.660645 19.943848 Q 707.660645 18.525879 708.289062 17.682617 Q 708.917480 16.839355 709.970215 16.839355 Q 710.550293 16.839355 710.953125 17.070312 Q 711.355957 17.301270 711.608398 17.784668 L 711.608398 17.005859 L 712.596680 17.005859 Z " fill="rgb(0, 0, 0)" fill-opacity="1.000000" />
<path d="M 6.892578 7.797852 L 6.892578 5.950195 L 13.729980 5.950195 L 13.729980 7.797852 Z " fill="rgb(0, 0, 0)" fill-opacity="1.000000" />
<path d="M 13.892578 7.797852 L 13.892578 5.950195 L 20.729980 5.950195 L 20.729980 7.797852 Z " fill="rgb(0, 0, 0)" fill-opacity="1.000000" />
<path d="M 20.892578 7.797852 L 20.892578 5.950195 L 27.729980 5.950195 L 27.729980 7.797852 Z " fill="rgb(0, 0, 0)" fill-opacity="1.000000" />
<path d="M 27.892578 7.797852 L 27.892578 5.950195 L 34.729980 5.950195 L 34.729980 7.797852 Z " fill="rgb(0, 0, 0)" fill-opacity="1.000000" />
<path d="M 34.892578 7.797852 L 34.892578 5.950195 L 41.729980 5.950195 L 41.729980 7.797852 Z " fill="rgb(0, 0, 0)" fill-opacity="1.000000" />
<path d="M 41.892578 7.797852 L 41.892578 5.950195 L 48.729980 5.950195 L 48.729980 7.797852 Z " fill="rgb(0, 0, 0)" fill-opacity="1.000000" />
<path d="M 48.892578 7.797852 L 48.892578 5.950195 L 55.729980 5.950195 L 55.729980 7.797852 Z " fill="rgb(0, 0, 0)" fill-opacity="1.000000" />
<path d="M 55.892578 7.797852 L 55.892578 5.950195 L 62.729980 5.950195 L 62.729980 7.797852 Z " fill="rgb(0, 0, 0)" fill-opacity="1.000000" />
<path d="M 62.892578 7.797852 L 62.892578 5.950195 L 69.729980 5.950195 L 69.729980 7.797852 Z " fill="rgb(0, 0, 0)" fill-opacity="1.000000" />
<path d="M 69.892578 7.797852 L 69.892578 5.950195 L 76.729980 5.950195 L 76.729980 7.797852 Z " fill="rgb(0, 0, 0)" fill-opacity="1.000000" />
<path d="M 76.892578 7.797852 L 76.892578 5.950195 L 83.729980 5.950195 L 83.729980 7.797852 Z " fill="rgb(0, 0, 0)" fill-opacity="1.000000" />
<path d="M 83.892578 7.797852 L 83.892578 5.950195 L 90.729980 5.950195 L 90.729980 7.797852 Z " fill="rgb(0, 0, 0)" fill-opacity="1.000000" />
<path d="M 90.892578 7.797852 L 90.892578 5.950195 L 97.729980 5.950195 L 97.729980 7.797852 Z " fill="rgb(0, 0, 0)" fill-opacity="1.000000" />
<path d="M 97.892578 7.797852 L 97.892578 5.950195 L 104.729980 5.950195 L 104.729980 7.797852 Z " fill="rgb(0, 0, 0)" fill-opacity="1.000000" />
<path d="M 104.892578 7.797852 L 104.892578 5.950195 L 111.729980 5.950195 L 111.729980 7.797852 Z " fill="rgb(0, 0, 0)" fill-opacity="1.000000" />
<path d="M 111.892578 7.797852 L 111.892578 5.950195 L 118.729980 5.950195 L 118.729980 7.797852 Z " fill="rgb(0, 0, 0)" fill-opacity="1.000000" />
<path d="M 118.892578 7.797852 L 118.892578 5.950195 L 125.729980 5.950195 L 125.729980 7.797852 Z " fill="rgb(0, 0, 0)" fill-opacity="1.000000" />
<path d="M 125.892578 7.797852 L 125.892578 5.950195 L 132.729980 5.950195 L 132.729980 7.797852 Z " fill="rgb(0, 0, 0)" fill-opacity="1.000000" />
<path d="M 135.449219 13.319336 L 135.449219 7.797852 L 132.892578 7.797852 L 132.892578 5.950195 L 137.167969 5.950195 L 137.167969 13.319336 Z " fill="rgb(0, 0, 0)" fill-opacity="1.000000" />
<path d="M 233.449219 13.319336 L 233.449219 5.950195 L 237.729980 5.950195 L 237.729980 7.797852 L 235.167969 7.797852 L 235.167969 13.319336 Z " fill="rgb(0, 0, 0)" fill-opacity="1.000000" />
<path d="M 237.892578 7.797852 L 237.892578 5.950195 L 244.729980 5.950195 L 244.729980 7.797852 Z " fill="rgb(0, 0, 0)" fill-opacity="1.000000" />
<path d="M 244.892578 7.797852 L 244.892578 5.950195 L 251.729980 5.950195 L 251.729980 7.797852 Z " fill="rgb(0, 0, 0)" fill-opacity="1.000000" />
<path d="M 251.892578 7.797852 L 251.892578 5.950195 L 258.729980 5.950195 L 258.729980 7.797852 Z " fill="rgb(0, 0, 0)" fill-opacity="1.000000" />
<path d="M 258.892578 7.797852 L 258.892578 5.950195 L 265.729980 5.950195 L 265.729980 7.797852 Z " fill="rgb(0, 0, 0)" fill-opacity="1.000000" />
<path d="M 265.892578 7.797852 L 265.892578 5.950195 L 272.729980 5.950195 L 272.729980 7.797852 Z " fill="rgb(0, 0, 0)" fill-opacity="1.000000" />
<path d="M 272.892578 7.797852 L 272.892578 5.950195 L 279.729980 5.950195 L 279.729980 7.797852 Z " fill="rgb(0, 0, 0)" fill-opacity="1.000000" />
<path d="M 279.892578 7.797852 L 279.892578 5.950195 L 286.729980 5.950195 L 286.729980 7.797852 Z " fill="rgb(0, 0, 0)" fill-opacity="1.000000" />
<path d="M 286.892578 7.797852 L 286.892578 5.950195 L 293.729980 5.950195 L 293.729980 7.797852 Z " fill="rgb(0, 0, 0)" fill-opacity="1.000000" />
<path d="M 293.892578 7.797852 L 293.892578 5.950195 L 300.729980 5.950195 L 300.729980 7.797852 Z " fill="rgb(0, 0, 0)" fill-opacity="1.000000" />
<path d="M 300.892578 7.797852 L 300.892578 5.950195 L 307.729980 5.950195 L 307.729980 7.797852 Z " fill="rgb(0, 0, 0)" fill-opacity="1.000000" />
<path d="M 307.892578 7.797852 L 307.892578 5.950195 L 314.729980 5.950195 L 314.729980 7.797852 Z " fill="rgb(0, 0, 0)" fill-opacity="1.000000" />
<path d="M 314.892578 7.797852 L 314.892578 5.950195 L 321.729980 5.950195 L 321.729980 7.797852 Z " fill="rgb(0, 0, 0)" fill-opacity="1.000000" />
<path d="M 321.892578 7.797852 L 321.892578 5.950195 L 328.729980 5.950195 L 328.729980 7.797852 Z " fill="rgb(0, 0, 0)" fill-opacity="1.000000" />
<path d="M 328.892578 7.797852 L 328.892578 5.950195 L 335.729980 5.950195 L 335.729980 7.797852 Z " fill="rgb(0, 0, 0)" fill-opacity="1.000000" />
<path d="M 335.892578 7.797852 L 335.892578 5.950195 L 342.729980 5.950195 L 342.729980 7.797852 Z " fill="rgb(0, 0, 0)" fill-opacity="1.000000" />
<path d="M 342.892578 7.797852 L 342.892578 5.950195 L 349.729980 5.950195 L 349.729980 7.797852 Z " fill="rgb(0, 0, 0)" fill-opacity="1.000000" />
<path d="M 349.892578 7.797852 L 349.892578 5.950195 L 356.729980 5.950195 L 356.729980 7.797852 Z " fill="rgb(0, 0, 0)" fill-opacity="1.000000" />
<path d="M 356.892578 7.797852 L 356.892578 5.950195 L 363.729980 5.950195 L 363.729980 7.797852 Z " fill="rgb(0, 0, 0)" fill-opacity="1.000000" />
<path d="M 366.449219 13.319336 L 366.449219 7.797852 L 363.892578 7.797852 L 363.892578 5.950195 L 368.167969 5.950195 L 368.167969 13.319336 Z " fill="rgb(0, 0, 0)" fill-opacity="1.000000" />
<path d="M 471.449219 13.319336 L 471.449219 5.950195 L 475.729980 5.950195 L 475.729980 7.797852 L 473.167969 7.797852 L 473.167969 13.319336 Z " fill="rgb(0, 0, 0)" fill-opacity="1.000000" />
<path d="M 475.892578 7.797852 L 475.892578 5.950195 L 482.729980 5.950195 L 482.729980 7.797852 Z " fill="rgb(0, 0, 0)" fill-opacity="1.000000" />
<path d="M 482.892578 7.797852 L 482.892578 5.950195 L 489.729980 5.950195 L 489.729980 7.797852 Z " fill="rgb(0, 0, 0)" fill-opacity="1.000000" />
<path d="M 489.892578 7.797852 L 489.892578 5.950195 L 496.729980 5.950195 L 496.729980 7.797852 Z " fill="rgb(0, 0, 0)" fill-opacity="1.000000" />
<path d="M 496.892578 7.797852 L 496.892578 5.950195 L 503.729980 5.950195 L 503.729980 7.797852 Z " fill="rgb(0, 0, 0)" fill-opacity="1.000000" />
<path d="M 503.892578 7.797852 L 503.892578 5.950195 L 510.729980 5.950195 L 510.729980 7.797852 Z " fill="rgb(0, 0, 0)" fill-opacity="1.000000" />
<path d="M 510.892578 7.797852 L 510.892578 5.950195 L 517.729980 5.950195 L 517.729980 7.797852 Z " fill="rgb(0, 0, 0)" fill-opacity="1.000000" />
<path d="M 517.892578 7.797852 L 517.892578 5.950195 L 524.729980 5.950195 L 524.729980 7.797852 Z " fill="rgb(0, 0, 0)" fill-opacity="1.000000" />
<path d="M 524.892578 7.797852 L 524.892578 5.950195 L 531.729980 5.950195 L 531.729980 7.797852 Z " fill="rgb(0, 0, 0)" fill-opacity="1.000000" />
<path d="M 531.892578 7.797852 L 531.892578 5.950195 L 538.729980 5.950195 L 538.729980 7.797852 Z " fill="rgb(0, 0, 0)" fill-opacity="1.000000" />
<path d="M 538.892578 7.797852 L 538.892578 5.950195 L 545.729980 5.950195 L 545.729980 7.797852 Z " fill="rgb(0, 0, 0)" fill-opacity="1.000000" />
<path d="M 545.892578 7.797852 L 545.892578 5.950195 L 552.729980 5.950195 L 552.729980 7.797852 Z " fill="rgb(0, 0, 0)" fill-opacity="1.000000" />
<path d="M 552.892578 7.797852 L 552.892578 5.950195 L 559.729980 5.950195 L 559.729980 7.797852 Z " fill="rgb(0, 0, 0)" fill-opacity="1.000000" />
<path d="M 559.892578 7.797852 L 559.892578 5.950195 L 566.729980 5.950195 L 566.729980 7.797852 Z " fill="rgb(0, 0, 0)" fill-opacity="1.000000" />
<path d="M 566.892578 7.797852 L 566.892578 5.950195 L 573.729980 5.950195 L 573.729980 7.797852 Z " fill="rgb(0, 0, 0)" fill-opacity="1.000000" />
<path d="M 573.892578 7.797852 L 573.892578 5.950195 L 580.729980 5.950195 L 580.729980 7.797852 Z " fill="rgb(0, 0, 0)" fill-opacity="1.000000" />
<path d="M 580.892578 7.797852 L 580.892578 5.950195 L 587.729980 5.950195 L 587.729980 7.797852 Z " fill="rgb(0, 0, 0)" fill-opacity="1.000000" />
<path d="M 587.892578 7.797852 L 587.892578 5.950195 L 594.729980 5.950195 L 594.729980 7.797852 Z " fill="rgb(0, 0, 0)" fill-opacity="1.000000" />
<path d="M 594.892578 7.797852 L 594.892578 5.950195 L 601.729980 5.950195 L 601.729980 7.797852 Z " fill="rgb(0, 0, 0)" fill-opacity="1.000000" />
<path d="M 601.892578 7.797852 L 601.892578 5.950195 L 608.729980 5.950195 L 608.729980 7.797852 Z " fill="rgb(0, 0, 0)" fill-opacity="1.000000" />
<path d="M 611.449219 13.319336 L 611.449219 7.797852 L 608.892578 7.797852 L 608.892578 5.950195 L 613.167969 5.950195 L 613.167969 13.319336 Z " fill="rgb(0, 0, 0)" fill-opacity="1.000000" />
</svg>