<svg xmlns="http://www.w3.org/2000/svg" version="1.1" width="484" height="66">
<path d="M 2.449219 13.319336 L 2.449219 5.950195 L 6.729980 5.950195 L 6.729980 7.797852 L 4.167969 7.797852 L 4.167969 13.319336 Z " fill="rgb(0, 0, 0)" fill-opacity="1.000000" />
<path d="M 2.449219 26.319336 L 2.449219 12.300781 L 4.167969 12.300781 L 4.167969 26.319336 Z " fill="rgb(0, 0, 0)" fill-opacity="1.000000" />
<path d="M 2.449219 39.319336 L 2.449219 25.300781 L 4.167969 25.300781 L 4.167969 39.319336 Z " fill="rgb(0, 0, 0)" fill-opacity="1.000000" />
<path d="M 2.449219 52.319336 L 2.449219 38.300781 L 4.167969 38.300781 L 4.167969 52.319336 Z " fill="rgb(0, 0, 0)" fill-opacity="1.000000" />
<path d="M 2.449219 59.797852 L 2.449219 51.300781 L 4.167969 51.300781 L 4.167969 57.950195 L 6.729980 57.950195 L 6.729980 59.797852 Z " fill="rgb(0, 0, 0)" fill-opacity="1.000000" />
<path d="M 6.892578 59.797852 L 6.892578 57.950195 L 13.729980 57.950195 L 13.729980 59.797852 Z " fill="rgb(0, 0, 0)" fill-opacity="1.000000" />
<path d="M 13.892578 59.797852 L 13.892578 57.950195 L 20.729980 57.950195 L 20.729980 59.797852 Z " fill="rgb(0, 0, 0)" fill-opacity="1.000000" />
<path d="M 20.892578 59.797852 L 20.892578 57.950195 L 27.729980 57.950195 L 27.729980 59.797852 Z " fill="rgb(0, 0, 0)" fill-opacity="1.000000" />
<path d="M 27.892578 59.797852 L 27.892578 57.950195 L 34.729980 57.950195 L 34.729980 59.797852 Z " fill="rgb(0, 0, 0)" fill-opacity="1.000000" />
<path d="M 34.892578 59.797852 L 34.892578 57.950195 L 41.729980 57.950195 L 41.729980 59.797852 Z " fill="rgb(0, 0, 0)" fill-opacity="1.000000" />
<path d="M 41.892578 59.797852 L 41.892578 57.950195 L 48.729980 57.950195 L 48.729980 59.797852 Z " fill="rgb(0, 0, 0)" fill-opacity="1.000000" />
<path d="M 48.892578 59.797852 L 48.892578 57.950195 L 55.729980 57.950195 L 55.729980 59.797852 Z " fill="rgb(0, 0, 0)" fill-opacity="1.000000" />
<path d="M 55.892578 59.797852 L 55.892578 57.950195 L 62.729980 57.950195 L 62.729980 59.797852 Z " fill="rgb(0, 0, 0)" fill-opacity="1.000000" />
<path d="M 62.892578 59.797852 L 62.892578 57.950195 L 69.729980 57.950195 L 69.729980 59.797852 Z " fill="rgb(0, 0, 0)" fill-opacity="1.000000" />
<path d="M 69.892578 59.797852 L 69.892578 57.950195 L 76.729980 57.950195 L 76.729980 59.797852 Z " fill="rgb(0, 0, 0)" fill-opacity="1.000000" />
<path d="M 76.892578 59.797852 L 76.892578 57.950195 L 83.729980 57.950195 L 83.729980 59.797852 Z " fill="rgb(0, 0, 0)" fill-opacity="1.000000" />
<path d="M 83.892578 59.797852 L 83.892578 57.950195 L 90.729980 57.950195 L 90.729980 59.797852 Z " fill="rgb(0, 0, 0)" fill-opacity="1.000000" />
<path d="M 90.892578 59.797852 L 90.892578 57.950195 L 97.729980 57.950195 L 97.729980 59.797852 Z " fill="rgb(0, 0, 0)" fill-opacity="1.000000" />
<path d="M 97.892578 59.797852 L 97.892578 57.950195 L 104.729980 57.950195 L 104.729980 59.797852 Z " fill="rgb(0, 0, 0)" fill-opacity="1.000000" />
<path d="M 104.892578 59.797852 L 104.892578 57.950195 L 111.729980 57.950195 L 111.729980 59.797852 Z " fill="rgb(0, 0, 0)" fill-opacity="1.000000" />
<path d="M 111.892578 59.797852 L 111.892578 57.950195 L 118.729980 57.950195 L 118.729980 59.797852 Z " fill="rgb(0, 0, 0)" fill-opacity="1.000000" />
<path d="M 118.892578 59.797852 L 118.892578 57.950195 L 125.729980 57.950195 L 125.729980 59.797852 Z " fill="rgb(0, 0, 0)" fill-opacity="1.000000" />
<path d="M 125.892578 59.797852 L 125.892578 57.950195 L 132.729980 57.950195 L 132.729980 59.797852 Z " fill="rgb(0, 0, 0)" fill-opacity="1.000000" />
<path d="M 132.892578 59.797852 L 132.892578 57.950195 L 135.449219 57.950195 L 135.449219 51.300781 L 137.167969 51.300781 L 137.167969 59.797852 Z " fill="rgb(0, 0, 0)" fill-opacity="1.000000" />
<path d="M 240.449219 59.797852 L 240.449219 51.300781 L 242.167969 51.300781 L 242.167969 57.950195 L 244.729980 57.950195 L 244.729980 59.797852 Z " fill="rgb(0, 0, 0)" fill-opacity="1.000000" />
<path d="M 244.892578 59.797852 L 244.892578 57.950195 L 251.729980 57.950195 L 251.729980 59.797852 Z " fill="rgb(0, 0, 0)" fill-opacity="1.000000" />
<path d="M 251.892578 59.797852 L 251.892578 57.950195 L 258.729980 57.950195 L 258.729980 59.797852 Z " fill="rgb(0, 0, 0)" fill-opacity="1.000000" />
<path d="M 258.892578 59.797852 L 258.892578 57.950195 L 265.729980 57.950195 L 265.729980 59.797852 Z " fill="rgb(0, 0, 0)" fill-opacity="1.000000" />
<path d="M 265.892578 59.797852 L 265.892578 57.950195 L 272.729980 57.950195 L 272.729980 59.797852 Z " fill="rgb(0, 0, 0)" fill-opacity="1.000000" />
<path d="M 272.892578 59.797852 L 272.892578 57.950195 L 279.729980 57.950195 L 279.729980 59.797852 Z " fill="rgb(0, 0, 0)" fill-opacity="1.000000" />
<path d="M 279.892578 59.797852 L 279.892578 57.950195 L 286.729980 57.950195 L 286.729980 59.797852 Z " fill="rgb(0, 0, 0)" fill-opacity="1.000000" />
<path d="M 286.892578 59.797852 L 286.892578 57.950195 L 293.729980 57.950195 L 293.729980 59.797852 Z " fill="rgb(0, 0, 0)" fill-opacity="1.000000" />
<path d="M 293.892578 59.797852 L 293.892578 57.950195 L 300.729980 57.950195 L 300.729980 59.797852 Z " fill="rgb(0, 0, 0)" fill-opacity="1.000000" />
<path d="M 300.892578 59.797852 L 300.892578 57.950195 L 307.729980 57.950195 L 307.729980 59.797852 Z " fill="rgb(0, 0, 0)" fill-opacity="1.000000" />
<path d="M 307.892578 59.797852 L 307.892578 57.950195 L 314.729980 57.950195 L 314.729980 59.797852 Z " fill="rgb(0, 0, 0)" fill-opacity="1.000000" />
<path d="M 314.892578 59.797852 L 314.892578 57.950195 L 321.729980 57.950195 L 321.729980 59.797852 Z " fill="rgb(0, 0, 0)" fill-opacity="1.000000" />
<path d="M 321.892578 59.797852 L 321.892578 57.950195 L 328.729980 57.950195 L 328.729980 59.797852 Z " fill="rgb(0, 0, 0)" fill-opacity="1.000000" />
<path d="M 328.892578 59.797852 L 328.892578 57.950195 L 335.729980 57.950195 L 335.729980 59.797852 Z " fill="rgb(0, 0, 0)" fill-opacity="1.000000" />
<path d="M 335.892578 59.797852 L 335.892578 57.950195 L 342.729980 57.950195 L 342.729980 59.797852 Z " fill="rgb(0, 0, 0)" fill-opacity="1.000000" />
<path d="M 342.892578 59.797852 L 342.892578 57.950195 L 349.729980 57.950195 L 349.729980 59.797852 Z " fill="rgb(0, 0, 0)" fill-opacity="1.000000" />
<path d="M 349.892578 59.797852 L 349.892578 57.950195 L 356.729980 57.950195 L 356.729980 59.797852 Z " fill="rgb(0, 0, 0)" fill-opacity="1.000000" />
<path d="M 356.892578 59.797852 L 356.892578 57.950195 L 363.729980 57.950195 L 363.729980 59.797852 Z " fill="rgb(0, 0, 0)" fill-opacity="1.000000" />
<path d="M 363.892578 59.797852 L 363.892578 57.950195 L 370.729980 57.950195 L 370.729980 59.797852 Z " fill="rgb(0, 0, 0)" fill-opacity="1.000000" />
<path d="M 370.892578 59.797852 L 370.892578 57.950195 L 377.729980 57.950195 L 377.729980 59.797852 Z " fill="rgb(0, 0, 0)" fill-opacity="1.000000" />
<path d="M 377.892578 59.797852 L 377.892578 57.950195 L 380.449219 57.950195 L 380.449219 51.300781 L 382.167969 51.300781 L 382.167969 59.797852 Z " fill="rgb(0, 0, 0)" fill-opacity="1.000000" />
<path d="M 18.592285 27.116211 Q 17.877930 28.340820 17.526123 29.557373 Q 17.174316 30.773926 17.174316 32.009277 Q 17.174316 33.239258 17.526123 34.458496 Q 17.877930 35.677734 18.592285 36.913086 L 17.732910 36.913086 Q 16.921875 35.634766 16.524414 34.423584 Q 16.126953 33.212402 16.126953 32.009277 Q 16.126953 30.811523 16.524414 29.597656 Q 16.921875 28.383789 17.732910 27.116211 Z " fill="rgb(0, 0, 0)" fill-opacity="1.000000" />
<path d="M 35.537109 42.984375 L 36.562988 42.984375 L 38.308594 48.033203 L 40.059570 42.984375 L 41.085449 42.984375 L 38.947754 49.000000 L 37.674805 49.000000 Z " fill="rgb(0, 0, 0)" fill-opacity="1.000000" />
<path d="M 48.015625 45.498047 L 48.015625 45.981445 L 43.734863 45.981445 L 43.734863 46.013672 Q 43.691895 47.243652 44.204834 47.780762 Q 44.717773 48.317871 45.652344 48.317871 Q 46.125000 48.317871 46.640625 48.167480 Q 47.156250 48.017090 47.741699 47.710938 L 47.741699 48.693848 Q 47.177734 48.924805 46.654053 49.040283 Q 46.130371 49.155762 45.641602 49.155762 Q 44.239746 49.155762 43.450195 48.315186 Q 42.660645 47.474609 42.660645 45.997559 Q 42.660645 44.558105 43.434082 43.698730 Q 44.207520 42.839355 45.496582 42.839355 Q 46.645996 42.839355 47.309326 43.618164 Q 47.972656 44.396973 48.015625 45.498047 Z M 47.027344 45.208008 Q 46.962891 44.584961 46.573486 44.131104 Q 46.184082 43.677246 45.453613 43.677246 Q 44.739258 43.677246 44.277344 44.149902 Q 43.815430 44.622559 43.772461 45.213379 Z " fill="rgb(0, 0, 0)" fill-opacity="1.000000" />
<path d="M 55.203613 44.225098 Q 54.886719 43.978027 54.559082 43.865234 Q 54.231445 43.752441 53.839355 43.752441 Q 52.915527 43.752441 52.426758 44.332520 Q 51.937988 44.912598 51.937988 46.008301 L 51.937988 49.000000 L 50.944336 49.000000 L 50.944336 42.984375 L 51.937988 42.984375 L 51.937988 44.160645 Q 52.185059 43.521484 52.697998 43.180420 Q 53.210938 42.839355 53.914551 42.839355 Q 54.279785 42.839355 54.596680 42.930664 Q 54.913574 43.021973 55.203613 43.215332 Z " fill="rgb(0, 0, 0)" fill-opacity="1.000000" />
<path d="M 61.226074 43.193848 L 61.226074 44.160645 Q 60.801758 43.913574 60.372070 43.790039 Q 59.942383 43.666504 59.496582 43.666504 Q 58.825195 43.666504 58.494873 43.884033 Q 58.164551 44.101562 58.164551 44.547363 Q 58.164551 44.950195 58.411621 45.148926 Q 58.658691 45.347656 59.641602 45.535645 L 60.039062 45.610840 Q 60.774902 45.750488 61.153564 46.169434 Q 61.532227 46.588379 61.532227 47.259766 Q 61.532227 48.151367 60.898438 48.653564 Q 60.264648 49.155762 59.136719 49.155762 Q 58.690918 49.155762 58.202148 49.061768 Q 57.713379 48.967773 57.144043 48.779785 L 57.144043 47.759277 Q 57.697266 48.043945 58.202148 48.186279 Q 58.707031 48.328613 59.158203 48.328613 Q 59.813477 48.328613 60.173340 48.062744 Q 60.533203 47.796875 60.533203 47.318848 Q 60.533203 46.631348 59.217285 46.368164 L 59.174316 46.357422 L 58.803711 46.282227 Q 57.949707 46.115723 57.557617 45.720947 Q 57.165527 45.326172 57.165527 44.644043 Q 57.165527 43.779297 57.750977 43.309326 Q 58.336426 42.839355 59.421387 42.839355 Q 59.904785 42.839355 60.350586 42.927979 Q 60.796387 43.016602 61.226074 43.193848 Z " fill="rgb(0, 0, 0)" fill-opacity="1.000000" />
<path d="M 64.697266 43.005859 L 67.227051 43.005859 L 67.227051 48.231934 L 69.187500 48.231934 L 69.187500 49.000000 L 64.278320 49.000000 L 64.278320 48.231934 L 66.238770 48.231934 L 66.238770 43.773926 L 64.697266 43.773926 Z M 66.238770 40.669434 L 67.227051 40.669434 L 67.227051 41.915527 L 66.238770 41.915527 Z " fill="rgb(0, 0, 0)" fill-opacity="1.000000" />
<path d="M 73.308594 43.677246 Q 72.556641 43.677246 72.169922 44.262695 Q 71.783203 44.848145 71.783203 45.997559 Q 71.783203 47.141602 72.169922 47.729736 Q 72.556641 48.317871 73.308594 48.317871 Q 74.065918 48.317871 74.452637 47.729736 Q 74.839355 47.141602 74.839355 45.997559 Q 74.839355 44.848145 74.452637 44.262695 Q 74.065918 43.677246 73.308594 43.677246 Z M 73.308594 42.839355 Q 74.560059 42.839355 75.223389 43.650391 Q 75.886719 44.461426 75.886719 45.997559 Q 75.886719 47.539062 75.226074 48.347412 Q 74.565430 49.155762 73.308594 49.155762 Q 72.057129 49.155762 71.396484 48.347412 Q 70.735840 47.539062 70.735840 45.997559 Q 70.735840 44.461426 71.396484 43.650391 Q 72.057129 42.839355 73.308594 42.839355 Z " fill="rgb(0, 0, 0)" fill-opacity="1.000000" />
<path d="M 82.645020 45.272461 L 82.645020 49.000000 L 81.651367 49.000000 L 81.651367 45.272461 Q 81.651367 44.461426 81.366699 44.080078 Q 81.082031 43.698730 80.475098 43.698730 Q 79.782227 43.698730 79.408936 44.190186 Q 79.035645 44.681641 79.035645 45.600098 L 79.035645 49.000000 L 78.047363 49.000000 L 78.047363 42.984375 L 79.035645 42.984375 L 79.035645 43.886719 Q 79.298828 43.371094 79.750000 43.105225 Q 80.201172 42.839355 80.818848 42.839355 Q 81.737305 42.839355 82.191162 43.443604 Q 82.645020 44.047852 82.645020 45.272461 Z " fill="rgb(0, 0, 0)" fill-opacity="1.000000" />
<path d="M 93.003418 48.086914 L 96.687988 48.086914 L 96.687988 49.000000 L 91.816406 49.000000 L 91.816406 48.086914 Q 92.820801 47.028809 93.572754 46.217773 Q 94.324707 45.406738 94.609375 45.073730 Q 95.146484 44.418457 95.334473 44.012939 Q 95.522461 43.607422 95.522461 43.183105 Q 95.522461 42.511719 95.127686 42.130371 Q 94.732910 41.749023 94.045410 41.749023 Q 93.556641 41.749023 93.019531 41.926270 Q 92.482422 42.103516 91.880859 42.463379 L 91.880859 41.367676 Q 92.434082 41.104492 92.968506 40.970215 Q 93.502930 40.835938 94.023926 40.835938 Q 95.200195 40.835938 95.917236 41.461670 Q 96.634277 42.087402 96.634277 43.102539 Q 96.634277 43.618164 96.395264 44.133789 Q 96.156250 44.649414 95.619141 45.272461 Q 95.318359 45.621582 94.746338 46.239258 Q 94.174316 46.856934 93.003418 48.086914 Z " fill="rgb(0, 0, 0)" fill-opacity="1.000000" />
<path d="M 99.869141 40.116211 L 100.728516 40.116211 Q 101.539551 41.383789 101.937012 42.597656 Q 102.334473 43.811523 102.334473 45.009277 Q 102.334473 46.217773 101.937012 47.431641 Q 101.539551 48.645508 100.728516 49.913086 L 99.869141 49.913086 Q 100.583496 48.666992 100.935303 47.447754 Q 101.287109 46.228516 101.287109 45.009277 Q 101.287109 43.784668 100.935303 42.565430 Q 100.583496 41.346191 99.869141 40.116211 Z " fill="rgb(0, 0, 0)" fill-opacity="1.000000" />
<path d="M 135.449219 52.319336 L 135.449219 38.300781 L 137.167969 38.300781 L 137.167969 52.319336 Z " fill="rgb(0, 0, 0)" fill-opacity="1.000000" />
<path d="M 240.449219 52.319336 L 240.449219 38.300781 L 242.167969 38.300781 L 242.167969 52.319336 Z " fill="rgb(0, 0, 0)" fill-opacity="1.000000" />
<path d="M 380.449219 52.319336 L 380.449219 38.300781 L 382.167969 38.300781 L 382.167969 52.319336 Z " fill="rgb(0, 0, 0)" fill-opacity="1.000000" />
<path d="M 392.000000 42.984375 L 392.977539 42.984375 L 394.024902 47.845215 L 394.884277 44.740723 L 395.727539 44.740723 L 396.597656 47.845215 L 397.645020 42.984375 L 398.622559 42.984375 L 397.215332 49.000000 L 396.270020 49.000000 L 395.308594 45.702148 L 394.352539 49.000000 L 393.407227 49.000000 Z " fill="rgb(0, 0, 0)" fill-opacity="1.000000" />
<path d="M 400.697266 43.005859 L 403.227051 43.005859 L 403.227051 48.231934 L 405.187500 48.231934 L 405.187500 49.000000 L 400.278320 49.000000 L 400.278320 48.231934 L 402.238770 48.231934 L 402.238770 43.773926 L 400.697266 43.773926 Z M 402.238770 40.669434 L 403.227051 40.669434 L 403.227051 41.915527 L 402.238770 41.915527 Z " fill="rgb(0, 0, 0)" fill-opacity="1.000000" />
<path d="M 409.297852 41.276367 L 409.297852 42.984375 L 411.542969 42.984375 L 411.542969 43.752441 L 409.297852 43.752441 L 409.297852 47.018066 Q 409.297852 47.684082 409.550293 47.947266 Q 409.802734 48.210449 410.431152 48.210449 L 411.542969 48.210449 L 411.542969 49.000000 L 410.334473 49.000000 Q 409.222656 49.000000 408.766113 48.554199 Q 408.309570 48.108398 408.309570 47.018066 L 408.309570 43.752441 L 406.703613 43.752441 L 406.703613 42.984375 L 408.309570 42.984375 L 408.309570 41.276367 Z " fill="rgb(0, 0, 0)" fill-opacity="1.000000" />
<path d="M 418.645020 45.272461 L 418.645020 49.000000 L 417.651367 49.000000 L 417.651367 45.272461 Q 417.651367 44.461426 417.366699 44.080078 Q 417.082031 43.698730 416.475098 43.698730 Q 415.782227 43.698730 415.408936 44.190186 Q 415.035645 44.681641 415.035645 45.600098 L 415.035645 49.000000 L 414.047363 49.000000 L 414.047363 40.642578 L 415.035645 40.642578 L 415.035645 43.886719 Q 415.298828 43.371094 415.750000 43.105225 Q 416.201172 42.839355 416.818848 42.839355 Q 417.737305 42.839355 418.191162 43.443604 Q 418.645020 44.047852 418.645020 45.272461 Z " fill="rgb(0, 0, 0)" fill-opacity="1.000000" />
<path d="M 432.645020 45.272461 L 432.645020 49.000000 L 431.651367 49.000000 L 431.651367 45.272461 Q 431.651367 44.461426 431.366699 44.080078 Q 431.082031 43.698730 430.475098 43.698730 Q 429.782227 43.698730 429.408936 44.190186 Q 429.035645 44.681641 429.035645 45.600098 L 429.035645 49.000000 L 428.047363 49.000000 L 428.047363 40.642578 L 429.035645 40.642578 L 429.035645 43.886719 Q 429.298828 43.371094 429.750000 43.105225 Q 430.201172 42.839355 430.818848 42.839355 Q 431.737305 42.839355 432.191162 43.443604 Q 432.645020 44.047852 432.645020 45.272461 Z " fill="rgb(0, 0, 0)" fill-opacity="1.000000" />
<path d="M 440.015625 45.498047 L 440.015625 45.981445 L 435.734863 45.981445 L 435.734863 46.013672 Q 435.691895 47.243652 436.204834 47.780762 Q 436.717773 48.317871 437.652344 48.317871 Q 438.125000 48.317871 438.640625 48.167480 Q 439.156250 48.017090 439.741699 47.710938 L 439.741699 48.693848 Q 439.177734 48.924805 438.654053 49.040283 Q 438.130371 49.155762 437.641602 49.155762 Q 436.239746 49.155762 435.450195 48.315186 Q 434.660645 47.474609 434.660645 45.997559 Q 434.660645 44.558105 435.434082 43.698730 Q 436.207520 42.839355 437.496582 42.839355 Q 438.645996 42.839355 439.309326 43.618164 Q 439.972656 44.396973 440.015625 45.498047 Z M 439.027344 45.208008 Q 438.962891 44.584961 438.573486 44.131104 Q 438.184082 43.677246 437.453613 43.677246 Q 436.739258 43.677246 436.277344 44.149902 Q 435.815430 44.622559 435.772461 45.213379 Z " fill="rgb(0, 0, 0)" fill-opacity="1.000000" />
<path d="M 447.004883 42.984375 L 444.851074 45.863281 L 447.214355 49.000000 L 446.070312 49.000000 L 444.308594 46.588379 L 442.552246 49.000000 L 441.408203 49.000000 L 443.771484 45.863281 L 441.617676 42.984375 L 442.713379 42.984375 L 444.308594 45.159668 L 445.893066 42.984375 Z " fill="rgb(0, 0, 0)" fill-opacity="1.000000" />
<path d="M 452.608398 43.752441 L 452.608398 40.642578 L 453.596680 40.642578 L 453.596680 49.000000 L 452.608398 49.000000 L 452.608398 48.242676 Q 452.361328 48.688477 451.950439 48.922119 Q 451.539551 49.155762 451.002441 49.155762 Q 449.912109 49.155762 449.286377 48.309814 Q 448.660645 47.463867 448.660645 45.976074 Q 448.660645 44.509766 449.289062 43.674561 Q 449.917480 42.839355 451.002441 42.839355 Q 451.544922 42.839355 451.958496 43.072998 Q 452.372070 43.306641 452.608398 43.752441 Z M 449.702637 45.997559 Q 449.702637 47.146973 450.067871 47.732422 Q 450.433105 48.317871 451.147461 48.317871 Q 451.861816 48.317871 452.235107 47.727051 Q 452.608398 47.136230 452.608398 45.997559 Q 452.608398 44.853516 452.235107 44.265381 Q 451.861816 43.677246 451.147461 43.677246 Q 450.433105 43.677246 450.067871 44.262695 Q 449.702637 44.848145 449.702637 45.997559 Z " fill="rgb(0, 0, 0)" fill-opacity="1.000000" />
<path d="M 456.047363 46.722656 L 456.047363 42.995117 L 457.035645 42.995117 L 457.035645 46.722656 Q 457.035645 47.533691 457.322998 47.915039 Q 457.610352 48.296387 458.211914 48.296387 Q 458.910156 48.296387 459.280762 47.804932 Q 459.651367 47.313477 459.651367 46.395020 L 459.651367 42.995117 L 460.645020 42.995117 L 460.645020 49.000000 L 459.651367 49.000000 L 459.651367 48.097656 Q 459.388184 48.618652 458.934326 48.887207 Q 458.480469 49.155762 457.873535 49.155762 Q 456.949707 49.155762 456.498535 48.551514 Q 456.047363 47.947266 456.047363 46.722656 Z " fill="rgb(0, 0, 0)" fill-opacity="1.000000" />
<path d="M 465.630859 43.596680 Q 465.813477 43.209961 466.095459 43.024658 Q 466.377441 42.839355 466.774902 42.839355 Q 467.500000 42.839355 467.798096 43.400635 Q 468.096191 43.961914 468.096191 45.514160 L 468.096191 49.000000 L 467.193848 49.000000 L 467.193848 45.557129 Q 467.193848 44.284180 467.051514 43.975342 Q 466.909180 43.666504 466.533203 43.666504 Q 466.103516 43.666504 465.945068 43.996826 Q 465.786621 44.327148 465.786621 45.557129 L 465.786621 49.000000 L 464.884277 49.000000 L 464.884277 45.557129 Q 464.884277 44.268066 464.731201 43.967285 Q 464.578125 43.666504 464.180664 43.666504 Q 463.788574 43.666504 463.635498 43.996826 Q 463.482422 44.327148 463.482422 45.557129 L 463.482422 49.000000 L 462.585449 49.000000 L 462.585449 42.984375 L 463.482422 42.984375 L 463.482422 43.500000 Q 463.659668 43.177734 463.925537 43.008545 Q 464.191406 42.839355 464.529785 42.839355 Q 464.937988 42.839355 465.209229 43.027344 Q 465.480469 43.215332 465.630859 43.596680 Z " fill="rgb(0, 0, 0)" fill-opacity="1.000000" />
<path d="M 471.014160 48.242676 L 471.014160 51.288086 L 470.020508 51.288086 L 470.020508 42.984375 L 471.014160 42.984375 L 471.014160 43.752441 Q 471.261230 43.306641 471.672119 43.072998 Q 472.083008 42.839355 472.620117 42.839355 Q 473.710449 42.839355 474.330811 43.682617 Q 474.951172 44.525879 474.951172 46.019043 Q 474.951172 47.485352 474.328125 48.320557 Q 473.705078 49.155762 472.620117 49.155762 Q 472.072266 49.155762 471.661377 48.922119 Q 471.250488 48.688477 471.014160 48.242676 Z M 473.914551 45.997559 Q 473.914551 44.848145 473.552002 44.262695 Q 473.189453 43.677246 472.475098 43.677246 Q 471.755371 43.677246 471.384766 44.265381 Q 471.014160 44.853516 471.014160 45.997559 Q 471.014160 47.136230 471.384766 47.727051 Q 471.755371 48.317871 472.475098 48.317871 Q 473.189453 48.317871 473.552002 47.732422 Q 473.914551 47.146973 473.914551 45.997559 Z " fill="rgb(0, 0, 0)" fill-opacity="1.000000" />
<path d="M 23.143066 28.872559 L 23.143066 31.885742 L 24.399902 31.885742 Q 25.151855 31.885742 25.573486 31.488281 Q 25.995117 31.090820 25.995117 30.376465 Q 25.995117 29.662109 25.576172 29.267334 Q 25.157227 28.872559 24.399902 28.872559 Z M 22.058105 27.980957 L 24.399902 27.980957 Q 25.742676 27.980957 26.435547 28.590576 Q 27.128418 29.200195 27.128418 30.376465 Q 27.128418 31.563477 26.438232 32.170410 Q 25.748047 32.777344 24.399902 32.777344 L 23.143066 32.777344 L 23.143066 36.000000 L 22.058105 36.000000 Z " fill="rgb(0, 0, 0)" fill-opacity="1.000000" />
<path d="M 32.082031 32.213379 Q 32.500977 32.320801 32.796387 32.618896 Q 33.091797 32.916992 33.532227 33.808594 L 34.622559 36.000000 L 33.457031 36.000000 L 32.500977 33.975098 Q 32.087402 33.110352 31.757080 32.860596 Q 31.426758 32.610840 30.895020 32.610840 L 29.858398 32.610840 L 29.858398 36.000000 L 28.768066 36.000000 L 28.768066 27.980957 L 31.002441 27.980957 Q 32.323730 27.980957 33.027344 28.577148 Q 33.730957 29.173340 33.730957 30.301270 Q 33.730957 31.096191 33.298584 31.598389 Q 32.866211 32.100586 32.082031 32.213379 Z M 29.858398 28.872559 L 29.858398 31.719238 L 31.045410 31.719238 Q 31.824219 31.719238 32.205566 31.370117 Q 32.586914 31.020996 32.586914 30.301270 Q 32.586914 29.608398 32.181396 29.240479 Q 31.775879 28.872559 31.002441 28.872559 Z " fill="rgb(0, 0, 0)" fill-opacity="1.000000" />
<path d="M 39.860840 31.998535 Q 39.860840 30.231445 39.498291 29.474121 Q 39.135742 28.716797 38.308594 28.716797 Q 37.486816 28.716797 37.124268 29.474121 Q 36.761719 30.231445 36.761719 31.998535 Q 36.761719 33.760254 37.124268 34.517578 Q 37.486816 35.274902 38.308594 35.274902 Q 39.135742 35.274902 39.498291 34.520264 Q 39.860840 33.765625 39.860840 31.998535 Z M 40.994141 31.998535 Q 40.994141 34.093262 40.330811 35.124512 Q 39.667480 36.155762 38.308594 36.155762 Q 36.949707 36.155762 36.289062 35.129883 Q 35.628418 34.104004 35.628418 31.998535 Q 35.628418 29.898438 36.291748 28.867188 Q 36.955078 27.835938 38.308594 27.835938 Q 39.667480 27.835938 40.330811 28.867188 Q 40.994141 29.898438 40.994141 31.998535 Z " fill="rgb(0, 0, 0)" fill-opacity="1.000000" />
<path d="M 42.461914 27.980957 L 43.627441 27.980957 L 45.389160 31.004883 L 47.183105 27.980957 L 48.348633 27.980957 L 45.947754 31.751465 L 48.520508 36.000000 L 47.354980 36.000000 L 45.389160 32.546387 L 43.267578 36.000000 L 42.096680 36.000000 L 44.782227 31.751465 Z " fill="rgb(0, 0, 0)" fill-opacity="1.000000" />
<path d="M 49.198730 27.980957 L 50.353516 27.980957 L 52.308594 31.520508 L 54.258301 27.980957 L 55.423828 27.980957 L 52.851074 32.401367 L 52.851074 36.000000 L 51.760742 36.000000 L 51.760742 32.401367 Z " fill="rgb(0, 0, 0)" fill-opacity="1.000000" />
<path d="M 65.143066 28.872559 L 65.143066 31.885742 L 66.399902 31.885742 Q 67.151855 31.885742 67.573486 31.488281 Q 67.995117 31.090820 67.995117 30.376465 Q 67.995117 29.662109 67.576172 29.267334 Q 67.157227 28.872559 66.399902 28.872559 Z M 64.058105 27.980957 L 66.399902 27.980957 Q 67.742676 27.980957 68.435547 28.590576 Q 69.128418 29.200195 69.128418 30.376465 Q 69.128418 31.563477 68.438232 32.170410 Q 67.748047 32.777344 66.399902 32.777344 L 65.143066 32.777344 L 65.143066 36.000000 L 64.058105 36.000000 Z " fill="rgb(0, 0, 0)" fill-opacity="1.000000" />
<path d="M 76.203613 31.225098 Q 75.886719 30.978027 75.559082 30.865234 Q 75.231445 30.752441 74.839355 30.752441 Q 73.915527 30.752441 73.426758 31.332520 Q 72.937988 31.912598 72.937988 33.008301 L 72.937988 36.000000 L 71.944336 36.000000 L 71.944336 29.984375 L 72.937988 29.984375 L 72.937988 31.160645 Q 73.185059 30.521484 73.697998 30.180420 Q 74.210938 29.839355 74.914551 29.839355 Q 75.279785 29.839355 75.596680 29.930664 Q 75.913574 30.021973 76.203613 30.215332 Z " fill="rgb(0, 0, 0)" fill-opacity="1.000000" />
<path d="M 80.308594 30.677246 Q 79.556641 30.677246 79.169922 31.262695 Q 78.783203 31.848145 78.783203 32.997559 Q 78.783203 34.141602 79.169922 34.729736 Q 79.556641 35.317871 80.308594 35.317871 Q 81.065918 35.317871 81.452637 34.729736 Q 81.839355 34.141602 81.839355 32.997559 Q 81.839355 31.848145 81.452637 31.262695 Q 81.065918 30.677246 80.308594 30.677246 Z M 80.308594 29.839355 Q 81.560059 29.839355 82.223389 30.650391 Q 82.886719 31.461426 82.886719 32.997559 Q 82.886719 34.539062 82.226074 35.347412 Q 81.565430 36.155762 80.308594 36.155762 Q 79.057129 36.155762 78.396484 35.347412 Q 77.735840 34.539062 77.735840 32.997559 Q 77.735840 31.461426 78.396484 30.650391 Q 79.057129 29.839355 80.308594 29.839355 Z " fill="rgb(0, 0, 0)" fill-opacity="1.000000" />
<path d="M 87.297852 28.276367 L 87.297852 29.984375 L 89.542969 29.984375 L 89.542969 30.752441 L 87.297852 30.752441 L 87.297852 34.018066 Q 87.297852 34.684082 87.550293 34.947266 Q 87.802734 35.210449 88.431152 35.210449 L 89.542969 35.210449 L 89.542969 36.000000 L 88.334473 36.000000 Q 87.222656 36.000000 86.766113 35.554199 Q 86.309570 35.108398 86.309570 34.018066 L 86.309570 30.752441 L 84.703613 30.752441 L 84.703613 29.984375 L 86.309570 29.984375 L 86.309570 28.276367 Z " fill="rgb(0, 0, 0)" fill-opacity="1.000000" />
<path d="M 94.308594 30.677246 Q 93.556641 30.677246 93.169922 31.262695 Q 92.783203 31.848145 92.783203 32.997559 Q 92.783203 34.141602 93.169922 34.729736 Q 93.556641 35.317871 94.308594 35.317871 Q 95.065918 35.317871 95.452637 34.729736 Q 95.839355 34.141602 95.839355 32.997559 Q 95.839355 31.848145 95.452637 31.262695 Q 95.065918 30.677246 94.308594 30.677246 Z M 94.308594 29.839355 Q 95.560059 29.839355 96.223389 30.650391 Q 96.886719 31.461426 96.886719 32.997559 Q 96.886719 34.539062 96.226074 35.347412 Q 95.565430 36.155762 94.308594 36.155762 Q 93.057129 36.155762 92.396484 35.347412 Q 91.735840 34.539062 91.735840 32.997559 Q 91.735840 31.461426 92.396484 30.650391 Q 93.057129 29.839355 94.308594 29.839355 Z " fill="rgb(0, 0, 0)" fill-opacity="1.000000" />
<path d="M 103.698730 35.693848 Q 103.301270 35.924805 102.879639 36.040283 Q 102.458008 36.155762 102.017578 36.155762 Q 100.621094 36.155762 99.834229 35.317871 Q 99.047363 34.479980 99.047363 32.997559 Q 99.047363 31.515137 99.834229 30.677246 Q 100.621094 29.839355 102.017578 29.839355 Q 102.452637 29.839355 102.866211 29.952148 Q 103.279785 30.064941 103.698730 30.301270 L 103.698730 31.337891 Q 103.306641 30.988770 102.911865 30.833008 Q 102.517090 30.677246 102.017578 30.677246 Q 101.088379 30.677246 100.588867 31.278809 Q 100.089355 31.880371 100.089355 32.997559 Q 100.089355 34.109375 100.591553 34.713623 Q 101.093750 35.317871 102.017578 35.317871 Q 102.533203 35.317871 102.941406 35.159424 Q 103.349609 35.000977 103.698730 34.667969 Z " fill="rgb(0, 0, 0)" fill-opacity="1.000000" />
<path d="M 108.308594 30.677246 Q 107.556641 30.677246 107.169922 31.262695 Q 106.783203 31.848145 106.783203 32.997559 Q 106.783203 34.141602 107.169922 34.729736 Q 107.556641 35.317871 108.308594 35.317871 Q 109.065918 35.317871 109.452637 34.729736 Q 109.839355 34.141602 109.839355 32.997559 Q 109.839355 31.848145 109.452637 31.262695 Q 109.065918 30.677246 108.308594 30.677246 Z M 108.308594 29.839355 Q 109.560059 29.839355 110.223389 30.650391 Q 110.886719 31.461426 110.886719 32.997559 Q 110.886719 34.539062 110.226074 35.347412 Q 109.565430 36.155762 108.308594 36.155762 Q 107.057129 36.155762 106.396484 35.347412 Q 105.735840 34.539062 105.735840 32.997559 Q 105.735840 31.461426 106.396484 30.650391 Q 107.057129 29.839355 108.308594 29.839355 Z " fill="rgb(0, 0, 0)" fill-opacity="1.000000" />
<path d="M 115.861816 33.824707 Q 115.861816 34.490723 116.106201 34.829102 Q 116.350586 35.167480 116.828613 35.167480 L 117.983398 35.167480 L 117.983398 36.000000 L 116.731934 36.000000 Q 115.845703 36.000000 115.359619 35.433350 Q 114.873535 34.866699 114.873535 33.824707 L 114.873535 28.383789 L 113.289062 28.383789 L 113.289062 27.610352 L 115.861816 27.610352 Z " fill="rgb(0, 0, 0)" fill-opacity="1.000000" />
<path d="M 135.449219 39.319336 L 135.449219 25.300781 L 137.167969 25.300781 L 137.167969 39.319336 Z " fill="rgb(0, 0, 0)" fill-opacity="1.000000" />
<path d="M 139.892578 33.335938 L 139.892578 32.412109 L 146.729980 32.412109 L 146.729980 33.335938 Z " fill="rgb(0, 0, 0)" fill-opacity="1.000000" />
<path d="M 146.892578 33.335938 L 146.892578 32.412109 L 153.729980 32.412109 L 153.729980 33.335938 Z " fill="rgb(0, 0, 0)" fill-opacity="1.000000" />
<path d="M 153.892578 33.335938 L 153.892578 32.412109 L 160.729980 32.412109 L 160.729980 33.335938 Z " fill="rgb(0, 0, 0)" fill-opacity="1.000000" />
<path d="M 160.892578 33.335938 L 160.892578 32.412109 L 167.729980 32.412109 L 167.729980 33.335938 Z " fill="rgb(0, 0, 0)" fill-opacity="1.000000" />
<path d="M 167.892578 33.335938 L 167.892578 32.412109 L 174.729980 32.412109 L 174.729980 33.335938 Z " fill="rgb(0, 0, 0)" fill-opacity="1.000000" />
<path d="M 174.892578 33.335938 L 174.892578 32.412109 L 181.729980 32.412109 L 181.729980 33.335938 Z " fill="rgb(0, 0, 0)" fill-opacity="1.000000" />
<path d="M 181.892578 33.335938 L 181.892578 32.412109 L 188.729980 32.412109 L 188.729980 33.335938 Z " fill="rgb(0, 0, 0)" fill-opacity="1.000000" />
<path d="M 188.892578 33.335938 L 188.892578 32.412109 L 195.729980 32.412109 L 195.729980 33.335938 Z " fill="rgb(0, 0, 0)" fill-opacity="1.000000" />
<path d="M 195.892578 33.335938 L 195.892578 32.412109 L 202.729980 32.412109 L 202.729980 33.335938 Z " fill="rgb(0, 0, 0)" fill-opacity="1.000000" />
<path d="M 202.892578 33.335938 L 202.892578 32.412109 L 209.729980 32.412109 L 209.729980 33.335938 Z " fill="rgb(0, 0, 0)" fill-opacity="1.000000" />
<path d="M 209.892578 33.335938 L 209.892578 32.412109 L 216.729980 32.412109 L 216.729980 33.335938 Z " fill="rgb(0, 0, 0)" fill-opacity="1.000000" />
<path d="M 216.892578 33.335938 L 216.892578 32.412109 L 223.729980 32.412109 L 223.729980 33.335938 Z " fill="rgb(0, 0, 0)" fill-opacity="1.000000" />
<path d="M 223.892578 33.335938 L 223.892578 32.412109 L 230.729980 32.412109 L 230.729980 33.335938 Z " fill="rgb(0, 0, 0)" fill-opacity="1.000000" />
<path d="M 230.892578 33.335938 L 230.892578 32.412109 L 237.729980 32.412109 L 237.729980 33.335938 Z " fill="rgb(0, 0, 0)" fill-opacity="1.000000" />
<path d="M 238.032227 36.418945 L 238.032227 29.866211 L 244.590332 33.142578 Z " fill="rgb(0, 0, 0)" fill-opacity="1.000000" />
<path d="M 292.645020 32.272461 L 292.645020 36.000000 L 291.651367 36.000000 L 291.651367 32.272461 Q 291.651367 31.461426 291.366699 31.080078 Q 291.082031 30.698730 290.475098 30.698730 Q 289.782227 30.698730 289.408936 31.190186 Q 289.035645 31.681641 289.035645 32.600098 L 289.035645 36.000000 L 288.047363 36.000000 L 288.047363 29.984375 L 289.035645 29.984375 L 289.035645 30.886719 Q 289.298828 30.371094 289.750000 30.105225 Q 290.201172 29.839355 290.818848 29.839355 Q 291.737305 29.839355 292.191162 30.443604 Q 292.645020 31.047852 292.645020 32.272461 Z " fill="rgb(0, 0, 0)" fill-opacity="1.000000" />
<path d="M 300.015625 32.498047 L 300.015625 32.981445 L 295.734863 32.981445 L 295.734863 33.013672 Q 295.691895 34.243652 296.204834 34.780762 Q 296.717773 35.317871 297.652344 35.317871 Q 298.125000 35.317871 298.640625 35.167480 Q 299.156250 35.017090 299.741699 34.710938 L 299.741699 35.693848 Q 299.177734 35.924805 298.654053 36.040283 Q 298.130371 36.155762 297.641602 36.155762 Q 296.239746 36.155762 295.450195 35.315186 Q 294.660645 34.474609 294.660645 32.997559 Q 294.660645 31.558105 295.434082 30.698730 Q 296.207520 29.839355 297.496582 29.839355 Q 298.645996 29.839355 299.309326 30.618164 Q 299.972656 31.396973 300.015625 32.498047 Z M 299.027344 32.208008 Q 298.962891 31.584961 298.573486 31.131104 Q 298.184082 30.677246 297.453613 30.677246 Q 296.739258 30.677246 296.277344 31.149902 Q 295.815430 31.622559 295.772461 32.213379 Z " fill="rgb(0, 0, 0)" fill-opacity="1.000000" />
<path d="M 304.297852 28.276367 L 304.297852 29.984375 L 306.542969 29.984375 L 306.542969 30.752441 L 304.297852 30.752441 L 304.297852 34.018066 Q 304.297852 34.684082 304.550293 34.947266 Q 304.802734 35.210449 305.431152 35.210449 L 306.542969 35.210449 L 306.542969 36.000000 L 305.334473 36.000000 Q 304.222656 36.000000 303.766113 35.554199 Q 303.309570 35.108398 303.309570 34.018066 L 303.309570 30.752441 L 301.703613 30.752441 L 301.703613 29.984375 L 303.309570 29.984375 L 303.309570 28.276367 Z " fill="rgb(0, 0, 0)" fill-opacity="1.000000" />
<path d="M 313.698730 35.693848 Q 313.301270 35.924805 312.879639 36.040283 Q 312.458008 36.155762 312.017578 36.155762 Q 310.621094 36.155762 309.834229 35.317871 Q 309.047363 34.479980 309.047363 32.997559 Q 309.047363 31.515137 309.834229 30.677246 Q 310.621094 29.839355 312.017578 29.839355 Q 312.452637 29.839355 312.866211 29.952148 Q 313.279785 30.064941 313.698730 30.301270 L 313.698730 31.337891 Q 313.306641 30.988770 312.911865 30.833008 Q 312.517090 30.677246 312.017578 30.677246 Q 311.088379 30.677246 310.588867 31.278809 Q 310.089355 31.880371 310.089355 32.997559 Q 310.089355 34.109375 310.591553 34.713623 Q 311.093750 35.317871 312.017578 35.317871 Q 312.533203 35.317871 312.941406 35.159424 Q 313.349609 35.000977 313.698730 34.667969 Z " fill="rgb(0, 0, 0)" fill-opacity="1.000000" />
<path d="M 318.770508 32.976074 L 318.442871 32.976074 Q 317.578125 32.976074 317.140381 33.279541 Q 316.702637 33.583008 316.702637 34.184570 Q 316.702637 34.727051 317.030273 35.027832 Q 317.357910 35.328613 317.937988 35.328613 Q 318.754395 35.328613 319.221680 34.761963 Q 319.688965 34.195312 319.694336 33.196289 L 319.694336 32.976074 Z M 320.687988 32.567871 L 320.687988 36.000000 L 319.694336 36.000000 L 319.694336 35.108398 Q 319.377441 35.645508 318.896729 35.900635 Q 318.416016 36.155762 317.728516 36.155762 Q 316.810059 36.155762 316.262207 35.637451 Q 315.714355 35.119141 315.714355 34.249023 Q 315.714355 33.244629 316.388428 32.723633 Q 317.062500 32.202637 318.367676 32.202637 L 319.694336 32.202637 L 319.694336 32.046875 Q 319.688965 31.327148 319.329102 31.002197 Q 318.969238 30.677246 318.179688 30.677246 Q 317.674805 30.677246 317.159180 30.822266 Q 316.643555 30.967285 316.154785 31.246582 L 316.154785 30.258301 Q 316.702637 30.048828 317.204834 29.944092 Q 317.707031 29.839355 318.179688 29.839355 Q 318.926270 29.839355 319.455322 30.059570 Q 319.984375 30.279785 320.312012 30.720215 Q 320.516113 30.988770 320.602051 31.383545 Q 320.687988 31.778320 320.687988 32.567871 Z " fill="rgb(0, 0, 0)" fill-opacity="1.000000" />
<path d="M 325.297852 28.276367 L 325.297852 29.984375 L 327.542969 29.984375 L 327.542969 30.752441 L 325.297852 30.752441 L 325.297852 34.018066 Q 325.297852 34.684082 325.550293 34.947266 Q 325.802734 35.210449 326.431152 35.210449 L 327.542969 35.210449 L 327.542969 36.000000 L 326.334473 36.000000 Q 325.222656 36.000000 324.766113 35.554199 Q 324.309570 35.108398 324.309570 34.018066 L 324.309570 30.752441 L 322.703613 30.752441 L 322.703613 29.984375 L 324.309570 29.984375 L 324.309570 28.276367 Z " fill="rgb(0, 0, 0)" fill-opacity="1.000000" />
<path d="M 380.449219 39.319336 L 380.449219 25.300781 L 382.167969 25.300781 L 382.167969 39.319336 Z " fill="rgb(0, 0, 0)" fill-opacity="1.000000" />
<path d="M 392.252441 27.980957 L 398.370117 27.980957 L 398.370117 28.894043 L 395.861816 28.894043 L 395.861816 36.000000 L 394.771484 36.000000 L 394.771484 28.894043 L 392.252441 28.894043 Z " fill="rgb(0, 0, 0)" fill-opacity="1.000000" />
<path d="M 404.763184 35.715332 Q 404.349609 35.935547 403.914551 36.045654 Q 403.479492 36.155762 402.990723 36.155762 Q 401.449219 36.155762 400.597900 35.065430 Q 399.746582 33.975098 399.746582 31.998535 Q 399.746582 30.032715 400.603271 28.934326 Q 401.459961 27.835938 402.990723 27.835938 Q 403.479492 27.835938 403.914551 27.946045 Q 404.349609 28.056152 404.763184 28.276367 L 404.763184 29.388184 Q 404.365723 29.060547 403.909180 28.888672 Q 403.452637 28.716797 402.990723 28.716797 Q 401.932617 28.716797 401.406250 29.533203 Q 400.879883 30.349609 400.879883 31.998535 Q 400.879883 33.642090 401.406250 34.458496 Q 401.932617 35.274902 402.990723 35.274902 Q 403.463379 35.274902 403.917236 35.103027 Q 404.371094 34.931152 404.763184 34.603516 Z " fill="rgb(0, 0, 0)" fill-opacity="1.000000" />
<path d="M 408.143066 28.872559 L 408.143066 31.885742 L 409.399902 31.885742 Q 410.151855 31.885742 410.573486 31.488281 Q 410.995117 31.090820 410.995117 30.376465 Q 410.995117 29.662109 410.576172 29.267334 Q 410.157227 28.872559 409.399902 28.872559 Z M 407.058105 27.980957 L 409.399902 27.980957 Q 410.742676 27.980957 411.435547 28.590576 Q 412.128418 29.200195 412.128418 30.376465 Q 412.128418 31.563477 411.438232 32.170410 Q 410.748047 32.777344 409.399902 32.777344 L 408.143066 32.777344 L 408.143066 36.000000 L 407.058105 36.000000 Z " fill="rgb(0, 0, 0)" fill-opacity="1.000000" />
<path d="M 424.082031 32.213379 Q 424.500977 32.320801 424.796387 32.618896 Q 425.091797 32.916992 425.532227 33.808594 L 426.622559 36.000000 L 425.457031 36.000000 L 424.500977 33.975098 Q 424.087402 33.110352 423.757080 32.860596 Q 423.426758 32.610840 422.895020 32.610840 L 421.858398 32.610840 L 421.858398 36.000000 L 420.768066 36.000000 L 420.768066 27.980957 L 423.002441 27.980957 Q 424.323730 27.980957 425.027344 28.577148 Q 425.730957 29.173340 425.730957 30.301270 Q 425.730957 31.096191 425.298584 31.598389 Q 424.866211 32.100586 424.082031 32.213379 Z M 421.858398 28.872559 L 421.858398 31.719238 L 423.045410 31.719238 Q 423.824219 31.719238 424.205566 31.370117 Q 424.586914 31.020996 424.586914 30.301270 Q 424.586914 29.608398 424.181396 29.240479 Q 423.775879 28.872559 423.002441 28.872559 Z " fill="rgb(0, 0, 0)" fill-opacity="1.000000" />
<path d="M 433.015625 32.498047 L 433.015625 32.981445 L 428.734863 32.981445 L 428.734863 33.013672 Q 428.691895 34.243652 429.204834 34.780762 Q 429.717773 35.317871 430.652344 35.317871 Q 431.125000 35.317871 431.640625 35.167480 Q 432.156250 35.017090 432.741699 34.710938 L 432.741699 35.693848 Q 432.177734 35.924805 431.654053 36.040283 Q 431.130371 36.155762 430.641602 36.155762 Q 429.239746 36.155762 428.450195 35.315186 Q 427.660645 34.474609 427.660645 32.997559 Q 427.660645 31.558105 428.434082 30.698730 Q 429.207520 29.839355 430.496582 29.839355 Q 431.645996 29.839355 432.309326 30.618164 Q 432.972656 31.396973 433.015625 32.498047 Z M 432.027344 32.208008 Q 431.962891 31.584961 431.573486 31.131104 Q 431.184082 30.677246 430.453613 30.677246 Q 429.739258 30.677246 429.277344 31.149902 Q 428.815430 31.622559 428.772461 32.213379 Z " fill="rgb(0, 0, 0)" fill-opacity="1.000000" />
<path d="M 435.783203 33.019043 Q 435.783203 34.168457 436.145752 34.753906 Q 436.508301 35.339355 437.222656 35.339355 Q 437.937012 35.339355 438.304932 34.751221 Q 438.672852 34.163086 438.672852 33.019043 Q 438.672852 31.875000 438.304932 31.286865 Q 437.937012 30.698730 437.222656 30.698730 Q 436.508301 30.698730 436.145752 31.284180 Q 435.783203 31.869629 435.783203 33.019043 Z M 438.672852 35.253418 Q 438.431152 35.699219 438.020264 35.938232 Q 437.609375 36.177246 437.066895 36.177246 Q 435.987305 36.177246 435.361572 35.342041 Q 434.735840 34.506836 434.735840 33.040527 Q 434.735840 31.547363 435.358887 30.704102 Q 435.981934 29.860840 437.066895 29.860840 Q 437.604004 29.860840 438.014893 30.094482 Q 438.425781 30.328125 438.672852 30.773926 L 438.672852 30.005859 L 439.666504 30.005859 L 439.666504 38.309570 L 438.672852 38.309570 Z " fill="rgb(0, 0, 0)" fill-opacity="1.000000" />
<path d="M 442.047363 33.722656 L 442.047363 29.995117 L 443.035645 29.995117 L 443.035645 33.722656 Q 443.035645 34.533691 443.322998 34.915039 Q 443.610352 35.296387 444.211914 35.296387 Q 444.910156 35.296387 445.280762 34.804932 Q 445.651367 34.313477 445.651367 33.395020 L 445.651367 29.995117 L 446.645020 29.995117 L 446.645020 36.000000 L 445.651367 36.000000 L 445.651367 35.097656 Q 445.388184 35.618652 444.934326 35.887207 Q 444.480469 36.155762 443.873535 36.155762 Q 442.949707 36.155762 442.498535 35.551514 Q 442.047363 34.947266 442.047363 33.722656 Z " fill="rgb(0, 0, 0)" fill-opacity="1.000000" />
<path d="M 454.015625 32.498047 L 454.015625 32.981445 L 449.734863 32.981445 L 449.734863 33.013672 Q 449.691895 34.243652 450.204834 34.780762 Q 450.717773 35.317871 451.652344 35.317871 Q 452.125000 35.317871 452.640625 35.167480 Q 453.156250 35.017090 453.741699 34.710938 L 453.741699 35.693848 Q 453.177734 35.924805 452.654053 36.040283 Q 452.130371 36.155762 451.641602 36.155762 Q 450.239746 36.155762 449.450195 35.315186 Q 448.660645 34.474609 448.660645 32.997559 Q 448.660645 31.558105 449.434082 30.698730 Q 450.207520 29.839355 451.496582 29.839355 Q 452.645996 29.839355 453.309326 30.618164 Q 453.972656 31.396973 454.015625 32.498047 Z M 453.027344 32.208008 Q 452.962891 31.584961 452.573486 31.131104 Q 452.184082 30.677246 451.453613 30.677246 Q 450.739258 30.677246 450.277344 31.149902 Q 449.815430 31.622559 449.772461 32.213379 Z " fill="rgb(0, 0, 0)" fill-opacity="1.000000" />
<path d="M 460.226074 30.193848 L 460.226074 31.160645 Q 459.801758 30.913574 459.372070 30.790039 Q 458.942383 30.666504 458.496582 30.666504 Q 457.825195 30.666504 457.494873 30.884033 Q 457.164551 31.101562 457.164551 31.547363 Q 457.164551 31.950195 457.411621 32.148926 Q 457.658691 32.347656 458.641602 32.535645 L 459.039062 32.610840 Q 459.774902 32.750488 460.153564 33.169434 Q 460.532227 33.588379 460.532227 34.259766 Q 460.532227 35.151367 459.898438 35.653564 Q 459.264648 36.155762 458.136719 36.155762 Q 457.690918 36.155762 457.202148 36.061768 Q 456.713379 35.967773 456.144043 35.779785 L 456.144043 34.759277 Q 456.697266 35.043945 457.202148 35.186279 Q 457.707031 35.328613 458.158203 35.328613 Q 458.813477 35.328613 459.173340 35.062744 Q 459.533203 34.796875 459.533203 34.318848 Q 459.533203 33.631348 458.217285 33.368164 L 458.174316 33.357422 L 457.803711 33.282227 Q 456.949707 33.115723 456.557617 32.720947 Q 456.165527 32.326172 456.165527 31.644043 Q 456.165527 30.779297 456.750977 30.309326 Q 457.336426 29.839355 458.421387 29.839355 Q 458.904785 29.839355 459.350586 29.927979 Q 459.796387 30.016602 460.226074 30.193848 Z " fill="rgb(0, 0, 0)" fill-opacity="1.000000" />
<path d="M 465.297852 28.276367 L 465.297852 29.984375 L 467.542969 29.984375 L 467.542969 30.752441 L 465.297852 30.752441 L 465.297852 34.018066 Q 465.297852 34.684082 465.550293 34.947266 Q 465.802734 35.210449 466.431152 35.210449 L 467.542969 35.210449 L 467.542969 36.000000 L 466.334473 36.000000 Q 465.222656 36.000000 464.766113 35.554199 Q 464.309570 35.108398 464.309570 34.018066 L 464.309570 30.752441 L 462.703613 30.752441 L 462.703613 29.984375 L 464.309570 29.984375 L 464.309570 28.276367 Z " fill="rgb(0, 0, 0)" fill-opacity="1.000000" />
<path d="M 33.645020 19.272461 L 33.645020 23.000000 L 32.651367 23.000000 L 32.651367 19.272461 Q 32.651367 18.461426 32.366699 18.080078 Q 32.082031 17.698730 31.475098 17.698730 Q 30.782227 17.698730 30.408936 18.190186 Q 30.035645 18.681641 30.035645 19.600098 L 30.035645 23.000000 L 29.047363 23.000000 L 29.047363 14.642578 L 30.035645 14.642578 L 30.035645 17.886719 Q 30.298828 17.371094 30.750000 17.105225 Q 31.201172 16.839355 31.818848 16.839355 Q 32.737305 16.839355 33.191162 17.443604 Q 33.645020 18.047852 33.645020 19.272461 Z " fill="rgb(0, 0, 0)" fill-opacity="1.000000" />
<path d="M 38.770508 19.976074 L 38.442871 19.976074 Q 37.578125 19.976074 37.140381 20.279541 Q 36.702637 20.583008 36.702637 21.184570 Q 36.702637 21.727051 37.030273 22.027832 Q 37.357910 22.328613 37.937988 22.328613 Q 38.754395 22.328613 39.221680 21.761963 Q 39.688965 21.195312 39.694336 20.196289 L 39.694336 19.976074 Z M 40.687988 19.567871 L 40.687988 23.000000 L 39.694336 23.000000 L 39.694336 22.108398 Q 39.377441 22.645508 38.896729 22.900635 Q 38.416016 23.155762 37.728516 23.155762 Q 36.810059 23.155762 36.262207 22.637451 Q 35.714355 22.119141 35.714355 21.249023 Q 35.714355 20.244629 36.388428 19.723633 Q 37.062500 19.202637 38.367676 19.202637 L 39.694336 19.202637 L 39.694336 19.046875 Q 39.688965 18.327148 39.329102 18.002197 Q 38.969238 17.677246 38.179688 17.677246 Q 37.674805 17.677246 37.159180 17.822266 Q 36.643555 17.967285 36.154785 18.246582 L 36.154785 17.258301 Q 36.702637 17.048828 37.204834 16.944092 Q 37.707031 16.839355 38.179688 16.839355 Q 38.926270 16.839355 39.455322 17.059570 Q 39.984375 17.279785 40.312012 17.720215 Q 40.516113 17.988770 40.602051 18.383545 Q 40.687988 18.778320 40.687988 19.567871 Z " fill="rgb(0, 0, 0)" fill-opacity="1.000000" />
<path d="M 44.014160 22.242676 L 44.014160 25.288086 L 43.020508 25.288086 L 43.020508 16.984375 L 44.014160 16.984375 L 44.014160 17.752441 Q 44.261230 17.306641 44.672119 17.072998 Q 45.083008 16.839355 45.620117 16.839355 Q 46.710449 16.839355 47.330811 17.682617 Q 47.951172 18.525879 47.951172 20.019043 Q 47.951172 21.485352 47.328125 22.320557 Q 46.705078 23.155762 45.620117 23.155762 Q 45.072266 23.155762 44.661377 22.922119 Q 44.250488 22.688477 44.014160 22.242676 Z M 46.914551 19.997559 Q 46.914551 18.848145 46.552002 18.262695 Q 46.189453 17.677246 45.475098 17.677246 Q 44.755371 17.677246 44.384766 18.265381 Q 44.014160 18.853516 44.014160 19.997559 Q 44.014160 21.136230 44.384766 21.727051 Q 44.755371 22.317871 45.475098 22.317871 Q 46.189453 22.317871 46.552002 21.732422 Q 46.914551 21.146973 46.914551 19.997559 Z " fill="rgb(0, 0, 0)" fill-opacity="1.000000" />
<path d="M 55.203613 18.225098 Q 54.886719 17.978027 54.559082 17.865234 Q 54.231445 17.752441 53.839355 17.752441 Q 52.915527 17.752441 52.426758 18.332520 Q 51.937988 18.912598 51.937988 20.008301 L 51.937988 23.000000 L 50.944336 23.000000 L 50.944336 16.984375 L 51.937988 16.984375 L 51.937988 18.160645 Q 52.185059 17.521484 52.697998 17.180420 Q 53.210938 16.839355 53.914551 16.839355 Q 54.279785 16.839355 54.596680 16.930664 Q 54.913574 17.021973 55.203613 17.215332 Z " fill="rgb(0, 0, 0)" fill-opacity="1.000000" />
<path d="M 59.308594 17.677246 Q 58.556641 17.677246 58.169922 18.262695 Q 57.783203 18.848145 57.783203 19.997559 Q 57.783203 21.141602 58.169922 21.729736 Q 58.556641 22.317871 59.308594 22.317871 Q 60.065918 22.317871 60.452637 21.729736 Q 60.839355 21.141602 60.839355 19.997559 Q 60.839355 18.848145 60.452637 18.262695 Q 60.065918 17.677246 59.308594 17.677246 Z M 59.308594 16.839355 Q 60.560059 16.839355 61.223389 17.650391 Q 61.886719 18.461426 61.886719 19.997559 Q 61.886719 21.539062 61.226074 22.347412 Q 60.565430 23.155762 59.308594 23.155762 Q 58.057129 23.155762 57.396484 22.347412 Q 56.735840 21.539062 56.735840 19.997559 Q 56.735840 18.461426 57.396484 17.650391 Q 58.057129 16.839355 59.308594 16.839355 Z " fill="rgb(0, 0, 0)" fill-opacity="1.000000" />
<path d="M 69.004883 16.984375 L 66.851074 19.863281 L 69.214355 23.000000 L 68.070312 23.000000 L 66.308594 20.588379 L 64.552246 23.000000 L 63.408203 23.000000 L 65.771484 19.863281 L 63.617676 16.984375 L 64.713379 16.984375 L 66.308594 19.159668 L 67.893066 16.984375 Z " fill="rgb(0, 0, 0)" fill-opacity="1.000000" />
<path d="M 74.608398 21.066406 Q 74.361328 21.694824 73.979980 22.720703 Q 73.448242 24.138672 73.265625 24.450195 Q 73.018555 24.869141 72.647949 25.078613 Q 72.277344 25.288086 71.783203 25.288086 L 70.988281 25.288086 L 70.988281 24.460938 L 71.573730 24.460938 Q 72.008789 24.460938 72.255859 24.208496 Q 72.502930 23.956055 72.884277 22.903320 L 70.558594 16.984375 L 71.605957 16.984375 L 73.389160 21.689453 L 75.145508 16.984375 L 76.192871 16.984375 Z " fill="rgb(0, 0, 0)" fill-opacity="1.000000" />
<path d="M 77.547852 19.111328 L 83.241211 19.111328 L 83.241211 20.019043 L 77.547852 20.019043 Z " fill="rgb(0, 0, 0)" fill-opacity="1.000000" />
<path d="M 90.015625 19.498047 L 90.015625 19.981445 L 85.734863 19.981445 L 85.734863 20.013672 Q 85.691895 21.243652 86.204834 21.780762 Q 86.717773 22.317871 87.652344 22.317871 Q 88.125000 22.317871 88.640625 22.167480 Q 89.156250 22.017090 89.741699 21.710938 L 89.741699 22.693848 Q 89.177734 22.924805 88.654053 23.040283 Q 88.130371 23.155762 87.641602 23.155762 Q 86.239746 23.155762 85.450195 22.315186 Q 84.660645 21.474609 84.660645 19.997559 Q 84.660645 18.558105 85.434082 17.698730 Q 86.207520 16.839355 87.496582 16.839355 Q 88.645996 16.839355 89.309326 17.618164 Q 89.972656 18.396973 90.015625 19.498047 Z M 89.027344 19.208008 Q 88.962891 18.584961 88.573486 18.131104 Q 88.184082 17.677246 87.453613 17.677246 Q 86.739258 17.677246 86.277344 18.149902 Q 85.815430 18.622559 85.772461 19.213379 Z " fill="rgb(0, 0, 0)" fill-opacity="1.000000" />
<path d="M 95.608398 17.752441 L 95.608398 14.642578 L 96.596680 14.642578 L 96.596680 23.000000 L 95.608398 23.000000 L 95.608398 22.242676 Q 95.361328 22.688477 94.950439 22.922119 Q 94.539551 23.155762 94.002441 23.155762 Q 92.912109 23.155762 92.286377 22.309814 Q 91.660645 21.463867 91.660645 19.976074 Q 91.660645 18.509766 92.289062 17.674561 Q 92.917480 16.839355 94.002441 16.839355 Q 94.544922 16.839355 94.958496 17.072998 Q 95.372070 17.306641 95.608398 17.752441 Z M 92.702637 19.997559 Q 92.702637 21.146973 93.067871 21.732422 Q 93.433105 22.317871 94.147461 22.317871 Q 94.861816 22.317871 95.235107 21.727051 Q 95.608398 21.136230 95.608398 19.997559 Q 95.608398 18.853516 95.235107 18.265381 Q 94.861816 17.677246 94.147461 17.677246 Q 93.433105 17.677246 93.067871 18.262695 Q 92.702637 18.848145 92.702637 19.997559 Z " fill="rgb(0, 0, 0)" fill-opacity="1.000000" />
<path d="M 102.608398 19.943848 Q 102.608398 18.832031 102.245850 18.254639 Q 101.883301 17.677246 101.190430 17.677246 Q 100.465332 17.677246 100.083984 18.254639 Q 99.702637 18.832031 99.702637 19.943848 Q 99.702637 21.055664 100.086670 21.638428 Q 100.470703 22.221191 101.201172 22.221191 Q 101.883301 22.221191 102.245850 21.635742 Q 102.608398 21.050293 102.608398 19.943848 Z M 103.596680 22.613281 Q 103.596680 23.966797 102.957520 24.665039 Q 102.318359 25.363281 101.077637 25.363281 Q 100.669434 25.363281 100.223633 25.288086 Q 99.777832 25.212891 99.332031 25.067871 L 99.332031 24.090332 Q 99.858398 24.337402 100.288086 24.455566 Q 100.717773 24.573730 101.077637 24.573730 Q 101.877930 24.573730 102.243164 24.138672 Q 102.608398 23.703613 102.608398 22.758301 L 102.608398 22.715332 L 102.608398 22.043945 Q 102.372070 22.548828 101.963867 22.795898 Q 101.555664 23.042969 100.970215 23.042969 Q 99.917480 23.042969 99.289062 22.199707 Q 98.660645 21.356445 98.660645 19.943848 Q 98.660645 18.525879 99.289062 17.682617 Q 99.917480 16.839355 100.970215 16.839355 Q 101.550293 16.839355 101.953125 17.070312 Q 102.355957 17.301270 102.608398 17.784668 L 102.608398 17.005859 L 103.596680 17.005859 Z " fill="rgb(0, 0, 0)" fill-opacity="1.000000" />
<path d="M 111.015625 19.498047 L 111.015625 19.981445 L 106.734863 19.981445 L 106.734863 20.013672 Q 106.691895 21.243652 107.204834 21.780762 Q 107.717773 22.317871 108.652344 22.317871 Q 109.125000 22.317871 109.640625 22.167480 Q 110.156250 22.017090 110.741699 21.710938 L 110.741699 22.693848 Q 110.177734 22.924805 109.654053 23.040283 Q 109.130371 23.155762 108.641602 23.155762 Q 107.239746 23.155762 106.450195 22.315186 Q 105.660645 21.474609 105.660645 19.997559 Q 105.660645 18.558105 106.434082 17.698730 Q 107.207520 16.839355 108.496582 16.839355 Q 109.645996 16.839355 110.309326 17.618164 Q 110.972656 18.396973 111.015625 19.498047 Z M 110.027344 19.208008 Q 109.962891 18.584961 109.573486 18.131104 Q 109.184082 17.677246 108.453613 17.677246 Q 107.739258 17.677246 107.277344 18.149902 Q 106.815430 18.622559 106.772461 19.213379 Z " fill="rgb(0, 0, 0)" fill-opacity="1.000000" />
<path d="M 135.449219 26.319336 L 135.449219 12.300781 L 137.167969 12.300781 L 137.167969 26.319336 Z " fill="rgb(0, 0, 0)" fill-opacity="1.000000" />
<path d="M 240.449219 26.319336 L 240.449219 12.300781 L 242.167969 12.300781 L 242.167969 26.319336 Z " fill="rgb(0, 0, 0)" fill-opacity="1.000000" />
<path d="M 380.449219 26.319336 L 380.449219 12.300781 L 382.167969 12.300781 L 382.167969 26.319336 Z " fill="rgb(0, 0, 0)" fill-opacity="1.000000" />
<path d="M 387.143066 15.872559 L 387.143066 18.885742 L 388.399902 18.885742 Q 389.151855 18.885742 389.573486 18.488281 Q 389.995117 18.090820 389.995117 17.376465 Q 389.995117 16.662109 389.576172 16.267334 Q 389.157227 15.872559 388.399902 15.872559 Z M 386.058105 14.980957 L 388.399902 14.980957 Q 389.742676 14.980957 390.435547 15.590576 Q 391.128418 16.200195 391.128418 17.376465 Q 391.128418 18.563477 390.438232 19.170410 Q 389.748047 19.777344 388.399902 19.777344 L 387.143066 19.777344 L 387.143066 23.000000 L 386.058105 23.000000 Z " fill="rgb(0, 0, 0)" fill-opacity="1.000000" />
<path d="M 398.203613 18.225098 Q 397.886719 17.978027 397.559082 17.865234 Q 397.231445 17.752441 396.839355 17.752441 Q 395.915527 17.752441 395.426758 18.332520 Q 394.937988 18.912598 394.937988 20.008301 L 394.937988 23.000000 L 393.944336 23.000000 L 393.944336 16.984375 L 394.937988 16.984375 L 394.937988 18.160645 Q 395.185059 17.521484 395.697998 17.180420 Q 396.210938 16.839355 396.914551 16.839355 Q 397.279785 16.839355 397.596680 16.930664 Q 397.913574 17.021973 398.203613 17.215332 Z " fill="rgb(0, 0, 0)" fill-opacity="1.000000" />
<path d="M 400.697266 17.005859 L 403.227051 17.005859 L 403.227051 22.231934 L 405.187500 22.231934 L 405.187500 23.000000 L 400.278320 23.000000 L 400.278320 22.231934 L 402.238770 22.231934 L 402.238770 17.773926 L 400.697266 17.773926 Z M 402.238770 14.669434 L 403.227051 14.669434 L 403.227051 15.915527 L 402.238770 15.915527 Z " fill="rgb(0, 0, 0)" fill-opacity="1.000000" />
<path d="M 411.645020 19.272461 L 411.645020 23.000000 L 410.651367 23.000000 L 410.651367 19.272461 Q 410.651367 18.461426 410.366699 18.080078 Q 410.082031 17.698730 409.475098 17.698730 Q 408.782227 17.698730 408.408936 18.190186 Q 408.035645 18.681641 408.035645 19.600098 L 408.035645 23.000000 L 407.047363 23.000000 L 407.047363 16.984375 L 408.035645 16.984375 L 408.035645 17.886719 Q 408.298828 17.371094 408.750000 17.105225 Q 409.201172 16.839355 409.818848 16.839355 Q 410.737305 16.839355 411.191162 17.443604 Q 411.645020 18.047852 411.645020 19.272461 Z " fill="rgb(0, 0, 0)" fill-opacity="1.000000" />
<path d="M 416.297852 15.276367 L 416.297852 16.984375 L 418.542969 16.984375 L 418.542969 17.752441 L 416.297852 17.752441 L 416.297852 21.018066 Q 416.297852 21.684082 416.550293 21.947266 Q 416.802734 22.210449 417.431152 22.210449 L 418.542969 22.210449 L 418.542969 23.000000 L 417.334473 23.000000 Q 416.222656 23.000000 415.766113 22.554199 Q 415.309570 22.108398 415.309570 21.018066 L 415.309570 17.752441 L 413.703613 17.752441 L 413.703613 16.984375 L 415.309570 16.984375 L 415.309570 15.276367 Z " fill="rgb(0, 0, 0)" fill-opacity="1.000000" />
<path d="M 428.697266 17.005859 L 431.227051 17.005859 L 431.227051 22.231934 L 433.187500 22.231934 L 433.187500 23.000000 L 428.278320 23.000000 L 428.278320 22.231934 L 430.238770 22.231934 L 430.238770 17.773926 L 428.697266 17.773926 Z M 430.238770 14.669434 L 431.227051 14.669434 L 431.227051 15.915527 L 430.238770 15.915527 Z " fill="rgb(0, 0, 0)" fill-opacity="1.000000" />
<path d="M 439.645020 19.272461 L 439.645020 23.000000 L 438.651367 23.000000 L 438.651367 19.272461 Q 438.651367 18.461426 438.366699 18.080078 Q 438.082031 17.698730 437.475098 17.698730 Q 436.782227 17.698730 436.408936 18.190186 Q 436.035645 18.681641 436.035645 19.600098 L 436.035645 23.000000 L 435.047363 23.000000 L 435.047363 16.984375 L 436.035645 16.984375 L 436.035645 17.886719 Q 436.298828 17.371094 436.750000 17.105225 Q 437.201172 16.839355 437.818848 16.839355 Q 438.737305 16.839355 439.191162 17.443604 Q 439.645020 18.047852 439.645020 19.272461 Z " fill="rgb(0, 0, 0)" fill-opacity="1.000000" />
<path d="M 446.698730 22.693848 Q 446.301270 22.924805 445.879639 23.040283 Q 445.458008 23.155762 445.017578 23.155762 Q 443.621094 23.155762 442.834229 22.317871 Q 442.047363 21.479980 442.047363 19.997559 Q 442.047363 18.515137 442.834229 17.677246 Q 443.621094 16.839355 445.017578 16.839355 Q 445.452637 16.839355 445.866211 16.952148 Q 446.279785 17.064941 446.698730 17.301270 L 446.698730 18.337891 Q 446.306641 17.988770 445.911865 17.833008 Q 445.517090 17.677246 445.017578 17.677246 Q 444.088379 17.677246 443.588867 18.278809 Q 443.089355 18.880371 443.089355 19.997559 Q 443.089355 21.109375 443.591553 21.713623 Q 444.093750 22.317871 445.017578 22.317871 Q 445.533203 22.317871 445.941406 22.159424 Q 446.349609 22.000977 446.698730 21.667969 Z " fill="rgb(0, 0, 0)" fill-opacity="1.000000" />
<path d="M 451.308594 17.677246 Q 450.556641 17.677246 450.169922 18.262695 Q 449.783203 18.848145 449.783203 19.997559 Q 449.783203 21.141602 450.169922 21.729736 Q 450.556641 22.317871 451.308594 22.317871 Q 452.065918 22.317871 452.452637 21.729736 Q 452.839355 21.141602 452.839355 19.997559 Q 452.839355 18.848145 452.452637 18.262695 Q 452.065918 17.677246 451.308594 17.677246 Z M 451.308594 16.839355 Q 452.560059 16.839355 453.223389 17.650391 Q 453.886719 18.461426 453.886719 19.997559 Q 453.886719 21.539062 453.226074 22.347412 Q 452.565430 23.155762 451.308594 23.155762 Q 450.057129 23.155762 449.396484 22.347412 Q 448.735840 21.539062 448.735840 19.997559 Q 448.735840 18.461426 449.396484 17.650391 Q 450.057129 16.839355 451.308594 16.839355 Z " fill="rgb(0, 0, 0)" fill-opacity="1.000000" />
<path d="M 458.630859 17.596680 Q 458.813477 17.209961 459.095459 17.024658 Q 459.377441 16.839355 459.774902 16.839355 Q 460.500000 16.839355 460.798096 17.400635 Q 461.096191 17.961914 461.096191 19.514160 L 461.096191 23.000000 L 460.193848 23.000000 L 460.193848 19.557129 Q 460.193848 18.284180 460.051514 17.975342 Q 459.909180 17.666504 459.533203 17.666504 Q 459.103516 17.666504 458.945068 17.996826 Q 458.786621 18.327148 458.786621 19.557129 L 458.786621 23.000000 L 457.884277 23.000000 L 457.884277 19.557129 Q 457.884277 18.268066 457.731201 17.967285 Q 457.578125 17.666504 457.180664 17.666504 Q 456.788574 17.666504 456.635498 17.996826 Q 456.482422 18.327148 456.482422 19.557129 L 456.482422 23.000000 L 455.585449 23.000000 L 455.585449 16.984375 L 456.482422 16.984375 L 456.482422 17.500000 Q 456.659668 17.177734 456.925537 17.008545 Q 457.191406 16.839355 457.529785 16.839355 Q 457.937988 16.839355 458.209229 17.027344 Q 458.480469 17.215332 458.630859 17.596680 Z " fill="rgb(0, 0, 0)" fill-opacity="1.000000" />
<path d="M 463.697266 17.005859 L 466.227051 17.005859 L 466.227051 22.231934 L 468.187500 22.231934 L 468.187500 23.000000 L 463.278320 23.000000 L 463.278320 22.231934 L 465.238770 22.231934 L 465.238770 17.773926 L 463.697266 17.773926 Z M 465.238770 14.669434 L 466.227051 14.669434 L 466.227051 15.915527 L 465.238770 15.915527 Z " fill="rgb(0, 0, 0)" fill-opacity="1.000000" />
<path d="M 474.645020 19.272461 L 474.645020 23.000000 L 473.651367 23.000000 L 473.651367 19.272461 Q 473.651367 18.461426 473.366699 18.080078 Q 473.082031 17.698730 472.475098 17.698730 Q 471.782227 17.698730 471.408936 18.190186 Q 471.035645 18.681641 471.035645 19.600098 L 471.035645 23.000000 L 470.047363 23.000000 L 470.047363 16.984375 L 471.035645 16.984375 L 471.035645 17.886719 Q 471.298828 17.371094 471.750000 17.105225 Q 472.201172 16.839355 472.818848 16.839355 Q 473.737305 16.839355 474.191162 17.443604 Q 474.645020 18.047852 474.645020 19.272461 Z " fill="rgb(0, 0, 0)" fill-opacity="1.000000" />
<path d="M 480.608398 19.943848 Q 480.608398 18.832031 480.245850 18.254639 Q 479.883301 17.677246 479.190430 17.677246 Q 478.465332 17.677246 478.083984 18.254639 Q 477.702637 18.832031 477.702637 19.943848 Q 477.702637 21.055664 478.086670 21.638428 Q 478.470703 22.221191 479.201172 22.221191 Q 479.883301 22.221191 480.245850 21.635742 Q 480.608398 21.050293 480.608398 19.943848 Z M 481.596680 22.613281 Q 481.596680 23.966797 480.957520 24.665039 Q 480.318359 25.363281 479.077637 25.363281 Q 478.669434 25.363281 478.223633 25.288086 Q 477.777832 25.212891 477.332031 25.067871 L 477.332031 24.090332 Q 477.858398 24.337402 478.288086 24.455566 Q 478.717773 24.573730 479.077637 24.573730 Q 479.877930 24.573730 480.243164 24.138672 Q 480.608398 23.703613 480.608398 22.758301 L 480.608398 22.715332 L 480.608398 22.043945 Q 480.372070 22.548828 479.963867 22.795898 Q 479.555664 23.042969 478.970215 23.042969 Q 477.917480 23.042969 477.289062 22.199707 Q 476.660645 21.356445 476.660645 19.943848 Q 476.660645 18.525879 477.289062 17.682617 Q 477.917480 16.839355 478.970215 16.839355 Q 479.550293 16.839355 479.953125 17.070312 Q 480.355957 17.301270 480.608398 17.784668 L 480.608398 17.005859 L 481.596680 17.005859 Z " fill="rgb(0, 0, 0)" fill-opacity="1.000000" />
<path d="M 6.892578 7.797852 L 6.892578 5.950195 L 13.729980 5.950195 L 13.729980 7.797852 Z " fill="rgb(0, 0, 0)" fill-opacity="1.000000" />
<path d="M 13.892578 7.797852 L 13.892578 5.950195 L 20.729980 5.950195 L 20.729980 7.797852 Z " fill="rgb(0, 0, 0)" fill-opacity="1.000000" />
<path d="M 20.892578 7.797852 L 20.892578 5.950195 L 27.729980 5.950195 L 27.729980 7.797852 Z " fill="rgb(0, 0, 0)" fill-opacity="1.000000" />
<path d="M 27.892578 7.797852 L 27.892578 5.950195 L 34.729980 5.950195 L 34.729980 7.797852 Z " fill="rgb(0, 0, 0)" fill-opacity="1.000000" />
<path d="M 34.892578 7.797852 L 34.892578 5.950195 L 41.729980 5.950195 L 41.729980 7.797852 Z " fill="rgb(0, 0, 0)" fill-opacity="1.000000" />
<path d="M 41.892578 7.797852 L 41.892578 5.950195 L 48.729980 5.950195 L 48.729980 7.797852 Z " fill="rgb(0, 0, 0)" fill-opacity="1.000000" />
<path d="M 48.892578 7.797852 L 48.892578 5.950195 L 55.729980 5.950195 L 55.729980 7.797852 Z " fill="rgb(0, 0, 0)" fill-opacity="1.000000" />
<path d="M 55.892578 7.797852 L 55.892578 5.950195 L 62.729980 5.950195 L 62.729980 7.797852 Z " fill="rgb(0, 0, 0)" fill-opacity="1.000000" />
<path d="M 62.892578 7.797852 L 62.892578 5.950195 L 69.729980 5.950195 L 69.729980 7.797852 Z " fill="rgb(0, 0, 0)" fill-opacity="1.000000" />
<path d="M 69.892578 7.797852 L 69.892578 5.950195 L 76.729980 5.950195 L 76.729980 7.797852 Z " fill="rgb(0, 0, 0)" fill-opacity="1.000000" />
<path d="M 76.892578 7.797852 L 76.892578 5.950195 L 83.729980 5.950195 L 83.729980 7.797852 Z " fill="rgb(0, 0, 0)" fill-opacity="1.000000" />
<path d="M 83.892578 7.797852 L 83.892578 5.950195 L 90.729980 5.950195 L 90.729980 7.797852 Z " fill="rgb(0, 0, 0)" fill-opacity="1.000000" />
<path d="M 90.892578 7.797852 L 90.892578 5.950195 L 97.729980 5.950195 L 97.729980 7.797852 Z " fill="rgb(0, 0, 0)" fill-opacity="1.000000" />
<path d="M 97.892578 7.797852 L 97.892578 5.950195 L 104.729980 5.950195 L 104.729980 7.797852 Z " fill="rgb(0, 0, 0)" fill-opacity="1.000000" />
<path d="M 104.892578 7.797852 L 104.892578 5.950195 L 111.729980 5.950195 L 111.729980 7.797852 Z " fill="rgb(0, 0, 0)" fill-opacity="1.000000" />
<path d="M 111.892578 7.797852 L 111.892578 5.950195 L 118.729980 5.950195 L 118.729980 7.797852 Z " fill="rgb(0, 0, 0)" fill-opacity="1.000000" />
<path d="M 118.892578 7.797852 L 118.892578 5.950195 L 125.729980 5.950195 L 125.729980 7.797852 Z " fill="rgb(0, 0, 0)" fill-opacity="1.000000" />
<path d="M 125.892578 7.797852 L 125.892578 5.950195 L 132.729980 5.950195 L 132.729980 7.797852 Z " fill="rgb(0, 0, 0)" fill-opacity="1.000000" />
<path d="M 135.449219 13.319336 L 135.449219 7.797852 L 132.892578 7.797852 L 132.892578 5.950195 L 137.167969 5.950195 L 137.167969 13.319336 Z " fill="rgb(0, 0, 0)" fill-opacity="1.000000" />
<path d="M 240.449219 13.319336 L 240.449219 5.950195 L 244.729980 5.950195 L 244.729980 7.797852 L 242.167969 7.797852 L 242.167969 13.319336 Z " fill="rgb(0, 0, 0)" fill-opacity="1.000000" />
<path d="M 244.892578 7.797852 L 244.892578 5.950195 L 251.729980 5.950195 L 251.729980 7.797852 Z " fill="rgb(0, 0, 0)" fill-opacity="1.000000" />
<path d="M 251.892578 7.797852 L 251.892578 5.950195 L 258.729980 5.950195 L 258.729980 7.797852 Z " fill="rgb(0, 0, 0)" fill-opacity="1.000000" />
<path d="M 258.892578 7.797852 L 258.892578 5.950195 L 265.729980 5.950195 L 265.729980 7.797852 Z " fill="rgb(0, 0, 0)" fill-opacity="1.000000" />
<path d="M 265.892578 7.797852 L 265.892578 5.950195 L 272.729980 5.950195 L 272.729980 7.797852 Z " fill="rgb(0, 0, 0)" fill-opacity="1.000000" />
<path d="M 272.892578 7.797852 L 272.892578 5.950195 L 279.729980 5.950195 L 279.729980 7.797852 Z " fill="rgb(0, 0, 0)" fill-opacity="1.000000" />
<path d="M 279.892578 7.797852 L 279.892578 5.950195 L 286.729980 5.950195 L 286.729980 7.797852 Z " fill="rgb(0, 0, 0)" fill-opacity="1.000000" />
<path d="M 286.892578 7.797852 L 286.892578 5.950195 L 293.729980 5.950195 L 293.729980 7.797852 Z " fill="rgb(0, 0, 0)" fill-opacity="1.000000" />
<path d="M 293.892578 7.797852 L 293.892578 5.950195 L 300.729980 5.950195 L 300.729980 7.797852 Z " fill="rgb(0, 0, 0)" fill-opacity="1.000000" />
<path d="M 300.892578 7.797852 L 300.892578 5.950195 L 307.729980 5.950195 L 307.729980 7.797852 Z " fill="rgb(0, 0, 0)" fill-opacity="1.000000" />
<path d="M 307.892578 7.797852 L 307.892578 5.950195 L 314.729980 5.950195 L 314.729980 7.797852 Z " fill="rgb(0, 0, 0)" fill-opacity="1.000000" />
<path d="M 314.892578 7.797852 L 314.892578 5.950195 L 321.729980 5.950195 L 321.729980 7.797852 Z " fill="rgb(0, 0, 0)" fill-opacity="1.000000" />
<path d="M 321.892578 7.797852 L 321.892578 5.950195 L 328.729980 5.950195 L 328.729980 7.797852 Z " fill="rgb(0, 0, 0)" fill-opacity="1.000000" />
<path d="M 328.892578 7.797852 L 328.892578 5.950195 L 335.729980 5.950195 L 335.729980 7.797852 Z " fill="rgb(0, 0, 0)" fill-opacity="1.000000" />
<path d="M 335.892578 7.797852 L 335.892578 5.950195 L 342.729980 5.950195 L 342.729980 7.797852 Z " fill="rgb(0, 0, 0)" fill-opacity="1.000000" />
<path d="M 342.892578 7.797852 L 342.892578 5.950195 L 349.729980 5.950195 L 349.729980 7.797852 Z " fill="rgb(0, 0, 0)" fill-opacity="1.000000" />
<path d="M 349.892578 7.797852 L 349.892578 5.950195 L 356.729980 5.950195 L 356.729980 7.797852 Z " fill="rgb(0, 0, 0)" fill-opacity="1.000000" />
<path d="M 356.892578 7.797852 L 356.892578 5.950195 L 363.729980 5.950195 L 363.729980 7.797852 Z " fill="rgb(0, 0, 0)" fill-opacity="1.000000" />
<path d="M 363.892578 7.797852 L 363.892578 5.950195 L 370.729980 5.950195 L 370.729980 7.797852 Z " fill="rgb(0, 0, 0)" fill-opacity="1.000000" />
<path d="M 370.892578 7.797852 L 370.892578 5.950195 L 377.729980 5.950195 L 377.729980 7.797852 Z " fill="rgb(0, 0, 0)" fill-opacity="1.000000" />
<path d="M 380.449219 13.319336 L 380.449219 7.797852 L 377.892578 7.797852 L 377.892578 5.950195 L 382.167969 5.950195 L 382.167969 13.319336 Z " fill="rgb(0, 0, 0)" fill-opacity="1.000000" />
</svg>