<svg xmlns="http://www.w3.org/2000/svg" version="1.1" width="519" height="66">
<path d="M 2.449219 13.319336 L 2.449219 5.950195 L 6.729980 5.950195 L 6.729980 7.797852 L 4.167969 7.797852 L 4.167969 13.319336 Z " fill="rgb(0, 0, 0)" fill-opacity="1.000000" />
<path d="M 2.449219 26.319336 L 2.449219 12.300781 L 4.167969 12.300781 L 4.167969 26.319336 Z " fill="rgb(0, 0, 0)" fill-opacity="1.000000" />
<path d="M 2.449219 39.319336 L 2.449219 25.300781 L 4.167969 25.300781 L 4.167969 39.319336 Z " fill="rgb(0, 0, 0)" fill-opacity="1.000000" />
<path d="M 2.449219 52.319336 L 2.449219 38.300781 L 4.167969 38.300781 L 4.167969 52.319336 Z " fill="rgb(0, 0, 0)" fill-opacity="1.000000" />
<path d="M 2.449219 59.797852 L 2.449219 51.300781 L 4.167969 51.300781 L 4.167969 57.950195 L 6.729980 57.950195 L 6.729980 59.797852 Z " fill="rgb(0, 0, 0)" fill-opacity="1.000000" />
<path d="M 6.892578 59.797852 L 6.892578 57.950195 L 13.729980 57.950195 L 13.729980 59.797852 Z " fill="rgb(0, 0, 0)" fill-opacity="1.000000" />
<path d="M 13.892578 59.797852 L 13.892578 57.950195 L 20.729980 57.950195 L 20.729980 59.797852 Z " fill="rgb(0, 0, 0)" fill-opacity="1.000000" />
<path d="M 20.892578 59.797852 L 20.892578 57.950195 L 27.729980 57.950195 L 27.729980 59.797852 Z " fill="rgb(0, 0, 0)" fill-opacity="1.000000" />
<path d="M 27.892578 59.797852 L 27.892578 57.950195 L 34.729980 57.950195 L 34.729980 59.797852 Z " fill="rgb(0, 0, 0)" fill-opacity="1.000000" />
<path d="M 34.892578 59.797852 L 34.892578 57.950195 L 41.729980 57.950195 L 41.729980 59.797852 Z " fill="rgb(0, 0, 0)" fill-opacity="1.000000" />
<path d="M 41.892578 59.797852 L 41.892578 57.950195 L 48.729980 57.950195 L 48.729980 59.797852 Z " fill="rgb(0, 0, 0)" fill-opacity="1.000000" />
<path d="M 48.892578 59.797852 L 48.892578 57.950195 L 55.729980 57.950195 L 55.729980 59.797852 Z " fill="rgb(0, 0, 0)" fill-opacity="1.000000" />
<path d="M 55.892578 59.797852 L 55.892578 57.950195 L 62.729980 57.950195 L 62.729980 59.797852 Z " fill="rgb(0, 0, 0)" fill-opacity="1.000000" />
<path d="M 62.892578 59.797852 L 62.892578 57.950195 L 69.729980 57.950195 L 69.729980 59.797852 Z " fill="rgb(0, 0, 0)" fill-opacity="1.000000" />
<path d="M 69.892578 59.797852 L 69.892578 57.950195 L 76.729980 57.950195 L 76.729980 59.797852 Z " fill="rgb(0, 0, 0)" fill-opacity="1.000000" />
<path d="M 76.892578 59.797852 L 76.892578 57.950195 L 83.729980 57.950195 L 83.729980 59.797852 Z " fill="rgb(0, 0, 0)" fill-opacity="1.000000" />
<path d="M 83.892578 59.797852 L 83.892578 57.950195 L 90.729980 57.950195 L 90.729980 59.797852 Z " fill="rgb(0, 0, 0)" fill-opacity="1.000000" />
<path d="M 90.892578 59.797852 L 90.892578 57.950195 L 97.729980 57.950195 L 97.729980 59.797852 Z " fill="rgb(0, 0, 0)" fill-opacity="1.000000" />
<path d="M 97.892578 59.797852 L 97.892578 57.950195 L 104.729980 57.950195 L 104.729980 59.797852 Z " fill="rgb(0, 0, 0)" fill-opacity="1.000000" />
<path d="M 104.892578 59.797852 L 104.892578 57.950195 L 111.729980 57.950195 L 111.729980 59.797852 Z " fill="rgb(0, 0, 0)" fill-opacity="1.000000" />
<path d="M 111.892578 59.797852 L 111.892578 57.950195 L 118.729980 57.950195 L 118.729980 59.797852 Z " fill="rgb(0, 0, 0)" fill-opacity="1.000000" />
<path d="M 118.892578 59.797852 L 118.892578 57.950195 L 125.729980 57.950195 L 125.729980 59.797852 Z " fill="rgb(0, 0, 0)" fill-opacity="1.000000" />
<path d="M 125.892578 59.797852 L 125.892578 57.950195 L 132.729980 57.950195 L 132.729980 59.797852 Z " fill="rgb(0, 0, 0)" fill-opacity="1.000000" />
<path d="M 132.892578 59.797852 L 132.892578 57.950195 L 135.449219 57.950195 L 135.449219 51.300781 L 137.167969 51.300781 L 137.167969 59.797852 Z " fill="rgb(0, 0, 0)" fill-opacity="1.000000" />
<path d="M 275.449219 59.797852 L 275.449219 51.300781 L 277.167969 51.300781 L 277.167969 57.950195 L 279.729980 57.950195 L 279.729980 59.797852 Z " fill="rgb(0, 0, 0)" fill-opacity="1.000000" />
<path d="M 279.892578 59.797852 L 279.892578 57.950195 L 286.729980 57.950195 L 286.729980 59.797852 Z " fill="rgb(0, 0, 0)" fill-opacity="1.000000" />
<path d="M 286.892578 59.797852 L 286.892578 57.950195 L 293.729980 57.950195 L 293.729980 59.797852 Z " fill="rgb(0, 0, 0)" fill-opacity="1.000000" />
<path d="M 293.892578 59.797852 L 293.892578 57.950195 L 300.729980 57.950195 L 300.729980 59.797852 Z " fill="rgb(0, 0, 0)" fill-opacity="1.000000" />
<path d="M 300.892578 59.797852 L 300.892578 57.950195 L 307.729980 57.950195 L 307.729980 59.797852 Z " fill="rgb(0, 0, 0)" fill-opacity="1.000000" />
<path d="M 307.892578 59.797852 L 307.892578 57.950195 L 314.729980 57.950195 L 314.729980 59.797852 Z " fill="rgb(0, 0, 0)" fill-opacity="1.000000" />
<path d="M 314.892578 59.797852 L 314.892578 57.950195 L 321.729980 57.950195 L 321.729980 59.797852 Z " fill="rgb(0, 0, 0)" fill-opacity="1.000000" />
<path d="M 321.892578 59.797852 L 321.892578 57.950195 L 328.729980 57.950195 L 328.729980 59.797852 Z " fill="rgb(0, 0, 0)" fill-opacity="1.000000" />
<path d="M 328.892578 59.797852 L 328.892578 57.950195 L 335.729980 57.950195 L 335.729980 59.797852 Z " fill="rgb(0, 0, 0)" fill-opacity="1.000000" />
<path d="M 335.892578 59.797852 L 335.892578 57.950195 L 342.729980 57.950195 L 342.729980 59.797852 Z " fill="rgb(0, 0, 0)" fill-opacity="1.000000" />
<path d="M 342.892578 59.797852 L 342.892578 57.950195 L 349.729980 57.950195 L 349.729980 59.797852 Z " fill="rgb(0, 0, 0)" fill-opacity="1.000000" />
<path d="M 349.892578 59.797852 L 349.892578 57.950195 L 356.729980 57.950195 L 356.729980 59.797852 Z " fill="rgb(0, 0, 0)" fill-opacity="1.000000" />
<path d="M 356.892578 59.797852 L 356.892578 57.950195 L 363.729980 57.950195 L 363.729980 59.797852 Z " fill="rgb(0, 0, 0)" fill-opacity="1.000000" />
<path d="M 363.892578 59.797852 L 363.892578 57.950195 L 370.729980 57.950195 L 370.729980 59.797852 Z " fill="rgb(0, 0, 0)" fill-opacity="1.000000" />
<path d="M 370.892578 59.797852 L 370.892578 57.950195 L 377.729980 57.950195 L 377.729980 59.797852 Z " fill="rgb(0, 0, 0)" fill-opacity="1.000000" />
<path d="M 377.892578 59.797852 L 377.892578 57.950195 L 384.729980 57.950195 L 384.729980 59.797852 Z " fill="rgb(0, 0, 0)" fill-opacity="1.000000" />
<path d="M 384.892578 59.797852 L 384.892578 57.950195 L 391.729980 57.950195 L 391.729980 59.797852 Z " fill="rgb(0, 0, 0)" fill-opacity="1.000000" />
<path d="M 391.892578 59.797852 L 391.892578 57.950195 L 398.729980 57.950195 L 398.729980 59.797852 Z " fill="rgb(0, 0, 0)" fill-opacity="1.000000" />
<path d="M 398.892578 59.797852 L 398.892578 57.950195 L 405.729980 57.950195 L 405.729980 59.797852 Z " fill="rgb(0, 0, 0)" fill-opacity="1.000000" />
<path d="M 405.892578 59.797852 L 405.892578 57.950195 L 412.729980 57.950195 L 412.729980 59.797852 Z " fill="rgb(0, 0, 0)" fill-opacity="1.000000" />
<path d="M 412.892578 59.797852 L 412.892578 57.950195 L 415.449219 57.950195 L 415.449219 51.300781 L 417.167969 51.300781 L 417.167969 59.797852 Z " fill="rgb(0, 0, 0)" fill-opacity="1.000000" />
<path d="M 18.592285 27.116211 Q 17.877930 28.340820 17.526123 29.557373 Q 17.174316 30.773926 17.174316 32.009277 Q 17.174316 33.239258 17.526123 34.458496 Q 17.877930 35.677734 18.592285 36.913086 L 17.732910 36.913086 Q 16.921875 35.634766 16.524414 34.423584 Q 16.126953 33.212402 16.126953 32.009277 Q 16.126953 30.811523 16.524414 29.597656 Q 16.921875 28.383789 17.732910 27.116211 Z " fill="rgb(0, 0, 0)" fill-opacity="1.000000" />
<path d="M 35.537109 42.984375 L 36.562988 42.984375 L 38.308594 48.033203 L 40.059570 42.984375 L 41.085449 42.984375 L 38.947754 49.000000 L 37.674805 49.000000 Z " fill="rgb(0, 0, 0)" fill-opacity="1.000000" />
<path d="M 48.015625 45.498047 L 48.015625 45.981445 L 43.734863 45.981445 L 43.734863 46.013672 Q 43.691895 47.243652 44.204834 47.780762 Q 44.717773 48.317871 45.652344 48.317871 Q 46.125000 48.317871 46.640625 48.167480 Q 47.156250 48.017090 47.741699 47.710938 L 47.741699 48.693848 Q 47.177734 48.924805 46.654053 49.040283 Q 46.130371 49.155762 45.641602 49.155762 Q 44.239746 49.155762 43.450195 48.315186 Q 42.660645 47.474609 42.660645 45.997559 Q 42.660645 44.558105 43.434082 43.698730 Q 44.207520 42.839355 45.496582 42.839355 Q 46.645996 42.839355 47.309326 43.618164 Q 47.972656 44.396973 48.015625 45.498047 Z M 47.027344 45.208008 Q 46.962891 44.584961 46.573486 44.131104 Q 46.184082 43.677246 45.453613 43.677246 Q 44.739258 43.677246 44.277344 44.149902 Q 43.815430 44.622559 43.772461 45.213379 Z " fill="rgb(0, 0, 0)" fill-opacity="1.000000" />
<path d="M 55.203613 44.225098 Q 54.886719 43.978027 54.559082 43.865234 Q 54.231445 43.752441 53.839355 43.752441 Q 52.915527 43.752441 52.426758 44.332520 Q 51.937988 44.912598 51.937988 46.008301 L 51.937988 49.000000 L 50.944336 49.000000 L 50.944336 42.984375 L 51.937988 42.984375 L 51.937988 44.160645 Q 52.185059 43.521484 52.697998 43.180420 Q 53.210938 42.839355 53.914551 42.839355 Q 54.279785 42.839355 54.596680 42.930664 Q 54.913574 43.021973 55.203613 43.215332 Z " fill="rgb(0, 0, 0)" fill-opacity="1.000000" />
<path d="M 61.226074 43.193848 L 61.226074 44.160645 Q 60.801758 43.913574 60.372070 43.790039 Q 59.942383 43.666504 59.496582 43.666504 Q 58.825195 43.666504 58.494873 43.884033 Q 58.164551 44.101562 58.164551 44.547363 Q 58.164551 44.950195 58.411621 45.148926 Q 58.658691 45.347656 59.641602 45.535645 L 60.039062 45.610840 Q 60.774902 45.750488 61.153564 46.169434 Q 61.532227 46.588379 61.532227 47.259766 Q 61.532227 48.151367 60.898438 48.653564 Q 60.264648 49.155762 59.136719 49.155762 Q 58.690918 49.155762 58.202148 49.061768 Q 57.713379 48.967773 57.144043 48.779785 L 57.144043 47.759277 Q 57.697266 48.043945 58.202148 48.186279 Q 58.707031 48.328613 59.158203 48.328613 Q 59.813477 48.328613 60.173340 48.062744 Q 60.533203 47.796875 60.533203 47.318848 Q 60.533203 46.631348 59.217285 46.368164 L 59.174316 46.357422 L 58.803711 46.282227 Q 57.949707 46.115723 57.557617 45.720947 Q 57.165527 45.326172 57.165527 44.644043 Q 57.165527 43.779297 57.750977 43.309326 Q 58.336426 42.839355 59.421387 42.839355 Q 59.904785 42.839355 60.350586 42.927979 Q 60.796387 43.016602 61.226074 43.193848 Z " fill="rgb(0, 0, 0)" fill-opacity="1.000000" />
<path d="M 64.697266 43.005859 L 67.227051 43.005859 L 67.227051 48.231934 L 69.187500 48.231934 L 69.187500 49.000000 L 64.278320 49.000000 L 64.278320 48.231934 L 66.238770 48.231934 L 66.238770 43.773926 L 64.697266 43.773926 Z M 66.238770 40.669434 L 67.227051 40.669434 L 67.227051 41.915527 L 66.238770 41.915527 Z " fill="rgb(0, 0, 0)" fill-opacity="1.000000" />
<path d="M 73.308594 43.677246 Q 72.556641 43.677246 72.169922 44.262695 Q 71.783203 44.848145 71.783203 45.997559 Q 71.783203 47.141602 72.169922 47.729736 Q 72.556641 48.317871 73.308594 48.317871 Q 74.065918 48.317871 74.452637 47.729736 Q 74.839355 47.141602 74.839355 45.997559 Q 74.839355 44.848145 74.452637 44.262695 Q 74.065918 43.677246 73.308594 43.677246 Z M 73.308594 42.839355 Q 74.560059 42.839355 75.223389 43.650391 Q 75.886719 44.461426 75.886719 45.997559 Q 75.886719 47.539062 75.226074 48.347412 Q 74.565430 49.155762 73.308594 49.155762 Q 72.057129 49.155762 71.396484 48.347412 Q 70.735840 47.539062 70.735840 45.997559 Q 70.735840 44.461426 71.396484 43.650391 Q 72.057129 42.839355 73.308594 42.839355 Z " fill="rgb(0, 0, 0)" fill-opacity="1.000000" />
<path d="M 82.645020 45.272461 L 82.645020 49.000000 L 81.651367 49.000000 L 81.651367 45.272461 Q 81.651367 44.461426 81.366699 44.080078 Q 81.082031 43.698730 80.475098 43.698730 Q 79.782227 43.698730 79.408936 44.190186 Q 79.035645 44.681641 79.035645 45.600098 L 79.035645 49.000000 L 78.047363 49.000000 L 78.047363 42.984375 L 79.035645 42.984375 L 79.035645 43.886719 Q 79.298828 43.371094 79.750000 43.105225 Q 80.201172 42.839355 80.818848 42.839355 Q 81.737305 42.839355 82.191162 43.443604 Q 82.645020 44.047852 82.645020 45.272461 Z " fill="rgb(0, 0, 0)" fill-opacity="1.000000" />
<path d="M 92.450195 48.092285 L 94.136719 48.092285 L 94.136719 42.033691 L 92.117188 43.005859 L 92.117188 41.963867 L 94.125977 41.007812 L 95.210938 41.007812 L 95.210938 48.092285 L 96.875977 48.092285 L 96.875977 49.000000 L 92.450195 49.000000 Z " fill="rgb(0, 0, 0)" fill-opacity="1.000000" />
<path d="M 99.869141 40.116211 L 100.728516 40.116211 Q 101.539551 41.383789 101.937012 42.597656 Q 102.334473 43.811523 102.334473 45.009277 Q 102.334473 46.217773 101.937012 47.431641 Q 101.539551 48.645508 100.728516 49.913086 L 99.869141 49.913086 Q 100.583496 48.666992 100.935303 47.447754 Q 101.287109 46.228516 101.287109 45.009277 Q 101.287109 43.784668 100.935303 42.565430 Q 100.583496 41.346191 99.869141 40.116211 Z " fill="rgb(0, 0, 0)" fill-opacity="1.000000" />
<path d="M 135.449219 52.319336 L 135.449219 38.300781 L 137.167969 38.300781 L 137.167969 52.319336 Z " fill="rgb(0, 0, 0)" fill-opacity="1.000000" />
<path d="M 275.449219 52.319336 L 275.449219 38.300781 L 277.167969 38.300781 L 277.167969 52.319336 Z " fill="rgb(0, 0, 0)" fill-opacity="1.000000" />
<path d="M 415.449219 52.319336 L 415.449219 38.300781 L 417.167969 38.300781 L 417.167969 52.319336 Z " fill="rgb(0, 0, 0)" fill-opacity="1.000000" />
<path d="M 23.143066 28.872559 L 23.143066 31.885742 L 24.399902 31.885742 Q 25.151855 31.885742 25.573486 31.488281 Q 25.995117 31.090820 25.995117 30.376465 Q 25.995117 29.662109 25.576172 29.267334 Q 25.157227 28.872559 24.399902 28.872559 Z M 22.058105 27.980957 L 24.399902 27.980957 Q 25.742676 27.980957 26.435547 28.590576 Q 27.128418 29.200195 27.128418 30.376465 Q 27.128418 31.563477 26.438232 32.170410 Q 25.748047 32.777344 24.399902 32.777344 L 23.143066 32.777344 L 23.143066 36.000000 L 22.058105 36.000000 Z " fill="rgb(0, 0, 0)" fill-opacity="1.000000" />
<path d="M 32.082031 32.213379 Q 32.500977 32.320801 32.796387 32.618896 Q 33.091797 32.916992 33.532227 33.808594 L 34.622559 36.000000 L 33.457031 36.000000 L 32.500977 33.975098 Q 32.087402 33.110352 31.757080 32.860596 Q 31.426758 32.610840 30.895020 32.610840 L 29.858398 32.610840 L 29.858398 36.000000 L 28.768066 36.000000 L 28.768066 27.980957 L 31.002441 27.980957 Q 32.323730 27.980957 33.027344 28.577148 Q 33.730957 29.173340 33.730957 30.301270 Q 33.730957 31.096191 33.298584 31.598389 Q 32.866211 32.100586 32.082031 32.213379 Z M 29.858398 28.872559 L 29.858398 31.719238 L 31.045410 31.719238 Q 31.824219 31.719238 32.205566 31.370117 Q 32.586914 31.020996 32.586914 30.301270 Q 32.586914 29.608398 32.181396 29.240479 Q 31.775879 28.872559 31.002441 28.872559 Z " fill="rgb(0, 0, 0)" fill-opacity="1.000000" />
<path d="M 39.860840 31.998535 Q 39.860840 30.231445 39.498291 29.474121 Q 39.135742 28.716797 38.308594 28.716797 Q 37.486816 28.716797 37.124268 29.474121 Q 36.761719 30.231445 36.761719 31.998535 Q 36.761719 33.760254 37.124268 34.517578 Q 37.486816 35.274902 38.308594 35.274902 Q 39.135742 35.274902 39.498291 34.520264 Q 39.860840 33.765625 39.860840 31.998535 Z M 40.994141 31.998535 Q 40.994141 34.093262 40.330811 35.124512 Q 39.667480 36.155762 38.308594 36.155762 Q 36.949707 36.155762 36.289062 35.129883 Q 35.628418 34.104004 35.628418 31.998535 Q 35.628418 29.898438 36.291748 28.867188 Q 36.955078 27.835938 38.308594 27.835938 Q 39.667480 27.835938 40.330811 28.867188 Q 40.994141 29.898438 40.994141 31.998535 Z " fill="rgb(0, 0, 0)" fill-opacity="1.000000" />
<path d="M 42.461914 27.980957 L 43.627441 27.980957 L 45.389160 31.004883 L 47.183105 27.980957 L 48.348633 27.980957 L 45.947754 31.751465 L 48.520508 36.000000 L 47.354980 36.000000 L 45.389160 32.546387 L 43.267578 36.000000 L 42.096680 36.000000 L 44.782227 31.751465 Z " fill="rgb(0, 0, 0)" fill-opacity="1.000000" />
<path d="M 49.198730 27.980957 L 50.353516 27.980957 L 52.308594 31.520508 L 54.258301 27.980957 L 55.423828 27.980957 L 52.851074 32.401367 L 52.851074 36.000000 L 51.760742 36.000000 L 51.760742 32.401367 Z " fill="rgb(0, 0, 0)" fill-opacity="1.000000" />
<path d="M 65.014160 35.242676 L 65.014160 38.288086 L 64.020508 38.288086 L 64.020508 29.984375 L 65.014160 29.984375 L 65.014160 30.752441 Q 65.261230 30.306641 65.672119 30.072998 Q 66.083008 29.839355 66.620117 29.839355 Q 67.710449 29.839355 68.330811 30.682617 Q 68.951172 31.525879 68.951172 33.019043 Q 68.951172 34.485352 68.328125 35.320557 Q 67.705078 36.155762 66.620117 36.155762 Q 66.072266 36.155762 65.661377 35.922119 Q 65.250488 35.688477 65.014160 35.242676 Z M 67.914551 32.997559 Q 67.914551 31.848145 67.552002 31.262695 Q 67.189453 30.677246 66.475098 30.677246 Q 65.755371 30.677246 65.384766 31.265381 Q 65.014160 31.853516 65.014160 32.997559 Q 65.014160 34.136230 65.384766 34.727051 Q 65.755371 35.317871 66.475098 35.317871 Q 67.189453 35.317871 67.552002 34.732422 Q 67.914551 34.146973 67.914551 32.997559 Z " fill="rgb(0, 0, 0)" fill-opacity="1.000000" />
<path d="M 76.203613 31.225098 Q 75.886719 30.978027 75.559082 30.865234 Q 75.231445 30.752441 74.839355 30.752441 Q 73.915527 30.752441 73.426758 31.332520 Q 72.937988 31.912598 72.937988 33.008301 L 72.937988 36.000000 L 71.944336 36.000000 L 71.944336 29.984375 L 72.937988 29.984375 L 72.937988 31.160645 Q 73.185059 30.521484 73.697998 30.180420 Q 74.210938 29.839355 74.914551 29.839355 Q 75.279785 29.839355 75.596680 29.930664 Q 75.913574 30.021973 76.203613 30.215332 Z " fill="rgb(0, 0, 0)" fill-opacity="1.000000" />
<path d="M 80.308594 30.677246 Q 79.556641 30.677246 79.169922 31.262695 Q 78.783203 31.848145 78.783203 32.997559 Q 78.783203 34.141602 79.169922 34.729736 Q 79.556641 35.317871 80.308594 35.317871 Q 81.065918 35.317871 81.452637 34.729736 Q 81.839355 34.141602 81.839355 32.997559 Q 81.839355 31.848145 81.452637 31.262695 Q 81.065918 30.677246 80.308594 30.677246 Z M 80.308594 29.839355 Q 81.560059 29.839355 82.223389 30.650391 Q 82.886719 31.461426 82.886719 32.997559 Q 82.886719 34.539062 82.226074 35.347412 Q 81.565430 36.155762 80.308594 36.155762 Q 79.057129 36.155762 78.396484 35.347412 Q 77.735840 34.539062 77.735840 32.997559 Q 77.735840 31.461426 78.396484 30.650391 Q 79.057129 29.839355 80.308594 29.839355 Z " fill="rgb(0, 0, 0)" fill-opacity="1.000000" />
<path d="M 87.297852 28.276367 L 87.297852 29.984375 L 89.542969 29.984375 L 89.542969 30.752441 L 87.297852 30.752441 L 87.297852 34.018066 Q 87.297852 34.684082 87.550293 34.947266 Q 87.802734 35.210449 88.431152 35.210449 L 89.542969 35.210449 L 89.542969 36.000000 L 88.334473 36.000000 Q 87.222656 36.000000 86.766113 35.554199 Q 86.309570 35.108398 86.309570 34.018066 L 86.309570 30.752441 L 84.703613 30.752441 L 84.703613 29.984375 L 86.309570 29.984375 L 86.309570 28.276367 Z " fill="rgb(0, 0, 0)" fill-opacity="1.000000" />
<path d="M 94.308594 30.677246 Q 93.556641 30.677246 93.169922 31.262695 Q 92.783203 31.848145 92.783203 32.997559 Q 92.783203 34.141602 93.169922 34.729736 Q 93.556641 35.317871 94.308594 35.317871 Q 95.065918 35.317871 95.452637 34.729736 Q 95.839355 34.141602 95.839355 32.997559 Q 95.839355 31.848145 95.452637 31.262695 Q 95.065918 30.677246 94.308594 30.677246 Z M 94.308594 29.839355 Q 95.560059 29.839355 96.223389 30.650391 Q 96.886719 31.461426 96.886719 32.997559 Q 96.886719 34.539062 96.226074 35.347412 Q 95.565430 36.155762 94.308594 36.155762 Q 93.057129 36.155762 92.396484 35.347412 Q 91.735840 34.539062 91.735840 32.997559 Q 91.735840 31.461426 92.396484 30.650391 Q 93.057129 29.839355 94.308594 29.839355 Z " fill="rgb(0, 0, 0)" fill-opacity="1.000000" />
<path d="M 103.698730 35.693848 Q 103.301270 35.924805 102.879639 36.040283 Q 102.458008 36.155762 102.017578 36.155762 Q 100.621094 36.155762 99.834229 35.317871 Q 99.047363 34.479980 99.047363 32.997559 Q 99.047363 31.515137 99.834229 30.677246 Q 100.621094 29.839355 102.017578 29.839355 Q 102.452637 29.839355 102.866211 29.952148 Q 103.279785 30.064941 103.698730 30.301270 L 103.698730 31.337891 Q 103.306641 30.988770 102.911865 30.833008 Q 102.517090 30.677246 102.017578 30.677246 Q 101.088379 30.677246 100.588867 31.278809 Q 100.089355 31.880371 100.089355 32.997559 Q 100.089355 34.109375 100.591553 34.713623 Q 101.093750 35.317871 102.017578 35.317871 Q 102.533203 35.317871 102.941406 35.159424 Q 103.349609 35.000977 103.698730 34.667969 Z " fill="rgb(0, 0, 0)" fill-opacity="1.000000" />
<path d="M 108.308594 30.677246 Q 107.556641 30.677246 107.169922 31.262695 Q 106.783203 31.848145 106.783203 32.997559 Q 106.783203 34.141602 107.169922 34.729736 Q 107.556641 35.317871 108.308594 35.317871 Q 109.065918 35.317871 109.452637 34.729736 Q 109.839355 34.141602 109.839355 32.997559 Q 109.839355 31.848145 109.452637 31.262695 Q 109.065918 30.677246 108.308594 30.677246 Z M 108.308594 29.839355 Q 109.560059 29.839355 110.223389 30.650391 Q 110.886719 31.461426 110.886719 32.997559 Q 110.886719 34.539062 110.226074 35.347412 Q 109.565430 36.155762 108.308594 36.155762 Q 107.057129 36.155762 106.396484 35.347412 Q 105.735840 34.539062 105.735840 32.997559 Q 105.735840 31.461426 106.396484 30.650391 Q 107.057129 29.839355 108.308594 29.839355 Z " fill="rgb(0, 0, 0)" fill-opacity="1.000000" />
<path d="M 115.861816 33.824707 Q 115.861816 34.490723 116.106201 34.829102 Q 116.350586 35.167480 116.828613 35.167480 L 117.983398 35.167480 L 117.983398 36.000000 L 116.731934 36.000000 Q 115.845703 36.000000 115.359619 35.433350 Q 114.873535 34.866699 114.873535 33.824707 L 114.873535 28.383789 L 113.289062 28.383789 L 113.289062 27.610352 L 115.861816 27.610352 Z " fill="rgb(0, 0, 0)" fill-opacity="1.000000" />
<path d="M 135.449219 39.319336 L 135.449219 25.300781 L 137.167969 25.300781 L 137.167969 31.950195 L 139.729980 31.950195 L 139.729980 33.797852 L 137.167969 33.797852 L 137.167969 39.319336 Z " fill="rgb(0, 0, 0)" fill-opacity="1.000000" />
<path d="M 139.892578 33.335938 L 139.892578 32.412109 L 146.729980 32.412109 L 146.729980 33.335938 Z " fill="rgb(0, 0, 0)" fill-opacity="1.000000" />
<path d="M 146.892578 33.335938 L 146.892578 32.412109 L 153.729980 32.412109 L 153.729980 33.335938 Z " fill="rgb(0, 0, 0)" fill-opacity="1.000000" />
<path d="M 153.892578 33.335938 L 153.892578 32.412109 L 160.729980 32.412109 L 160.729980 33.335938 Z " fill="rgb(0, 0, 0)" fill-opacity="1.000000" />
<path d="M 160.892578 33.335938 L 160.892578 32.412109 L 167.729980 32.412109 L 167.729980 33.335938 Z " fill="rgb(0, 0, 0)" fill-opacity="1.000000" />
<path d="M 167.892578 33.335938 L 167.892578 32.412109 L 174.729980 32.412109 L 174.729980 33.335938 Z " fill="rgb(0, 0, 0)" fill-opacity="1.000000" />
<path d="M 174.892578 33.335938 L 174.892578 32.412109 L 181.729980 32.412109 L 181.729980 33.335938 Z " fill="rgb(0, 0, 0)" fill-opacity="1.000000" />
<path d="M 181.892578 33.335938 L 181.892578 32.412109 L 188.729980 32.412109 L 188.729980 33.335938 Z " fill="rgb(0, 0, 0)" fill-opacity="1.000000" />
<path d="M 188.892578 33.335938 L 188.892578 32.412109 L 195.729980 32.412109 L 195.729980 33.335938 Z " fill="rgb(0, 0, 0)" fill-opacity="1.000000" />
<path d="M 195.892578 33.335938 L 195.892578 32.412109 L 202.729980 32.412109 L 202.729980 33.335938 Z " fill="rgb(0, 0, 0)" fill-opacity="1.000000" />
<path d="M 202.892578 33.335938 L 202.892578 32.412109 L 209.729980 32.412109 L 209.729980 33.335938 Z " fill="rgb(0, 0, 0)" fill-opacity="1.000000" />
<path d="M 209.892578 33.335938 L 209.892578 32.412109 L 216.729980 32.412109 L 216.729980 33.335938 Z " fill="rgb(0, 0, 0)" fill-opacity="1.000000" />
<path d="M 216.892578 33.335938 L 216.892578 32.412109 L 223.729980 32.412109 L 223.729980 33.335938 Z " fill="rgb(0, 0, 0)" fill-opacity="1.000000" />
<path d="M 223.892578 33.335938 L 223.892578 32.412109 L 230.729980 32.412109 L 230.729980 33.335938 Z " fill="rgb(0, 0, 0)" fill-opacity="1.000000" />
<path d="M 230.892578 33.335938 L 230.892578 32.412109 L 237.729980 32.412109 L 237.729980 33.335938 Z " fill="rgb(0, 0, 0)" fill-opacity="1.000000" />
<path d="M 237.892578 33.335938 L 237.892578 32.412109 L 244.729980 32.412109 L 244.729980 33.335938 Z " fill="rgb(0, 0, 0)" fill-opacity="1.000000" />
<path d="M 244.892578 33.335938 L 244.892578 32.412109 L 251.729980 32.412109 L 251.729980 33.335938 Z " fill="rgb(0, 0, 0)" fill-opacity="1.000000" />
<path d="M 251.892578 33.335938 L 251.892578 32.412109 L 258.729980 32.412109 L 258.729980 33.335938 Z " fill="rgb(0, 0, 0)" fill-opacity="1.000000" />
<path d="M 258.892578 33.335938 L 258.892578 32.412109 L 265.729980 32.412109 L 265.729980 33.335938 Z " fill="rgb(0, 0, 0)" fill-opacity="1.000000" />
<path d="M 265.892578 33.335938 L 265.892578 32.412109 L 272.729980 32.412109 L 272.729980 33.335938 Z " fill="rgb(0, 0, 0)" fill-opacity="1.000000" />
<path d="M 273.032227 36.418945 L 273.032227 29.866211 L 279.590332 33.142578 Z " fill="rgb(0, 0, 0)" fill-opacity="1.000000" />
<path d="M 327.645020 32.272461 L 327.645020 36.000000 L 326.651367 36.000000 L 326.651367 32.272461 Q 326.651367 31.461426 326.366699 31.080078 Q 326.082031 30.698730 325.475098 30.698730 Q 324.782227 30.698730 324.408936 31.190186 Q 324.035645 31.681641 324.035645 32.600098 L 324.035645 36.000000 L 323.047363 36.000000 L 323.047363 29.984375 L 324.035645 29.984375 L 324.035645 30.886719 Q 324.298828 30.371094 324.750000 30.105225 Q 325.201172 29.839355 325.818848 29.839355 Q 326.737305 29.839355 327.191162 30.443604 Q 327.645020 31.047852 327.645020 32.272461 Z " fill="rgb(0, 0, 0)" fill-opacity="1.000000" />
<path d="M 335.015625 32.498047 L 335.015625 32.981445 L 330.734863 32.981445 L 330.734863 33.013672 Q 330.691895 34.243652 331.204834 34.780762 Q 331.717773 35.317871 332.652344 35.317871 Q 333.125000 35.317871 333.640625 35.167480 Q 334.156250 35.017090 334.741699 34.710938 L 334.741699 35.693848 Q 334.177734 35.924805 333.654053 36.040283 Q 333.130371 36.155762 332.641602 36.155762 Q 331.239746 36.155762 330.450195 35.315186 Q 329.660645 34.474609 329.660645 32.997559 Q 329.660645 31.558105 330.434082 30.698730 Q 331.207520 29.839355 332.496582 29.839355 Q 333.645996 29.839355 334.309326 30.618164 Q 334.972656 31.396973 335.015625 32.498047 Z M 334.027344 32.208008 Q 333.962891 31.584961 333.573486 31.131104 Q 333.184082 30.677246 332.453613 30.677246 Q 331.739258 30.677246 331.277344 31.149902 Q 330.815430 31.622559 330.772461 32.213379 Z " fill="rgb(0, 0, 0)" fill-opacity="1.000000" />
<path d="M 339.297852 28.276367 L 339.297852 29.984375 L 341.542969 29.984375 L 341.542969 30.752441 L 339.297852 30.752441 L 339.297852 34.018066 Q 339.297852 34.684082 339.550293 34.947266 Q 339.802734 35.210449 340.431152 35.210449 L 341.542969 35.210449 L 341.542969 36.000000 L 340.334473 36.000000 Q 339.222656 36.000000 338.766113 35.554199 Q 338.309570 35.108398 338.309570 34.018066 L 338.309570 30.752441 L 336.703613 30.752441 L 336.703613 29.984375 L 338.309570 29.984375 L 338.309570 28.276367 Z " fill="rgb(0, 0, 0)" fill-opacity="1.000000" />
<path d="M 348.698730 35.693848 Q 348.301270 35.924805 347.879639 36.040283 Q 347.458008 36.155762 347.017578 36.155762 Q 345.621094 36.155762 344.834229 35.317871 Q 344.047363 34.479980 344.047363 32.997559 Q 344.047363 31.515137 344.834229 30.677246 Q 345.621094 29.839355 347.017578 29.839355 Q 347.452637 29.839355 347.866211 29.952148 Q 348.279785 30.064941 348.698730 30.301270 L 348.698730 31.337891 Q 348.306641 30.988770 347.911865 30.833008 Q 347.517090 30.677246 347.017578 30.677246 Q 346.088379 30.677246 345.588867 31.278809 Q 345.089355 31.880371 345.089355 32.997559 Q 345.089355 34.109375 345.591553 34.713623 Q 346.093750 35.317871 347.017578 35.317871 Q 347.533203 35.317871 347.941406 35.159424 Q 348.349609 35.000977 348.698730 34.667969 Z " fill="rgb(0, 0, 0)" fill-opacity="1.000000" />
<path d="M 353.770508 32.976074 L 353.442871 32.976074 Q 352.578125 32.976074 352.140381 33.279541 Q 351.702637 33.583008 351.702637 34.184570 Q 351.702637 34.727051 352.030273 35.027832 Q 352.357910 35.328613 352.937988 35.328613 Q 353.754395 35.328613 354.221680 34.761963 Q 354.688965 34.195312 354.694336 33.196289 L 354.694336 32.976074 Z M 355.687988 32.567871 L 355.687988 36.000000 L 354.694336 36.000000 L 354.694336 35.108398 Q 354.377441 35.645508 353.896729 35.900635 Q 353.416016 36.155762 352.728516 36.155762 Q 351.810059 36.155762 351.262207 35.637451 Q 350.714355 35.119141 350.714355 34.249023 Q 350.714355 33.244629 351.388428 32.723633 Q 352.062500 32.202637 353.367676 32.202637 L 354.694336 32.202637 L 354.694336 32.046875 Q 354.688965 31.327148 354.329102 31.002197 Q 353.969238 30.677246 353.179688 30.677246 Q 352.674805 30.677246 352.159180 30.822266 Q 351.643555 30.967285 351.154785 31.246582 L 351.154785 30.258301 Q 351.702637 30.048828 352.204834 29.944092 Q 352.707031 29.839355 353.179688 29.839355 Q 353.926270 29.839355 354.455322 30.059570 Q 354.984375 30.279785 355.312012 30.720215 Q 355.516113 30.988770 355.602051 31.383545 Q 355.687988 31.778320 355.687988 32.567871 Z " fill="rgb(0, 0, 0)" fill-opacity="1.000000" />
<path d="M 360.297852 28.276367 L 360.297852 29.984375 L 362.542969 29.984375 L 362.542969 30.752441 L 360.297852 30.752441 L 360.297852 34.018066 Q 360.297852 34.684082 360.550293 34.947266 Q 360.802734 35.210449 361.431152 35.210449 L 362.542969 35.210449 L 362.542969 36.000000 L 361.334473 36.000000 Q 360.222656 36.000000 359.766113 35.554199 Q 359.309570 35.108398 359.309570 34.018066 L 359.309570 30.752441 L 357.703613 30.752441 L 357.703613 29.984375 L 359.309570 29.984375 L 359.309570 28.276367 Z " fill="rgb(0, 0, 0)" fill-opacity="1.000000" />
<path d="M 415.449219 39.319336 L 415.449219 25.300781 L 417.167969 25.300781 L 417.167969 39.319336 Z " fill="rgb(0, 0, 0)" fill-opacity="1.000000" />
<path d="M 427.252441 27.980957 L 433.370117 27.980957 L 433.370117 28.894043 L 430.861816 28.894043 L 430.861816 36.000000 L 429.771484 36.000000 L 429.771484 28.894043 L 427.252441 28.894043 Z " fill="rgb(0, 0, 0)" fill-opacity="1.000000" />
<path d="M 439.763184 35.715332 Q 439.349609 35.935547 438.914551 36.045654 Q 438.479492 36.155762 437.990723 36.155762 Q 436.449219 36.155762 435.597900 35.065430 Q 434.746582 33.975098 434.746582 31.998535 Q 434.746582 30.032715 435.603271 28.934326 Q 436.459961 27.835938 437.990723 27.835938 Q 438.479492 27.835938 438.914551 27.946045 Q 439.349609 28.056152 439.763184 28.276367 L 439.763184 29.388184 Q 439.365723 29.060547 438.909180 28.888672 Q 438.452637 28.716797 437.990723 28.716797 Q 436.932617 28.716797 436.406250 29.533203 Q 435.879883 30.349609 435.879883 31.998535 Q 435.879883 33.642090 436.406250 34.458496 Q 436.932617 35.274902 437.990723 35.274902 Q 438.463379 35.274902 438.917236 35.103027 Q 439.371094 34.931152 439.763184 34.603516 Z " fill="rgb(0, 0, 0)" fill-opacity="1.000000" />
<path d="M 443.143066 28.872559 L 443.143066 31.885742 L 444.399902 31.885742 Q 445.151855 31.885742 445.573486 31.488281 Q 445.995117 31.090820 445.995117 30.376465 Q 445.995117 29.662109 445.576172 29.267334 Q 445.157227 28.872559 444.399902 28.872559 Z M 442.058105 27.980957 L 444.399902 27.980957 Q 445.742676 27.980957 446.435547 28.590576 Q 447.128418 29.200195 447.128418 30.376465 Q 447.128418 31.563477 446.438232 32.170410 Q 445.748047 32.777344 444.399902 32.777344 L 443.143066 32.777344 L 443.143066 36.000000 L 442.058105 36.000000 Z " fill="rgb(0, 0, 0)" fill-opacity="1.000000" />
<path d="M 459.082031 32.213379 Q 459.500977 32.320801 459.796387 32.618896 Q 460.091797 32.916992 460.532227 33.808594 L 461.622559 36.000000 L 460.457031 36.000000 L 459.500977 33.975098 Q 459.087402 33.110352 458.757080 32.860596 Q 458.426758 32.610840 457.895020 32.610840 L 456.858398 32.610840 L 456.858398 36.000000 L 455.768066 36.000000 L 455.768066 27.980957 L 458.002441 27.980957 Q 459.323730 27.980957 460.027344 28.577148 Q 460.730957 29.173340 460.730957 30.301270 Q 460.730957 31.096191 460.298584 31.598389 Q 459.866211 32.100586 459.082031 32.213379 Z M 456.858398 28.872559 L 456.858398 31.719238 L 458.045410 31.719238 Q 458.824219 31.719238 459.205566 31.370117 Q 459.586914 31.020996 459.586914 30.301270 Q 459.586914 29.608398 459.181396 29.240479 Q 458.775879 28.872559 458.002441 28.872559 Z " fill="rgb(0, 0, 0)" fill-opacity="1.000000" />
<path d="M 468.015625 32.498047 L 468.015625 32.981445 L 463.734863 32.981445 L 463.734863 33.013672 Q 463.691895 34.243652 464.204834 34.780762 Q 464.717773 35.317871 465.652344 35.317871 Q 466.125000 35.317871 466.640625 35.167480 Q 467.156250 35.017090 467.741699 34.710938 L 467.741699 35.693848 Q 467.177734 35.924805 466.654053 36.040283 Q 466.130371 36.155762 465.641602 36.155762 Q 464.239746 36.155762 463.450195 35.315186 Q 462.660645 34.474609 462.660645 32.997559 Q 462.660645 31.558105 463.434082 30.698730 Q 464.207520 29.839355 465.496582 29.839355 Q 466.645996 29.839355 467.309326 30.618164 Q 467.972656 31.396973 468.015625 32.498047 Z M 467.027344 32.208008 Q 466.962891 31.584961 466.573486 31.131104 Q 466.184082 30.677246 465.453613 30.677246 Q 464.739258 30.677246 464.277344 31.149902 Q 463.815430 31.622559 463.772461 32.213379 Z " fill="rgb(0, 0, 0)" fill-opacity="1.000000" />
<path d="M 470.783203 33.019043 Q 470.783203 34.168457 471.145752 34.753906 Q 471.508301 35.339355 472.222656 35.339355 Q 472.937012 35.339355 473.304932 34.751221 Q 473.672852 34.163086 473.672852 33.019043 Q 473.672852 31.875000 473.304932 31.286865 Q 472.937012 30.698730 472.222656 30.698730 Q 471.508301 30.698730 471.145752 31.284180 Q 470.783203 31.869629 470.783203 33.019043 Z M 473.672852 35.253418 Q 473.431152 35.699219 473.020264 35.938232 Q 472.609375 36.177246 472.066895 36.177246 Q 470.987305 36.177246 470.361572 35.342041 Q 469.735840 34.506836 469.735840 33.040527 Q 469.735840 31.547363 470.358887 30.704102 Q 470.981934 29.860840 472.066895 29.860840 Q 472.604004 29.860840 473.014893 30.094482 Q 473.425781 30.328125 473.672852 30.773926 L 473.672852 30.005859 L 474.666504 30.005859 L 474.666504 38.309570 L 473.672852 38.309570 Z " fill="rgb(0, 0, 0)" fill-opacity="1.000000" />
<path d="M 477.047363 33.722656 L 477.047363 29.995117 L 478.035645 29.995117 L 478.035645 33.722656 Q 478.035645 34.533691 478.322998 34.915039 Q 478.610352 35.296387 479.211914 35.296387 Q 479.910156 35.296387 480.280762 34.804932 Q 480.651367 34.313477 480.651367 33.395020 L 480.651367 29.995117 L 481.645020 29.995117 L 481.645020 36.000000 L 480.651367 36.000000 L 480.651367 35.097656 Q 480.388184 35.618652 479.934326 35.887207 Q 479.480469 36.155762 478.873535 36.155762 Q 477.949707 36.155762 477.498535 35.551514 Q 477.047363 34.947266 477.047363 33.722656 Z " fill="rgb(0, 0, 0)" fill-opacity="1.000000" />
<path d="M 489.015625 32.498047 L 489.015625 32.981445 L 484.734863 32.981445 L 484.734863 33.013672 Q 484.691895 34.243652 485.204834 34.780762 Q 485.717773 35.317871 486.652344 35.317871 Q 487.125000 35.317871 487.640625 35.167480 Q 488.156250 35.017090 488.741699 34.710938 L 488.741699 35.693848 Q 488.177734 35.924805 487.654053 36.040283 Q 487.130371 36.155762 486.641602 36.155762 Q 485.239746 36.155762 484.450195 35.315186 Q 483.660645 34.474609 483.660645 32.997559 Q 483.660645 31.558105 484.434082 30.698730 Q 485.207520 29.839355 486.496582 29.839355 Q 487.645996 29.839355 488.309326 30.618164 Q 488.972656 31.396973 489.015625 32.498047 Z M 488.027344 32.208008 Q 487.962891 31.584961 487.573486 31.131104 Q 487.184082 30.677246 486.453613 30.677246 Q 485.739258 30.677246 485.277344 31.149902 Q 484.815430 31.622559 484.772461 32.213379 Z " fill="rgb(0, 0, 0)" fill-opacity="1.000000" />
<path d="M 495.226074 30.193848 L 495.226074 31.160645 Q 494.801758 30.913574 494.372070 30.790039 Q 493.942383 30.666504 493.496582 30.666504 Q 492.825195 30.666504 492.494873 30.884033 Q 492.164551 31.101562 492.164551 31.547363 Q 492.164551 31.950195 492.411621 32.148926 Q 492.658691 32.347656 493.641602 32.535645 L 494.039062 32.610840 Q 494.774902 32.750488 495.153564 33.169434 Q 495.532227 33.588379 495.532227 34.259766 Q 495.532227 35.151367 494.898438 35.653564 Q 494.264648 36.155762 493.136719 36.155762 Q 492.690918 36.155762 492.202148 36.061768 Q 491.713379 35.967773 491.144043 35.779785 L 491.144043 34.759277 Q 491.697266 35.043945 492.202148 35.186279 Q 492.707031 35.328613 493.158203 35.328613 Q 493.813477 35.328613 494.173340 35.062744 Q 494.533203 34.796875 494.533203 34.318848 Q 494.533203 33.631348 493.217285 33.368164 L 493.174316 33.357422 L 492.803711 33.282227 Q 491.949707 33.115723 491.557617 32.720947 Q 491.165527 32.326172 491.165527 31.644043 Q 491.165527 30.779297 491.750977 30.309326 Q 492.336426 29.839355 493.421387 29.839355 Q 493.904785 29.839355 494.350586 29.927979 Q 494.796387 30.016602 495.226074 30.193848 Z " fill="rgb(0, 0, 0)" fill-opacity="1.000000" />
<path d="M 500.297852 28.276367 L 500.297852 29.984375 L 502.542969 29.984375 L 502.542969 30.752441 L 500.297852 30.752441 L 500.297852 34.018066 Q 500.297852 34.684082 500.550293 34.947266 Q 500.802734 35.210449 501.431152 35.210449 L 502.542969 35.210449 L 502.542969 36.000000 L 501.334473 36.000000 Q 500.222656 36.000000 499.766113 35.554199 Q 499.309570 35.108398 499.309570 34.018066 L 499.309570 30.752441 L 497.703613 30.752441 L 497.703613 29.984375 L 499.309570 29.984375 L 499.309570 28.276367 Z " fill="rgb(0, 0, 0)" fill-opacity="1.000000" />
<path d="M 40.645020 19.272461 L 40.645020 23.000000 L 39.651367 23.000000 L 39.651367 19.272461 Q 39.651367 18.461426 39.366699 18.080078 Q 39.082031 17.698730 38.475098 17.698730 Q 37.782227 17.698730 37.408936 18.190186 Q 37.035645 18.681641 37.035645 19.600098 L 37.035645 23.000000 L 36.047363 23.000000 L 36.047363 16.984375 L 37.035645 16.984375 L 37.035645 17.886719 Q 37.298828 17.371094 37.750000 17.105225 Q 38.201172 16.839355 38.818848 16.839355 Q 39.737305 16.839355 40.191162 17.443604 Q 40.645020 18.047852 40.645020 19.272461 Z " fill="rgb(0, 0, 0)" fill-opacity="1.000000" />
<path d="M 46.608398 19.943848 Q 46.608398 18.832031 46.245850 18.254639 Q 45.883301 17.677246 45.190430 17.677246 Q 44.465332 17.677246 44.083984 18.254639 Q 43.702637 18.832031 43.702637 19.943848 Q 43.702637 21.055664 44.086670 21.638428 Q 44.470703 22.221191 45.201172 22.221191 Q 45.883301 22.221191 46.245850 21.635742 Q 46.608398 21.050293 46.608398 19.943848 Z M 47.596680 22.613281 Q 47.596680 23.966797 46.957520 24.665039 Q 46.318359 25.363281 45.077637 25.363281 Q 44.669434 25.363281 44.223633 25.288086 Q 43.777832 25.212891 43.332031 25.067871 L 43.332031 24.090332 Q 43.858398 24.337402 44.288086 24.455566 Q 44.717773 24.573730 45.077637 24.573730 Q 45.877930 24.573730 46.243164 24.138672 Q 46.608398 23.703613 46.608398 22.758301 L 46.608398 22.715332 L 46.608398 22.043945 Q 46.372070 22.548828 45.963867 22.795898 Q 45.555664 23.042969 44.970215 23.042969 Q 43.917480 23.042969 43.289062 22.199707 Q 42.660645 21.356445 42.660645 19.943848 Q 42.660645 18.525879 43.289062 17.682617 Q 43.917480 16.839355 44.970215 16.839355 Q 45.550293 16.839355 45.953125 17.070312 Q 46.355957 17.301270 46.608398 17.784668 L 46.608398 17.005859 L 47.596680 17.005859 Z " fill="rgb(0, 0, 0)" fill-opacity="1.000000" />
<path d="M 50.697266 17.005859 L 53.227051 17.005859 L 53.227051 22.231934 L 55.187500 22.231934 L 55.187500 23.000000 L 50.278320 23.000000 L 50.278320 22.231934 L 52.238770 22.231934 L 52.238770 17.773926 L 50.697266 17.773926 Z M 52.238770 14.669434 L 53.227051 14.669434 L 53.227051 15.915527 L 52.238770 15.915527 Z " fill="rgb(0, 0, 0)" fill-opacity="1.000000" />
<path d="M 61.645020 19.272461 L 61.645020 23.000000 L 60.651367 23.000000 L 60.651367 19.272461 Q 60.651367 18.461426 60.366699 18.080078 Q 60.082031 17.698730 59.475098 17.698730 Q 58.782227 17.698730 58.408936 18.190186 Q 58.035645 18.681641 58.035645 19.600098 L 58.035645 23.000000 L 57.047363 23.000000 L 57.047363 16.984375 L 58.035645 16.984375 L 58.035645 17.886719 Q 58.298828 17.371094 58.750000 17.105225 Q 59.201172 16.839355 59.818848 16.839355 Q 60.737305 16.839355 61.191162 17.443604 Q 61.645020 18.047852 61.645020 19.272461 Z " fill="rgb(0, 0, 0)" fill-opacity="1.000000" />
<path d="M 69.004883 16.984375 L 66.851074 19.863281 L 69.214355 23.000000 L 68.070312 23.000000 L 66.308594 20.588379 L 64.552246 23.000000 L 63.408203 23.000000 L 65.771484 19.863281 L 63.617676 16.984375 L 64.713379 16.984375 L 66.308594 19.159668 L 67.893066 16.984375 Z " fill="rgb(0, 0, 0)" fill-opacity="1.000000" />
<path d="M 70.547852 19.111328 L 76.241211 19.111328 L 76.241211 20.019043 L 70.547852 20.019043 Z " fill="rgb(0, 0, 0)" fill-opacity="1.000000" />
<path d="M 83.015625 19.498047 L 83.015625 19.981445 L 78.734863 19.981445 L 78.734863 20.013672 Q 78.691895 21.243652 79.204834 21.780762 Q 79.717773 22.317871 80.652344 22.317871 Q 81.125000 22.317871 81.640625 22.167480 Q 82.156250 22.017090 82.741699 21.710938 L 82.741699 22.693848 Q 82.177734 22.924805 81.654053 23.040283 Q 81.130371 23.155762 80.641602 23.155762 Q 79.239746 23.155762 78.450195 22.315186 Q 77.660645 21.474609 77.660645 19.997559 Q 77.660645 18.558105 78.434082 17.698730 Q 79.207520 16.839355 80.496582 16.839355 Q 81.645996 16.839355 82.309326 17.618164 Q 82.972656 18.396973 83.015625 19.498047 Z M 82.027344 19.208008 Q 81.962891 18.584961 81.573486 18.131104 Q 81.184082 17.677246 80.453613 17.677246 Q 79.739258 17.677246 79.277344 18.149902 Q 78.815430 18.622559 78.772461 19.213379 Z " fill="rgb(0, 0, 0)" fill-opacity="1.000000" />
<path d="M 88.608398 17.752441 L 88.608398 14.642578 L 89.596680 14.642578 L 89.596680 23.000000 L 88.608398 23.000000 L 88.608398 22.242676 Q 88.361328 22.688477 87.950439 22.922119 Q 87.539551 23.155762 87.002441 23.155762 Q 85.912109 23.155762 85.286377 22.309814 Q 84.660645 21.463867 84.660645 19.976074 Q 84.660645 18.509766 85.289062 17.674561 Q 85.917480 16.839355 87.002441 16.839355 Q 87.544922 16.839355 87.958496 17.072998 Q 88.372070 17.306641 88.608398 17.752441 Z M 85.702637 19.997559 Q 85.702637 21.146973 86.067871 21.732422 Q 86.433105 22.317871 87.147461 22.317871 Q 87.861816 22.317871 88.235107 21.727051 Q 88.608398 21.136230 88.608398 19.997559 Q 88.608398 18.853516 88.235107 18.265381 Q 87.861816 17.677246 87.147461 17.677246 Q 86.433105 17.677246 86.067871 18.262695 Q 85.702637 18.848145 85.702637 19.997559 Z " fill="rgb(0, 0, 0)" fill-opacity="1.000000" />
<path d="M 95.608398 19.943848 Q 95.608398 18.832031 95.245850 18.254639 Q 94.883301 17.677246 94.190430 17.677246 Q 93.465332 17.677246 93.083984 18.254639 Q 92.702637 18.832031 92.702637 19.943848 Q 92.702637 21.055664 93.086670 21.638428 Q 93.470703 22.221191 94.201172 22.221191 Q 94.883301 22.221191 95.245850 21.635742 Q 95.608398 21.050293 95.608398 19.943848 Z M 96.596680 22.613281 Q 96.596680 23.966797 95.957520 24.665039 Q 95.318359 25.363281 94.077637 25.363281 Q 93.669434 25.363281 93.223633 25.288086 Q 92.777832 25.212891 92.332031 25.067871 L 92.332031 24.090332 Q 92.858398 24.337402 93.288086 24.455566 Q 93.717773 24.573730 94.077637 24.573730 Q 94.877930 24.573730 95.243164 24.138672 Q 95.608398 23.703613 95.608398 22.758301 L 95.608398 22.715332 L 95.608398 22.043945 Q 95.372070 22.548828 94.963867 22.795898 Q 94.555664 23.042969 93.970215 23.042969 Q 92.917480 23.042969 92.289062 22.199707 Q 91.660645 21.356445 91.660645 19.943848 Q 91.660645 18.525879 92.289062 17.682617 Q 92.917480 16.839355 93.970215 16.839355 Q 94.550293 16.839355 94.953125 17.070312 Q 95.355957 17.301270 95.608398 17.784668 L 95.608398 17.005859 L 96.596680 17.005859 Z " fill="rgb(0, 0, 0)" fill-opacity="1.000000" />
<path d="M 104.015625 19.498047 L 104.015625 19.981445 L 99.734863 19.981445 L 99.734863 20.013672 Q 99.691895 21.243652 100.204834 21.780762 Q 100.717773 22.317871 101.652344 22.317871 Q 102.125000 22.317871 102.640625 22.167480 Q 103.156250 22.017090 103.741699 21.710938 L 103.741699 22.693848 Q 103.177734 22.924805 102.654053 23.040283 Q 102.130371 23.155762 101.641602 23.155762 Q 100.239746 23.155762 99.450195 22.315186 Q 98.660645 21.474609 98.660645 19.997559 Q 98.660645 18.558105 99.434082 17.698730 Q 100.207520 16.839355 101.496582 16.839355 Q 102.645996 16.839355 103.309326 17.618164 Q 103.972656 18.396973 104.015625 19.498047 Z M 103.027344 19.208008 Q 102.962891 18.584961 102.573486 18.131104 Q 102.184082 17.677246 101.453613 17.677246 Q 100.739258 17.677246 100.277344 18.149902 Q 99.815430 18.622559 99.772461 19.213379 Z " fill="rgb(0, 0, 0)" fill-opacity="1.000000" />
<path d="M 135.449219 26.319336 L 135.449219 12.300781 L 137.167969 12.300781 L 137.167969 26.319336 Z " fill="rgb(0, 0, 0)" fill-opacity="1.000000" />
<path d="M 275.449219 26.319336 L 275.449219 12.300781 L 277.167969 12.300781 L 277.167969 26.319336 Z " fill="rgb(0, 0, 0)" fill-opacity="1.000000" />
<path d="M 415.449219 26.319336 L 415.449219 12.300781 L 417.167969 12.300781 L 417.167969 26.319336 Z " fill="rgb(0, 0, 0)" fill-opacity="1.000000" />
<path d="M 422.143066 15.872559 L 422.143066 18.885742 L 423.399902 18.885742 Q 424.151855 18.885742 424.573486 18.488281 Q 424.995117 18.090820 424.995117 17.376465 Q 424.995117 16.662109 424.576172 16.267334 Q 424.157227 15.872559 423.399902 15.872559 Z M 421.058105 14.980957 L 423.399902 14.980957 Q 424.742676 14.980957 425.435547 15.590576 Q 426.128418 16.200195 426.128418 17.376465 Q 426.128418 18.563477 425.438232 19.170410 Q 424.748047 19.777344 423.399902 19.777344 L 422.143066 19.777344 L 422.143066 23.000000 L 421.058105 23.000000 Z " fill="rgb(0, 0, 0)" fill-opacity="1.000000" />
<path d="M 433.203613 18.225098 Q 432.886719 17.978027 432.559082 17.865234 Q 432.231445 17.752441 431.839355 17.752441 Q 430.915527 17.752441 430.426758 18.332520 Q 429.937988 18.912598 429.937988 20.008301 L 429.937988 23.000000 L 428.944336 23.000000 L 428.944336 16.984375 L 429.937988 16.984375 L 429.937988 18.160645 Q 430.185059 17.521484 430.697998 17.180420 Q 431.210938 16.839355 431.914551 16.839355 Q 432.279785 16.839355 432.596680 16.930664 Q 432.913574 17.021973 433.203613 17.215332 Z " fill="rgb(0, 0, 0)" fill-opacity="1.000000" />
<path d="M 435.697266 17.005859 L 438.227051 17.005859 L 438.227051 22.231934 L 440.187500 22.231934 L 440.187500 23.000000 L 435.278320 23.000000 L 435.278320 22.231934 L 437.238770 22.231934 L 437.238770 17.773926 L 435.697266 17.773926 Z M 437.238770 14.669434 L 438.227051 14.669434 L 438.227051 15.915527 L 437.238770 15.915527 Z " fill="rgb(0, 0, 0)" fill-opacity="1.000000" />
<path d="M 446.645020 19.272461 L 446.645020 23.000000 L 445.651367 23.000000 L 445.651367 19.272461 Q 445.651367 18.461426 445.366699 18.080078 Q 445.082031 17.698730 444.475098 17.698730 Q 443.782227 17.698730 443.408936 18.190186 Q 443.035645 18.681641 443.035645 19.600098 L 443.035645 23.000000 L 442.047363 23.000000 L 442.047363 16.984375 L 443.035645 16.984375 L 443.035645 17.886719 Q 443.298828 17.371094 443.750000 17.105225 Q 444.201172 16.839355 444.818848 16.839355 Q 445.737305 16.839355 446.191162 17.443604 Q 446.645020 18.047852 446.645020 19.272461 Z " fill="rgb(0, 0, 0)" fill-opacity="1.000000" />
<path d="M 451.297852 15.276367 L 451.297852 16.984375 L 453.542969 16.984375 L 453.542969 17.752441 L 451.297852 17.752441 L 451.297852 21.018066 Q 451.297852 21.684082 451.550293 21.947266 Q 451.802734 22.210449 452.431152 22.210449 L 453.542969 22.210449 L 453.542969 23.000000 L 452.334473 23.000000 Q 451.222656 23.000000 450.766113 22.554199 Q 450.309570 22.108398 450.309570 21.018066 L 450.309570 17.752441 L 448.703613 17.752441 L 448.703613 16.984375 L 450.309570 16.984375 L 450.309570 15.276367 Z " fill="rgb(0, 0, 0)" fill-opacity="1.000000" />
<path d="M 463.697266 17.005859 L 466.227051 17.005859 L 466.227051 22.231934 L 468.187500 22.231934 L 468.187500 23.000000 L 463.278320 23.000000 L 463.278320 22.231934 L 465.238770 22.231934 L 465.238770 17.773926 L 463.697266 17.773926 Z M 465.238770 14.669434 L 466.227051 14.669434 L 466.227051 15.915527 L 465.238770 15.915527 Z " fill="rgb(0, 0, 0)" fill-opacity="1.000000" />
<path d="M 474.645020 19.272461 L 474.645020 23.000000 L 473.651367 23.000000 L 473.651367 19.272461 Q 473.651367 18.461426 473.366699 18.080078 Q 473.082031 17.698730 472.475098 17.698730 Q 471.782227 17.698730 471.408936 18.190186 Q 471.035645 18.681641 471.035645 19.600098 L 471.035645 23.000000 L 470.047363 23.000000 L 470.047363 16.984375 L 471.035645 16.984375 L 471.035645 17.886719 Q 471.298828 17.371094 471.750000 17.105225 Q 472.201172 16.839355 472.818848 16.839355 Q 473.737305 16.839355 474.191162 17.443604 Q 474.645020 18.047852 474.645020 19.272461 Z " fill="rgb(0, 0, 0)" fill-opacity="1.000000" />
<path d="M 481.698730 22.693848 Q 481.301270 22.924805 480.879639 23.040283 Q 480.458008 23.155762 480.017578 23.155762 Q 478.621094 23.155762 477.834229 22.317871 Q 477.047363 21.479980 477.047363 19.997559 Q 477.047363 18.515137 477.834229 17.677246 Q 478.621094 16.839355 480.017578 16.839355 Q 480.452637 16.839355 480.866211 16.952148 Q 481.279785 17.064941 481.698730 17.301270 L 481.698730 18.337891 Q 481.306641 17.988770 480.911865 17.833008 Q 480.517090 17.677246 480.017578 17.677246 Q 479.088379 17.677246 478.588867 18.278809 Q 478.089355 18.880371 478.089355 19.997559 Q 478.089355 21.109375 478.591553 21.713623 Q 479.093750 22.317871 480.017578 22.317871 Q 480.533203 22.317871 480.941406 22.159424 Q 481.349609 22.000977 481.698730 21.667969 Z " fill="rgb(0, 0, 0)" fill-opacity="1.000000" />
<path d="M 486.308594 17.677246 Q 485.556641 17.677246 485.169922 18.262695 Q 484.783203 18.848145 484.783203 19.997559 Q 484.783203 21.141602 485.169922 21.729736 Q 485.556641 22.317871 486.308594 22.317871 Q 487.065918 22.317871 487.452637 21.729736 Q 487.839355 21.141602 487.839355 19.997559 Q 487.839355 18.848145 487.452637 18.262695 Q 487.065918 17.677246 486.308594 17.677246 Z M 486.308594 16.839355 Q 487.560059 16.839355 488.223389 17.650391 Q 488.886719 18.461426 488.886719 19.997559 Q 488.886719 21.539062 488.226074 22.347412 Q 487.565430 23.155762 486.308594 23.155762 Q 485.057129 23.155762 484.396484 22.347412 Q 483.735840 21.539062 483.735840 19.997559 Q 483.735840 18.461426 484.396484 17.650391 Q 485.057129 16.839355 486.308594 16.839355 Z " fill="rgb(0, 0, 0)" fill-opacity="1.000000" />
<path d="M 493.630859 17.596680 Q 493.813477 17.209961 494.095459 17.024658 Q 494.377441 16.839355 494.774902 16.839355 Q 495.500000 16.839355 495.798096 17.400635 Q 496.096191 17.961914 496.096191 19.514160 L 496.096191 23.000000 L 495.193848 23.000000 L 495.193848 19.557129 Q 495.193848 18.284180 495.051514 17.975342 Q 494.909180 17.666504 494.533203 17.666504 Q 494.103516 17.666504 493.945068 17.996826 Q 493.786621 18.327148 493.786621 19.557129 L 493.786621 23.000000 L 492.884277 23.000000 L 492.884277 19.557129 Q 492.884277 18.268066 492.731201 17.967285 Q 492.578125 17.666504 492.180664 17.666504 Q 491.788574 17.666504 491.635498 17.996826 Q 491.482422 18.327148 491.482422 19.557129 L 491.482422 23.000000 L 490.585449 23.000000 L 490.585449 16.984375 L 491.482422 16.984375 L 491.482422 17.500000 Q 491.659668 17.177734 491.925537 17.008545 Q 492.191406 16.839355 492.529785 16.839355 Q 492.937988 16.839355 493.209229 17.027344 Q 493.480469 17.215332 493.630859 17.596680 Z " fill="rgb(0, 0, 0)" fill-opacity="1.000000" />
<path d="M 498.697266 17.005859 L 501.227051 17.005859 L 501.227051 22.231934 L 503.187500 22.231934 L 503.187500 23.000000 L 498.278320 23.000000 L 498.278320 22.231934 L 500.238770 22.231934 L 500.238770 17.773926 L 498.697266 17.773926 Z M 500.238770 14.669434 L 501.227051 14.669434 L 501.227051 15.915527 L 500.238770 15.915527 Z " fill="rgb(0, 0, 0)" fill-opacity="1.000000" />
<path d="M 509.645020 19.272461 L 509.645020 23.000000 L 508.651367 23.000000 L 508.651367 19.272461 Q 508.651367 18.461426 508.366699 18.080078 Q 508.082031 17.698730 507.475098 17.698730 Q 506.782227 17.698730 506.408936 18.190186 Q 506.035645 18.681641 506.035645 19.600098 L 506.035645 23.000000 L 505.047363 23.000000 L 505.047363 16.984375 L 506.035645 16.984375 L 506.035645 17.886719 Q 506.298828 17.371094 506.750000 17.105225 Q 507.201172 16.839355 507.818848 16.839355 Q 508.737305 16.839355 509.191162 17.443604 Q 509.645020 18.047852 509.645020 19.272461 Z " fill="rgb(0, 0, 0)" fill-opacity="1.000000" />
<path d="M 515.608398 19.943848 Q 515.608398 18.832031 515.245850 18.254639 Q 514.883301 17.677246 514.190430 17.677246 Q 513.465332 17.677246 513.083984 18.254639 Q 512.702637 18.832031 512.702637 19.943848 Q 512.702637 21.055664 513.086670 21.638428 Q 513.470703 22.221191 514.201172 22.221191 Q 514.883301 22.221191 515.245850 21.635742 Q 515.608398 21.050293 515.608398 19.943848 Z M 516.596680 22.613281 Q 516.596680 23.966797 515.957520 24.665039 Q 515.318359 25.363281 514.077637 25.363281 Q 513.669434 25.363281 513.223633 25.288086 Q 512.777832 25.212891 512.332031 25.067871 L 512.332031 24.090332 Q 512.858398 24.337402 513.288086 24.455566 Q 513.717773 24.573730 514.077637 24.573730 Q 514.877930 24.573730 515.243164 24.138672 Q 515.608398 23.703613 515.608398 22.758301 L 515.608398 22.715332 L 515.608398 22.043945 Q 515.372070 22.548828 514.963867 22.795898 Q 514.555664 23.042969 513.970215 23.042969 Q 512.917480 23.042969 512.289062 22.199707 Q 511.660645 21.356445 511.660645 19.943848 Q 511.660645 18.525879 512.289062 17.682617 Q 512.917480 16.839355 513.970215 16.839355 Q 514.550293 16.839355 514.953125 17.070312 Q 515.355957 17.301270 515.608398 17.784668 L 515.608398 17.005859 L 516.596680 17.005859 Z " fill="rgb(0, 0, 0)" fill-opacity="1.000000" />
<path d="M 6.892578 7.797852 L 6.892578 5.950195 L 13.729980 5.950195 L 13.729980 7.797852 Z " fill="rgb(0, 0, 0)" fill-opacity="1.000000" />
<path d="M 13.892578 7.797852 L 13.892578 5.950195 L 20.729980 5.950195 L 20.729980 7.797852 Z " fill="rgb(0, 0, 0)" fill-opacity="1.000000" />
<path d="M 20.892578 7.797852 L 20.892578 5.950195 L 27.729980 5.950195 L 27.729980 7.797852 Z " fill="rgb(0, 0, 0)" fill-opacity="1.000000" />
<path d="M 27.892578 7.797852 L 27.892578 5.950195 L 34.729980 5.950195 L 34.729980 7.797852 Z " fill="rgb(0, 0, 0)" fill-opacity="1.000000" />
<path d="M 34.892578 7.797852 L 34.892578 5.950195 L 41.729980 5.950195 L 41.729980 7.797852 Z " fill="rgb(0, 0, 0)" fill-opacity="1.000000" />
<path d="M 41.892578 7.797852 L 41.892578 5.950195 L 48.729980 5.950195 L 48.729980 7.797852 Z " fill="rgb(0, 0, 0)" fill-opacity="1.000000" />
<path d="M 48.892578 7.797852 L 48.892578 5.950195 L 55.729980 5.950195 L 55.729980 7.797852 Z " fill="rgb(0, 0, 0)" fill-opacity="1.000000" />
<path d="M 55.892578 7.797852 L 55.892578 5.950195 L 62.729980 5.950195 L 62.729980 7.797852 Z " fill="rgb(0, 0, 0)" fill-opacity="1.000000" />
<path d="M 62.892578 7.797852 L 62.892578 5.950195 L 69.729980 5.950195 L 69.729980 7.797852 Z " fill="rgb(0, 0, 0)" fill-opacity="1.000000" />
<path d="M 69.892578 7.797852 L 69.892578 5.950195 L 76.729980 5.950195 L 76.729980 7.797852 Z " fill="rgb(0, 0, 0)" fill-opacity="1.000000" />
<path d="M 76.892578 7.797852 L 76.892578 5.950195 L 83.729980 5.950195 L 83.729980 7.797852 Z " fill="rgb(0, 0, 0)" fill-opacity="1.000000" />
<path d="M 83.892578 7.797852 L 83.892578 5.950195 L 90.729980 5.950195 L 90.729980 7.797852 Z " fill="rgb(0, 0, 0)" fill-opacity="1.000000" />
<path d="M 90.892578 7.797852 L 90.892578 5.950195 L 97.729980 5.950195 L 97.729980 7.797852 Z " fill="rgb(0, 0, 0)" fill-opacity="1.000000" />
<path d="M 97.892578 7.797852 L 97.892578 5.950195 L 104.729980 5.950195 L 104.729980 7.797852 Z " fill="rgb(0, 0, 0)" fill-opacity="1.000000" />
<path d="M 104.892578 7.797852 L 104.892578 5.950195 L 111.729980 5.950195 L 111.729980 7.797852 Z " fill="rgb(0, 0, 0)" fill-opacity="1.000000" />
<path d="M 111.892578 7.797852 L 111.892578 5.950195 L 118.729980 5.950195 L 118.729980 7.797852 Z " fill="rgb(0, 0, 0)" fill-opacity="1.000000" />
<path d="M 118.892578 7.797852 L 118.892578 5.950195 L 125.729980 5.950195 L 125.729980 7.797852 Z " fill="rgb(0, 0, 0)" fill-opacity="1.000000" />
<path d="M 125.892578 7.797852 L 125.892578 5.950195 L 132.729980 5.950195 L 132.729980 7.797852 Z " fill="rgb(0, 0, 0)" fill-opacity="1.000000" />
<path d="M 135.449219 13.319336 L 135.449219 7.797852 L 132.892578 7.797852 L 132.892578 5.950195 L 137.167969 5.950195 L 137.167969 13.319336 Z " fill="rgb(0, 0, 0)" fill-opacity="1.000000" />
<path d="M 275.449219 13.319336 L 275.449219 5.950195 L 279.729980 5.950195 L 279.729980 7.797852 L 277.167969 7.797852 L 277.167969 13.319336 Z " fill="rgb(0, 0, 0)" fill-opacity="1.000000" />
<path d="M 279.892578 7.797852 L 279.892578 5.950195 L 286.729980 5.950195 L 286.729980 7.797852 Z " fill="rgb(0, 0, 0)" fill-opacity="1.000000" />
<path d="M 286.892578 7.797852 L 286.892578 5.950195 L 293.729980 5.950195 L 293.729980 7.797852 Z " fill="rgb(0, 0, 0)" fill-opacity="1.000000" />
<path d="M 293.892578 7.797852 L 293.892578 5.950195 L 300.729980 5.950195 L 300.729980 7.797852 Z " fill="rgb(0, 0, 0)" fill-opacity="1.000000" />
<path d="M 300.892578 7.797852 L 300.892578 5.950195 L 307.729980 5.950195 L 307.729980 7.797852 Z " fill="rgb(0, 0, 0)" fill-opacity="1.000000" />
<path d="M 307.892578 7.797852 L 307.892578 5.950195 L 314.729980 5.950195 L 314.729980 7.797852 Z " fill="rgb(0, 0, 0)" fill-opacity="1.000000" />
<path d="M 314.892578 7.797852 L 314.892578 5.950195 L 321.729980 5.950195 L 321.729980 7.797852 Z " fill="rgb(0, 0, 0)" fill-opacity="1.000000" />
<path d="M 321.892578 7.797852 L 321.892578 5.950195 L 328.729980 5.950195 L 328.729980 7.797852 Z " fill="rgb(0, 0, 0)" fill-opacity="1.000000" />
<path d="M 328.892578 7.797852 L 328.892578 5.950195 L 335.729980 5.950195 L 335.729980 7.797852 Z " fill="rgb(0, 0, 0)" fill-opacity="1.000000" />
<path d="M 335.892578 7.797852 L 335.892578 5.950195 L 342.729980 5.950195 L 342.729980 7.797852 Z " fill="rgb(0, 0, 0)" fill-opacity="1.000000" />
<path d="M 342.892578 7.797852 L 342.892578 5.950195 L 349.729980 5.950195 L 349.729980 7.797852 Z " fill="rgb(0, 0, 0)" fill-opacity="1.000000" />
<path d="M 349.892578 7.797852 L 349.892578 5.950195 L 356.729980 5.950195 L 356.729980 7.797852 Z " fill="rgb(0, 0, 0)" fill-opacity="1.000000" />
<path d="M 356.892578 7.797852 L 356.892578 5.950195 L 363.729980 5.950195 L 363.729980 7.797852 Z " fill="rgb(0, 0, 0)" fill-opacity="1.000000" />
<path d="M 363.892578 7.797852 L 363.892578 5.950195 L 370.729980 5.950195 L 370.729980 7.797852 Z " fill="rgb(0, 0, 0)" fill-opacity="1.000000" />
<path d="M 370.892578 7.797852 L 370.892578 5.950195 L 377.729980 5.950195 L 377.729980 7.797852 Z " fill="rgb(0, 0, 0)" fill-opacity="1.000000" />
<path d="M 377.892578 7.797852 L 377.892578 5.950195 L 384.729980 5.950195 L 384.729980 7.797852 Z " fill="rgb(0, 0, 0)" fill-opacity="1.000000" />
<path d="M 384.892578 7.797852 L 384.892578 5.950195 L 391.729980 5.950195 L 391.729980 7.797852 Z " fill="rgb(0, 0, 0)" fill-opacity="1.000000" />
<path d="M 391.892578 7.797852 L 391.892578 5.950195 L 398.729980 5.950195 L 398.729980 7.797852 Z " fill="rgb(0, 0, 0)" fill-opacity="1.000000" />
<path d="M 398.892578 7.797852 L 398.892578 5.950195 L 405.729980 5.950195 L 405.729980 7.797852 Z " fill="rgb(0, 0, 0)" fill-opacity="1.000000" />
<path d="M 405.892578 7.797852 L 405.892578 5.950195 L 412.729980 5.950195 L 412.729980 7.797852 Z " fill="rgb(0, 0, 0)" fill-opacity="1.000000" />
<path d="M 415.449219 13.319336 L 415.449219 7.797852 L 412.892578 7.797852 L 412.892578 5.950195 L 417.167969 5.950195 L 417.167969 13.319336 Z " fill="rgb(0, 0, 0)" fill-opacity="1.000000" />
</svg>