<svg version="1" xmlns="http://www.w3.org/2000/svg" width="800" height="800" viewBox="0 0 600.000000 600.000000"><path d="M0 300.5V600h600V1H0v299.5zm277-199.3c43.1 8.3 76 22.8 95.2 42 12.4 12.4 17.3 23.2 17.2 38.3-.1 17.8-6.9 32.5-27.2 58.5-8.2 10.5-11.5 16.7-11 20.8.3 2.4 2.3 3.7 19.3 12.5 29.2 15.1 52.3 29.9 73.3 46.9 11.7 9.5 32 30.3 38.5 39.5 16.7 23.5 21.9 38 21.8 60.8 0 18.5-3.9 30.8-13.7 43.6-14.8 19.3-37.8 30.7-72.6 36-13 1.9-16.8 2.1-41.3 1.6-34.7-.8-48.3-2.4-93-11.4-20.7-4.1-23.9-5-31.8-9.1-17.1-8.7-35.1-23.4-36.2-29.6-1.3-6.5 1.6-10.1 12.4-15.7 9.3-4.9 13.7-9.1 14.7-14.6.8-4-4.3-41.7-15.3-113.2-12.1-79.2-21.8-120.5-34.3-146.6-7.5-15.7-15.5-23.5-26-25.5-5-.9-5.7-.8-12.4 2.4-3.9 1.8-11.4 4.9-16.6 6.9-9.8 3.6-38.9 12.7-40.9 12.7-.7 0-1.1-3.3-1.1-9.9v-9.9l3.5-3.1c4.4-3.9 8.5-5.9 20.6-10.4 20-7.5 66.9-18.2 101.9-23.2 26.7-3.8 36.7-3.9 55-.3z"/><path d="M281.5 135.7c-9.3.5-23 2.4-30.5 4.4-7.4 2-18.4 7.3-22.8 10.8-2.6 2.3-3.6-3.2 9.3 50.1 25.4 104.8 35.7 160.1 37.2 200.5.6 15.1.5 16.3-1.6 20.3-6.5 12.8-1.5 24.1 14.9 33.5 9.2 5.3 30.9 11.2 50.8 13.8 9.7 1.3 44.9 1.2 63.7-.1 24.1-1.7 39.4-7.1 49.6-17.4 10.4-10.4 14.1-20.8 14.1-40.1-.1-30.8-13.5-52.4-45.9-74.3-16.7-11.3-34.4-19-78.3-34.2-49.5-17.1-64.8-24.8-69.9-35.3-2.9-6-2.8-12.1.3-15.2 3.9-3.9 12-7.4 26.9-11.5 27.6-7.6 36.5-11.8 47.3-22.5 8.5-8.4 11.3-14.6 12.1-27.1.9-13.2-2.6-22.1-13-33.2-14.2-14.9-39-23.6-64.2-22.5z"/></svg>